<?xml version="1.0" encoding="UTF-8"?><svg id="Layer_1" xmlns="http://www.w3.org/2000/svg" xmlns:xlink="http://www.w3.org/1999/xlink" viewBox="0 0 841.89 841.89"><defs><style>.cls-1{filter:url(#drop-shadow-6);}.cls-2{fill:#151219;}</style><filter id="drop-shadow-6" x="174.83" y="79.13" width="492.75" height="665.05" filterUnits="userSpaceOnUse"><feOffset dx="13.42" dy="13.42"/><feGaussianBlur result="blur" stdDeviation="9.58"/><feFlood flood-color="#86569a" flood-opacity=".7"/><feComposite in2="blur" operator="in"/><feComposite in="SourceGraphic"/></filter></defs><g class="cls-1"><path class="cls-2" d="M512.88,293.32v13.58c0,.66-.7,1.08-1.29.77l-6.37-3.36-69.68-1.75-4.52,62.57,3.38,40.5-5.36,49.57-.56,5.2-2.83,26.18-4.42,52.96-.02.27-.02-.27-4.42-52.96-2.83-26.13-.55-5.11-5.38-49.7,3.38-40.5-4.52-62.57-69.68,1.75-6.37,3.36c-.58.31-1.29-.11-1.29-.77v-13.58c0-.65.7-1.08,1.29-.77l6.38,3.37,70.84,1.78,4.63-7.73c-4.76-13.33-6.57-31.79-5.83-38.61.73-6.81,7.78-46.66,7.78-46.66l-7.14-27.78-4.01-15.61c7.38-9.56,17.07-9.86,17.73-9.87h.03c.65.01,10.35.31,17.73,9.87l-4.01,15.61-7.14,27.78s7.05,39.84,7.78,46.66c.73,6.82-1.08,25.28-5.83,38.61l4.63,7.73,70.84-1.78,6.38-3.37c.58-.31,1.29.12,1.29.77Z"/><polygon class="cls-2" points="421.46 539.12 421.46 539.65 421.44 539.38 421.46 539.12"/><polygon class="cls-2" points="421.44 539.38 421.42 539.65 421.42 539.12 421.44 539.38"/><path class="cls-2" d="M423.67,455.36c.18,1.71.36,3.42.53,5.11-1.82-.07-3.64-.17-5.45-.3-.18-1.71-.35-3.42-.54-5.13,1.81.14,3.63.25,5.46.33Z"/><path class="cls-2" d="M424.21,454.82c-.19,1.75-.37,3.5-.55,5.25-1.82.16-3.64.27-5.47.35.18-1.72.35-3.44.54-5.18,1.84-.11,3.67-.24,5.48-.42Z"/><path class="cls-2" d="M413.75,455.36c.18,1.71.36,3.42.53,5.11-.12,0-.24-.01-.35-.02l-.55-5.11c.12.01.25.02.37.02Z"/><path class="cls-2" d="M429.05,455.21l-.56,5.2c-.13,0-.26.01-.39.02.18-1.72.35-3.44.54-5.18.14,0,.28-.02.41-.03Z"/><path class="cls-2" d="M398.36,406.41l-.48-3.94c-41.99-9.75-74.37-44.55-80.5-87.81-1.74-.21-3.46-.42-5.17-.63-.93-.12-1.86-.23-2.78-.33-3.7-.44-7.35-.88-10.97-1.29,1.24,12.25,4.29,24.16,9.11,35.56,4.26,10.08,9.78,19.46,16.47,28.02,3.12,3.98,6.48,7.78,10.1,11.39,2.09,2.09,4.24,4.09,6.45,6.02,0,0,0,0,0,0,9.84,8.56,20.89,15.45,32.95,20.55,8.62,3.64,17.53,6.28,26.66,7.88-.6-5.14-1.22-10.29-1.85-15.42Z"/><path class="cls-2" d="M545.51,290.92c-.01-.15-.02-.29-.03-.44-.97-13.49-4.13-26.59-9.41-39.07-3.83-9.05-8.67-17.54-14.46-25.37-3.66-4.95-7.7-9.64-12.1-14.04-.86-.86-1.72-1.7-2.61-2.53-10.79-10.19-23.16-18.26-36.81-24.04-10.93-4.64-22.36-7.62-34.08-8.95-1.8-.21-3.61-.37-5.43-.49-2.29-.16-4.59-.26-6.89-.29-.62-.01-1.25-.02-1.87-.02-.31,0-.62,0-.93,0-2.62.02-5.23.12-7.83.3-1.51.11-3.02.24-4.51.39-12.05,1.28-23.78,4.3-35,9.05-13.48,5.7-25.71,13.65-36.4,23.65-1.02.95-2.02,1.92-3.02,2.92-4.32,4.32-8.29,8.9-11.89,13.75-5.89,7.91-10.81,16.5-14.68,25.67-5.28,12.48-8.43,25.57-9.41,39.06h0c-.01.16-.02.3-.03.45-.21,2.91-.31,5.83-.31,8.77s.1,5.86.31,8.77c.09,1.32.21,2.64.33,3.95,1.24,12.25,4.29,24.16,9.11,35.56,4.26,10.08,9.78,19.46,16.47,28.02,3.12,3.98,6.48,7.78,10.1,11.39,2.09,2.09,4.24,4.09,6.45,6.02,0,0,0,0,0,0,9.84,8.56,20.89,15.45,32.95,20.55,8.62,3.64,17.53,6.28,26.66,7.88-.6-5.14-1.22-10.29-1.85-15.42l-.48-3.94c-41.99-9.75-74.37-44.55-80.5-87.81-.04-.27-.08-.53-.11-.8,0-.01,0-.02,0-.03-.04-.33-.09-.66-.13-.99-.54-4.31-.82-8.69-.82-13.15s.28-8.84.82-13.15c5.93-47.75,43.78-85.6,91.54-91.54,1.5-.19,3.02-.34,4.54-.47,2.53-.21,5.1-.32,7.69-.34.31,0,.62,0,.93,0,.63,0,1.25,0,1.87.02,2.58.04,5.13.18,7.66.41,1.21.11,2.42.24,3.62.39,47.75,5.94,85.6,43.79,91.54,91.54.53,4.31.81,8.7.81,13.15s-.28,8.84-.81,13.15c-5.45,43.81-37.75,79.27-79.92,89.43l-.5,4.14c-.62,5.08-1.23,10.19-1.83,15.27,8.84-1.61,17.48-4.2,25.83-7.73,11.87-5.03,22.78-11.8,32.52-20.18,2.37-2.03,4.66-4.17,6.89-6.39,3.53-3.53,6.82-7.24,9.87-11.12,6.79-8.63,12.39-18.1,16.7-28.3,4.79-11.33,7.84-23.19,9.09-35.37.14-1.38.26-2.76.35-4.14.21-2.91.31-5.83.31-8.77s-.1-5.86-.31-8.77Z"/><path class="cls-2" d="M398.36,406.41l-.48-3.94c-41.99-9.75-74.37-44.55-80.5-87.81-1.74-.21-3.46-.42-5.17-.63-.93-.12-1.86-.23-2.78-.33-3.7-.44-7.35-.88-10.97-1.29,1.24,12.25,4.29,24.16,9.11,35.56,4.26,10.08,9.78,19.46,16.47,28.02,3.12,3.98,6.48,7.78,10.1,11.39,2.09,2.09,4.24,4.09,6.45,6.02,0,0,0,0,0,0,9.84,8.56,20.89,15.45,32.95,20.55,8.62,3.64,17.53,6.28,26.66,7.88-.6-5.14-1.22-10.29-1.85-15.42Z"/><path class="cls-2" d="M502.99,212.24c3.43,2.67,6.73,5.57,9.88,8.72,3.15,3.15,6.06,6.45,8.72,9.88,3.53-5.8,6.98-11.31,10.34-16.55,10.33-16.09,19.9-29.64,28.48-40.88-11.24,8.58-24.79,18.15-40.88,28.48-5.24,3.36-10.75,6.81-16.55,10.34Z"/><path class="cls-2" d="M560.41,427.81c-6.52-4.98-13.82-10.3-21.95-15.9-1.4-.96-2.83-1.94-4.29-2.93-4.63-3.14-9.51-6.36-14.65-9.66-4.01-2.58-8.19-5.21-12.54-7.89-1.32-.81-2.66-1.63-4.01-2.45,3.43-2.67,6.73-5.57,9.88-8.72,3.15-3.15,6.05-6.45,8.72-9.88.73,1.19,1.45,2.37,2.17,3.54,2.77,4.51,5.51,8.84,8.17,13,3.25,5.06,6.42,9.86,9.51,14.43.99,1.47,1.98,2.92,2.96,4.34,5.64,8.19,11,15.55,16.01,22.12Z"/><path class="cls-2" d="M532.12,312.32c1.07-4.31,1.63-8.7,1.63-13.15s-.55-8.84-1.63-13.15c13.12,1.6,25.73,3.06,37.84,4.39,37.18,4.07,69.73,6.88,97.62,8.77-27.9,1.88-60.44,4.7-97.62,8.77-12.11,1.33-24.72,2.78-37.84,4.39Z"/><path class="cls-2" d="M339.42,212.24c-3.43,2.67-6.73,5.57-9.88,8.72-3.15,3.15-6.06,6.45-8.72,9.88-3.53-5.8-6.98-11.31-10.34-16.55-10.33-16.09-19.9-29.64-28.48-40.88,11.24,8.58,24.79,18.15,40.88,28.48,5.24,3.36,10.75,6.81,16.55,10.34Z"/><path class="cls-2" d="M282,427.81c6.52-4.98,13.82-10.3,21.95-15.9,1.4-.96,2.83-1.94,4.29-2.93,4.63-3.14,9.51-6.36,14.65-9.66,4.01-2.58,8.19-5.21,12.54-7.89,1.32-.81,2.66-1.63,4.01-2.45-3.43-2.67-6.73-5.57-9.88-8.72-3.15-3.15-6.05-6.45-8.72-9.88-.73,1.19-1.45,2.37-2.17,3.54-2.77,4.51-5.51,8.84-8.17,13-3.25,5.06-6.42,9.86-9.51,14.43-.99,1.47-1.98,2.92-2.96,4.34-5.64,8.19-11,15.55-16.01,22.12Z"/><path class="cls-2" d="M310.29,312.32c-1.07-4.31-1.63-8.7-1.63-13.15s.55-8.84,1.63-13.15c-13.12,1.6-25.73,3.06-37.84,4.39-37.18,4.07-69.73,6.88-97.62,8.77,27.9,1.88,60.44,4.7,97.62,8.77,12.11,1.33,24.72,2.78,37.84,4.39Z"/><path class="cls-2" d="M452.67,110.33v.53c-23.57,1.24-29.94,7.62-31.19,31.19h-.53c-1.25-23.57-7.63-29.95-31.2-31.2v-.53c23.57-1.25,29.95-7.62,31.19-31.19h.53c1.26,23.57,7.63,29.94,31.2,31.2Z"/><path class="cls-2" d="M582.36,294.52c-.73-29.2-9.41-58.59-27.07-84.77-3.68-5.65-7.71-10.97-12.07-15.97-1.5-1.71-3.03-3.39-4.61-5.02-29.03-30.25-70.39-47.02-112.53-48.12,41.48,1.24,80.29,20.85,108.32,51.04.85.92,1.7,1.84,2.53,2.78,1.1,1.23,2.18,2.47,3.23,3.72,24.6,29.14,36.29,62.73,37.27,95.82.15,5.05.05,10.08-.29,15.09-2.37,34.95-16.51,68.47-39.76,94.61-2.33,2.62-4.75,5.17-7.26,7.63-22.97,22.56-53.38,38.39-89.18,42.89-1.81.23-3.64.43-5.48.6-1.81.17-3.64.3-5.48.42-1.75.11-3.52.18-5.29.23-1.16.04-2.32.05-3.49.07-.54,0-1.09-.01-1.63-.02-1.5-.03-2.99-.08-4.47-.14-1.83-.08-3.65-.19-5.46-.33-1.85-.14-3.68-.31-5.49-.51-36.92-4.06-68.09-19.96-91.52-42.82-2.36-2.3-4.63-4.66-6.81-7.09-23.83-26.39-38.2-60.46-40.51-95.91-.32-4.77-.41-9.56-.28-14.38.92-33.88,13.02-68.24,38.54-97.67,1.8-2.08,3.67-4.13,5.6-6.15.53-.55,1.06-1.11,1.6-1.66,27.77-28.97,66.58-47.42,106.97-48.22-40.57.73-81.21,16.24-110.51,44.68-.76.75-1.51,1.51-2.25,2.28-1.51,1.56-2.99,3.14-4.42,4.75-25.34,28.4-39.34,65.15-40.47,102.51-.14,4.44-.09,8.89.14,13.34.93,17.97,4.88,35.86,12.01,52.83,7.36,18.15,17.85,34.24,30.62,47.92,1.81,1.94,3.67,3.83,5.57,5.67,26.08,25.27,60.31,41.18,96.26,45.08,1.82.2,3.65.37,5.49.51,1.81.13,3.63.23,5.45.31,1.59.07,3.17.11,4.76.12,1.15,0,2.31,0,3.47,0,1.86-.02,3.72-.08,5.58-.17,1.82-.08,3.64-.2,5.47-.35,1.83-.14,3.65-.33,5.48-.54,14.36-1.68,28.66-5.37,42.51-11.23,19.91-8.15,37.19-19.85,51.5-34.03,2.04-2.02,4.02-4.1,5.94-6.21,24.88-27.47,39.48-62.89,41.75-99.47.29-4.67.38-9.36.26-14.06Z"/><path class="cls-2" d="M208.64,641.28c-1.1.07-2.13.11-3.08.11-.07.07-.18-.07-.33-.44-.15-.37-.15-.68,0-.93.15-.26.4-.49.77-.71.66.07,1.26-.05,1.81-.38.55-.33,1.04-.79,1.48-1.37.81-.81,1.61-1.89,2.42-3.24.81-1.35,1.68-3.28,2.64-5.77l20.88-50.98c.37-.95.51-2.03.44-3.24-.07-1.21-.33-2.29-.77-3.24l4.18,2.64-22.41,54.83c-1.17,2.56-1.59,4.61-1.26,6.15.33,1.54,1.13,2.66,2.42,3.35,1.28.7,2.98,1.12,5.11,1.26.8.22,1.3.46,1.48.71.18.26.22.55.11.88-.11.33-.31.49-.6.49-1.91,0-3.81-.04-5.71-.11-.88-.07-1.91-.11-3.08-.11h-4.83c-.59.07-1.14.11-1.65.11ZM218.91,621.4c.48-1.1,1.04-1.94,1.7-2.53-.15.59-.15,1.04,0,1.37.15.33.51.49,1.1.49,5.49-.07,10.58-.51,15.27-1.32,4.69-.81,9.41-1.83,14.17-3.08.59-.22,1.01-.57,1.26-1.04.26-.48.31-.93.16-1.37.15,0,.42.31.82.93.4.62.77,1.36,1.1,2.2.33.84.46,1.56.38,2.14-.37-.51-.81-.81-1.32-.88-.51-.07-1.06-.04-1.65.11-3.59,1.03-7.58,1.94-11.98,2.75-3.08.44-6.19.82-9.34,1.15-3.15.33-6.34.53-9.56.6-.73,0-1.32.16-1.76.49-.44.33-.81.75-1.1,1.26,0-1.1.24-2.2.71-3.3ZM257.42,641.28c-1.76.07-3.55.11-5.38.11-.29,0-.49-.16-.6-.49-.11-.33-.05-.62.16-.88.22-.26.66-.49,1.32-.71,1.98-.15,3.55-.57,4.72-1.26,1.17-.7,1.9-1.81,2.2-3.35.29-1.54-.11-3.59-1.21-6.15l-25.05-60.76c-.22-.44-.46-.79-.71-1.04-.26-.26-.53-.46-.82-.6-.15-.15-.26-.22-.33-.22s-.22-.07-.44-.22c-.37.07-.6-.04-.71-.33-.11-.29-.09-.55.06-.77.15-.22.33-.33.55-.33h13.95c1.24,0,2.18.07,2.8.22.62.15,1.15.46,1.59.93.44.48.81,1.23,1.1,2.25l25.27,60.87c.95,2.42,1.83,4.32,2.64,5.71.81,1.39,1.54,2.46,2.2,3.19.51.66,1.08,1.15,1.7,1.48.62.33,1.23.46,1.81.38.29.22.51.44.66.66.15.22.16.51.06.88-.11.37-.24.55-.38.55-1.03,0-2.05-.04-3.08-.11-.44-.07-.99-.11-1.65-.11h-19.56c-1.1,0-2.05.04-2.86.11Z"/><path class="cls-2" d="M293.81,608.32c.29,0,.55.16.77.49s.29.82.22,1.48c-.37,6.67.16,12.23,1.59,16.7,1.43,4.47,3.74,7.8,6.92,10,3.19,2.2,7.27,3.3,12.25,3.3,2.56,0,4.96-.37,7.2-1.1,2.23-.73,4.1-2.05,5.6-3.96,1.5-1.9,2.25-4.43,2.25-7.58s-.79-5.84-2.36-8.3c-1.58-2.45-3.64-4.63-6.21-6.54-2.56-1.9-5.75-3.92-9.56-6.04-4.91-2.93-8.92-5.57-12.03-7.91-3.11-2.34-5.57-4.85-7.36-7.53-1.8-2.67-2.69-5.58-2.69-8.74-.07-3.52,1.17-6.83,3.74-9.94,2.56-3.11,6.15-5.58,10.77-7.42,4.61-1.83,10-2.75,16.15-2.75,3.88,0,7.78.57,11.7,1.7,3.92,1.14,7.07,2.69,9.45,4.67,2.38,1.98,3.24,4.25,2.58,6.81l-5.27,17.36c-.44.44-.86.49-1.26.16-.4-.33-.57-.9-.49-1.7.51-5.57.09-10.31-1.26-14.23-1.36-3.92-3.55-6.9-6.59-8.96-3.04-2.05-6.72-3.08-11.04-3.08-4.54,0-7.86.84-9.94,2.53-2.09,1.69-3.13,4.1-3.13,7.25,0,2.35.66,4.51,1.98,6.48,1.32,1.98,3.13,3.75,5.44,5.33,2.31,1.58,5.44,3.61,9.39,6.1l.99.44c4.91,2.86,8.92,5.44,12.03,7.75,3.11,2.31,5.71,5.02,7.8,8.13,2.09,3.11,3.13,6.72,3.13,10.82,0,4.54-1.36,8.53-4.07,11.98-2.71,3.44-6.52,6.14-11.43,8.08-4.91,1.94-10.59,2.91-17.03,2.91-4.98,0-9.65-.73-14.01-2.2-4.36-1.46-7.73-3.37-10.11-5.71-2.38-2.34-3.28-4.72-2.69-7.14l5.82-19.23c.22-.29.48-.44.77-.44Z"/><path class="cls-2" d="M456.71,604.15c.07-.29.4-.51.99-.66h3.74c3.96-.44,7.2-1.46,9.72-3.08,2.53-1.61,4.36-3.77,5.49-6.48,1.13-2.71,1.7-6.08,1.7-10.11s-.68-7.38-2.03-10.05c-1.36-2.67-3.32-4.65-5.88-5.93-2.56-1.28-5.68-1.96-9.34-2.03h-4.39c-1.39-.07-2.35.18-2.86.77-.51.59-.77,1.72-.77,3.41v58.01c0,2.78.29,5,.88,6.65.59,1.65,1.39,2.8,2.42,3.46,1.02.66,2.31,1.06,3.85,1.21.51.22.85.46,1.03.71.18.26.23.55.12.88-.11.33-.27.49-.49.49-1.39,0-2.82-.04-4.28-.11-.66-.07-1.39-.11-2.2-.11h-18.9c-.95,0-1.76.04-2.42.11-1.39.07-2.78.11-4.18.11-.22,0-.38-.16-.49-.49-.11-.33-.09-.62.05-.88.15-.26.51-.49,1.1-.71,1.54-.15,2.82-.55,3.85-1.21,1.02-.66,1.85-1.81,2.47-3.46.62-1.65.93-3.86.93-6.65v-50.54c0-2.78-.31-5-.93-6.65-.62-1.65-1.45-2.8-2.47-3.46-1.03-.66-2.34-1.03-3.96-1.1-.59-.22-.95-.46-1.1-.71-.15-.26-.15-.55,0-.88.15-.33.33-.49.55-.49,1.9.07,4.1.15,6.59.22,3.74-.15,7.43-.26,11.1-.33,6.74-.29,12.53-.44,17.36-.44,11.13,0,19.37,1.69,24.72,5.05,5.35,3.37,8.02,8.57,8.02,15.6,0,4.1-1.06,7.62-3.19,10.55-2.13,2.93-5.22,5.27-9.28,7.03-4.07,1.76-8.99,2.82-14.78,3.19l-.99.99-11.32-1.32c-.37-.07-.51-.26-.44-.55ZM470.28,605.19c2.97.11,6.1.05,9.39-.16.51,0,.91.13,1.21.38.29.26.51.64.66,1.15,2.78,9.16,8.62,26.58,12.94,33.43,4.32,6.85,8.94,11.85,13.84,15l.99.44c.15.44.02.86-.38,1.26-.4.4-1.04.57-1.92.49-6.37-1.91-12.09-4.67-17.14-8.3-5.05-3.63-9.72-8.31-14.01-14.06-4.29-5.75-10.55-22.15-14.21-30.36,2.78.37,5.66.6,8.63.71Z"/><path class="cls-2" d="M590.61,641.28c-1.39.07-2.78.11-4.18.11-.22,0-.4-.16-.55-.49-.15-.33-.13-.62.05-.88.18-.26.57-.49,1.15-.71,1.54-.15,2.82-.55,3.85-1.21,1.02-.66,1.85-1.81,2.47-3.46.62-1.65.93-3.86.93-6.65v-50.54c0-2.78-.31-5-.93-6.65-.62-1.65-1.45-2.8-2.47-3.46-1.03-.66-2.31-1.06-3.85-1.21-.59-.22-.97-.46-1.15-.71-.18-.26-.2-.55-.05-.88.15-.33.33-.49.55-.49,1.39,0,2.78.04,4.18.11.66.07,1.46.11,2.42.11h18.9c.81-.07,1.61-.11,2.42-.11,1.61-.07,3.15-.11,4.61-.11.29,0,.48.16.55.49.07.33.02.62-.16.88-.18.26-.57.49-1.15.71-1.69.15-3.1.55-4.23,1.21-1.14.66-2,1.81-2.58,3.46-.59,1.65-.88,3.86-.88,6.65v57.46c0,1.61.26,2.69.77,3.24.51.55,1.35.82,2.53.82,6.08,0,11.08-.68,15-2.03,3.92-1.35,6.98-3.39,9.17-6.1,1.76-2.12,3.2-4.82,4.34-8.08,1.13-3.26,2.07-7.49,2.8-12.69.22-.88.6-1.48,1.15-1.81.55-.33,1.08-.42,1.59-.28.51.15.77.33.77.55-.81,5.42-1.39,11.01-1.76,16.76-.37,5.75-.44,10.57-.22,14.45,0,1.1-.13,1.85-.38,2.25-.26.4-.79.6-1.59.6s-1.72-.07-2.75-.22c-6.3-.81-13.22-1.21-20.77-1.21h-28.13c-.95,0-1.76.04-2.42.11Z"/><path class="cls-2" d="M295.82,674.44c-.29-3.99-.44-8.08-.44-12.25,0-1.03-.2-1.78-.6-2.25-.4-.48-.97-.71-1.7-.71-.81,0-1.87.11-3.19.33-5.2.73-10.73,1.1-16.59,1.1h-32.41c-1.1-.07-2.16-.11-3.19-.11-.88-.07-1.87-.11-2.97-.11-.29.07-.48.26-.55.55-.07.29-.02.55.16.77.18.22.53.44,1.04.66,1.54.29,2.8.79,3.79,1.48.99.7,1.74,1.87,2.25,3.52.51,1.65.77,3.79.77,6.43v50.21c0,2.78-.26,4.98-.77,6.59-.51,1.61-1.25,2.8-2.2,3.57-.95.77-2.24,1.26-3.85,1.48-.59.15-.95.38-1.1.71-.15.33-.16.64-.05.93.11.29.24.44.38.44,1.17,0,2.31-.04,3.41-.11.95,0,2.01-.04,3.19-.11h19.12c1.1,0,2.09.04,2.97.11,1.83.07,3.59.11,5.27.11.37-.15.6-.35.71-.6.11-.26.05-.51-.16-.77-.22-.26-.55-.38-.99-.38-2.35-.37-4.18-.91-5.49-1.65-1.32-.73-2.35-1.85-3.08-3.35-.73-1.5-1.1-3.68-1.1-6.54v-18.94c-.16-.34-.23-.74-.19-1.24.22-2.19.53-4.37.89-6.54-.06-.08-.11-.17-.16-.26-.37-.7-.55-1.41-.55-2.14v-27.03c0-1.98.27-3.39.82-4.23.55-.84,1.48-1.26,2.8-1.26,4.03,0,7.47.05,10.33.16,2.86.11,5.09.35,6.7.71,1.61.37,2.89.88,3.85,1.54,1.68,1.32,3.33,3.17,4.94,5.55,1.61,2.38,3.11,5.51,4.5,9.39.66,1.91,1.24,3.96,1.76,6.15.15.95.55,1.48,1.21,1.59.66.11,1.24-.02,1.76-.38-.59-4.76-1.03-9.14-1.32-13.13Z"/><path class="cls-2" d="M320.62,734.43c-6.01-3.33-10.68-7.95-14.01-13.84-3.33-5.9-5-12.58-5-20.05s1.94-14.72,5.82-21.1c3.88-6.37,9.17-11.39,15.88-15.05,6.7-3.66,14.19-5.49,22.47-5.49,7.76,0,14.72,1.67,20.88,5,6.15,3.33,10.93,7.95,14.34,13.84,3.41,5.9,5.11,12.51,5.11,19.83,0,7.84-1.96,14.94-5.88,21.32-3.92,6.37-9.28,11.39-16.1,15.05-6.81,3.66-14.5,5.49-23.07,5.49-7.62,0-14.43-1.67-20.44-5ZM361.22,732.56c3.04-1.79,5.33-4.36,6.87-7.69,1.54-3.33,2.31-7.42,2.31-12.25,0-7.03-1.58-14.43-4.72-22.19-3.15-7.76-7.33-14.26-12.53-19.5-5.2-5.24-10.73-7.86-16.59-7.86-3.96,0-7.38.88-10.27,2.64-2.89,1.76-5.16,4.3-6.81,7.64-1.65,3.33-2.47,7.2-2.47,11.59,0,7.11,1.57,14.6,4.72,22.47,3.15,7.87,7.32,14.49,12.53,19.83,5.2,5.35,10.66,8.02,16.37,8.02,4.03,0,7.56-.9,10.6-2.69Z"/><path class="cls-2" d="M417.1,700.54c.07-.29.4-.51.99-.66h3.74c3.96-.44,7.2-1.46,9.72-3.08,2.53-1.61,4.36-3.77,5.49-6.48,1.13-2.71,1.7-6.08,1.7-10.11s-.68-7.38-2.03-10.05c-1.36-2.67-3.32-4.65-5.88-5.93-2.56-1.28-5.68-1.96-9.34-2.03h-4.39c-1.39-.07-2.35.18-2.86.77-.51.59-.77,1.72-.77,3.41v58.01c0,2.78.29,5,.88,6.65.59,1.65,1.39,2.8,2.42,3.46,1.02.66,2.31,1.06,3.85,1.21.51.22.86.46,1.04.71.18.26.22.55.11.88-.11.33-.27.49-.49.49-1.39,0-2.82-.04-4.28-.11-.66-.07-1.39-.11-2.2-.11h-18.9c-.95,0-1.76.04-2.42.11-1.39.07-2.78.11-4.18.11-.22,0-.38-.16-.49-.49-.11-.33-.09-.62.05-.88.15-.26.51-.49,1.1-.71,1.54-.15,2.82-.55,3.85-1.21,1.02-.66,1.85-1.81,2.47-3.46.62-1.65.93-3.86.93-6.65v-50.54c0-2.78-.31-5-.93-6.65-.62-1.65-1.45-2.8-2.47-3.46-1.03-.66-2.34-1.03-3.96-1.1-.59-.22-.95-.46-1.1-.71-.15-.26-.15-.55,0-.88.15-.33.33-.49.55-.49,1.9.07,4.1.15,6.59.22,3.74-.15,7.43-.26,11.1-.33,6.74-.29,12.53-.44,17.36-.44,11.13,0,19.37,1.69,24.72,5.05,5.35,3.37,8.02,8.57,8.02,15.6,0,4.1-1.06,7.62-3.19,10.55-2.13,2.93-5.22,5.27-9.28,7.03-4.07,1.76-8.99,2.82-14.78,3.19l-.99.99-11.32-1.32c-.37-.07-.51-.26-.44-.55ZM430.67,701.58c2.97.11,6.1.05,9.39-.16.51,0,.91.13,1.21.38.29.26.51.64.66,1.15,2.78,9.16,6.33,17.16,10.66,24.01,4.32,6.85,8.94,11.85,13.84,15l.99.44c.15.44.02.86-.38,1.26-.4.4-1.04.57-1.92.49-6.37-1.91-12.09-4.67-17.14-8.3-5.05-3.63-9.72-8.31-14.01-14.06-4.29-5.75-8.26-12.73-11.92-20.93,2.78.37,5.66.6,8.63.71Z"/><path class="cls-2" d="M483.7,734.6c-5.86-3.22-10.53-7.76-14.01-13.62-3.48-5.86-5.22-12.64-5.22-20.33s1.89-14.72,5.66-21.1c3.77-6.37,8.86-11.39,15.27-15.05,6.41-3.66,13.39-5.49,20.93-5.49,5.49,0,10.49.75,15,2.25,4.5,1.5,7.95,3.41,10.33,5.71,2.38,2.31,3.17,4.6,2.36,6.87l-8.42,23.14c-.22.29-.59.44-1.1.44s-.92-.18-1.21-.55c-.29-.37-.4-.91-.33-1.65,1.54-3.74,2.07-7.47,1.59-11.21-.48-3.74-1.7-7.21-3.68-10.44-2.13-3.96-4.96-7.03-8.52-9.23-3.55-2.2-8-1.39-11.96-1.39-4.18,0-7.84.82-10.99,2.47-3.15,1.65-5.59,4.12-7.31,7.42-1.72,3.3-2.58,7.44-2.58,12.42,0,8.5,1.67,16.54,5,24.12,3.33,7.58,7.58,13.64,12.75,18.18,5.16,4.54,10.13,6.81,14.89,6.81,2.78,0,5.18-.31,7.2-.93,2.01-.62,3.66-1.54,4.94-2.75,1.28-1.21,2.07-2.65,2.36-4.34.15-1.83-.06-3.97-.6-6.43-.55-2.45-1.3-5.48-2.25-9.06-.73-1.17-1.76-2.23-3.08-3.19-1.32-.95-3.06-1.76-5.22-2.42-2.16-.66-4.96-1.21-8.41-1.65-.66-.15-1.1-.46-1.32-.93-.22-.48-.24-.92-.05-1.32.18-.4.46-.71.82-.93,4.39.44,9.3.68,14.72.71,5.42.04,10.18-.2,14.28-.71,1.02-.07,1.74.06,2.14.38.4.33.6.82.6,1.48,0,.44-.04.92-.11,1.43-.22.88-.44,2.2-.66,3.96-.29,2.2-.46,4.32-.49,6.37-.04,2.05-.05,4.69-.05,7.91,0,.66-.07,1.19-.22,1.59-.15.4-.44.9-.88,1.48-4.25,4.91-9.17,8.53-14.78,10.88-5.6,2.34-11.7,3.52-18.29,3.52s-13.26-1.61-19.12-4.83Z"/><path class="cls-2" d="M606.73,708.61c-.51-.18-1.03-.15-1.54.11-.51.26-.84.79-.99,1.59-.81,3.96-1.63,7.18-2.47,9.67-.84,2.49-1.7,4.51-2.58,6.04-.88,1.54-1.94,2.82-3.19,3.85-2.13,1.91-5.15,3.3-9.06,4.18-3.92.88-9.28,1.32-16.1,1.32-1.1,0-1.96-.13-2.58-.38-.62-.26-1.06-.75-1.32-1.48-.26-.73-.38-1.87-.38-3.41v-29.01c0-.81.18-1.54.55-2.2.37-.66.95-.99,1.76-.99.93,0,1.8,0,2.63.02v-2.24c-.81,0-1.69.01-2.63.01-.81,0-1.39-.29-1.76-.88-.37-.59-.55-1.32-.55-2.2v-25.71c0-1.24.26-2.23.77-2.97.51-.73,1.32-1.1,2.42-1.1,4.4,0,8.08.13,11.04.38,2.97.26,5.47.75,7.53,1.48,2.05.73,3.74,1.83,5.05,3.3,1.1,1.03,2.03,2.31,2.8,3.85.77,1.54,1.59,3.57,2.47,6.1.88,2.53,1.83,5.95,2.86,10.27.22.66.6,1.08,1.15,1.26.55.18,1.12.16,1.7-.06-1.47-10.91-2.2-20.07-2.2-27.47-.07-1.02-.29-1.74-.66-2.14-.37-.4-.92-.6-1.65-.6-.59,0-1.8.15-3.63.44-5.13.66-10.11.99-14.94.99h-32.19c-.95,0-1.76-.04-2.42-.11-1.39-.07-2.78-.11-4.18-.11-.22,0-.4.16-.55.49-.15.33-.13.62.05.88.18.26.57.49,1.15.71,1.54.15,2.82.55,3.85,1.21,1.02.66,1.85,1.81,2.47,3.46.62,1.65.93,3.86.93,6.65v50.54c0,2.78-.31,5-.93,6.65-.62,1.65-1.45,2.8-2.47,3.46-1.03.66-2.31,1.06-3.85,1.21-.59.22-.97.46-1.15.71-.18.26-.2.55-.05.88.15.33.33.49.55.49,1.39,0,2.78-.04,4.18-.11.66-.07,1.46-.11,2.42-.11h33.4c6.08,0,11.87.37,17.36,1.1,1.24.22,2.27.33,3.08.33.73.07,1.28-.15,1.65-.66.37-.51.59-1.28.66-2.31,0-3.88.16-8.09.49-12.64.33-4.54.86-9.3,1.59-14.28.15-.15-.04-.31-.55-.49Z"/><path class="cls-2" d="M258.51,677.9h-.34c-.62,11.71-3.2,16.86-11.24,18.99-.35.83-.71,1.67-1.01,2.52,8.84,1.97,11.61,7.06,12.25,19.24h.34c.81-15.27,4.94-19.4,20.21-20.21v-.34c-15.27-.82-19.4-4.94-20.21-20.21Z"/><polygon class="cls-2" points="239.07 576.88 238.73 577.72 215.4 634.69 212.57 634.69 239.07 571.07 239.07 576.88"/><path class="cls-2" d="M251.88,612.16s1.11,3.02-1.82,3.66c-2.93.64-21.91,4.13-29.44,4.43l-1.54,1.82,11.41-.64,13.71-2.12,11.6-3.36-3.92-3.79Z"/><path class="cls-2" d="M504.93,640.95c-1.1.07-2.13.11-3.08.11-.07.07-.18-.07-.33-.44-.15-.37-.15-.68,0-.93.15-.26.4-.49.77-.71.66.07,1.26-.05,1.81-.38.55-.33,1.04-.79,1.48-1.37.81-.81,1.61-1.89,2.42-3.24.81-1.35,1.68-3.28,2.64-5.77l20.88-50.98c.37-.95.51-2.03.44-3.24-.07-1.21-.33-2.29-.77-3.24l4.18,2.64-22.41,54.83c-1.17,2.56-1.59,4.61-1.26,6.15.33,1.54,1.13,2.66,2.42,3.35,1.28.7,2.98,1.12,5.11,1.26.8.22,1.3.46,1.48.71.18.26.22.55.11.88-.11.33-.31.49-.6.49-1.91,0-3.81-.04-5.71-.11-.88-.07-1.91-.11-3.08-.11h-4.83c-.59.07-1.14.11-1.65.11ZM515.2,621.06c.48-1.1,1.04-1.94,1.7-2.53-.15.59-.15,1.04,0,1.37.15.33.51.49,1.1.49,5.49-.07,10.58-.51,15.27-1.32,4.69-.81,9.41-1.83,14.17-3.08.59-.22,1.01-.57,1.26-1.04.26-.48.31-.93.16-1.37.15,0,.42.31.82.93.4.62.77,1.36,1.1,2.2.33.84.46,1.56.38,2.14-.37-.51-.81-.81-1.32-.88-.51-.07-1.06-.04-1.65.11-3.59,1.03-7.58,1.94-11.98,2.75-3.08.44-6.19.82-9.34,1.15-3.15.33-6.34.53-9.56.6-.73,0-1.32.16-1.76.49-.44.33-.81.75-1.1,1.26,0-1.1.24-2.2.71-3.3ZM553.71,640.95c-1.76.07-3.55.11-5.38.11-.29,0-.49-.16-.6-.49-.11-.33-.05-.62.16-.88.22-.26.66-.49,1.32-.71,1.98-.15,3.55-.57,4.72-1.26,1.17-.7,1.9-1.81,2.2-3.35.29-1.54-.11-3.59-1.21-6.15l-25.05-60.76c-.22-.44-.46-.79-.71-1.04-.26-.26-.53-.46-.82-.6-.15-.15-.26-.22-.33-.22s-.22-.07-.44-.22c-.37.07-.6-.04-.71-.33-.11-.29-.09-.55.06-.77.15-.22.33-.33.55-.33h13.95c1.24,0,2.18.07,2.8.22.62.15,1.15.46,1.59.93.44.48.81,1.23,1.1,2.25l25.27,60.87c.95,2.42,1.83,4.32,2.64,5.71.81,1.39,1.54,2.46,2.2,3.19.51.66,1.08,1.15,1.7,1.48.62.33,1.23.46,1.81.38.29.22.51.44.66.66.15.22.16.51.06.88-.11.37-.24.55-.38.55-1.03,0-2.05-.04-3.08-.11-.44-.07-.99-.11-1.65-.11h-19.56c-1.1,0-2.05.04-2.86.11Z"/><polygon class="cls-2" points="535.09 576.54 534.75 577.38 511.41 634.35 508.59 634.35 535.09 570.74 535.09 576.54"/><path class="cls-2" d="M547.9,611.82s1.11,3.02-1.82,3.66c-2.93.64-21.91,4.13-29.44,4.43l-1.54,1.82,11.41-.64,13.71-2.12,11.6-3.36-3.92-3.79Z"/><path class="cls-2" d="M406.69,639.31c-2.13-.15-3.92-.55-5.38-1.21-1.47-.66-2.58-1.81-3.35-3.46-.77-1.65-1.15-3.86-1.15-6.65v-57.68c0-1.1.18-2.03.55-2.8.37-.77.91-1.15,1.65-1.15,2.71,0,4.96.07,6.76.22.41.03.79.07,1.14.11.06-.89.17-1.77.31-2.63-3.18.14-6.64.21-10.4.21h-16.26c-4.03,0-7.72-.08-11.1-.24-.06.92-.08,1.86-.09,2.79.54-.1,1.19-.18,1.96-.25,1.68-.15,3.96-.22,6.81-.22.73,0,1.32.38,1.76,1.15s.66,1.7.66,2.8v57.68c0,2.78-.42,5-1.26,6.65-.84,1.65-1.98,2.8-3.41,3.46-1.43.66-3.21,1.06-5.33,1.21-.81.22-1.34.46-1.59.71-.26.26-.31.55-.16.88.15.33.37.49.66.49,1.98,0,3.96-.04,5.93-.11.95-.07,2.05-.11,3.3-.11h20c1.17,0,2.23.04,3.19.11,1.98.07,3.92.11,5.82.11.29,0,.51-.16.66-.49.15-.33.09-.62-.16-.88-.26-.26-.75-.49-1.48-.71Z"/><path class="cls-2" d="M354.11,567.65c0-1.3,1.06-2.36,2.36-2.36h24.72v.23c-20.28,1.07-25.77,6.57-26.85,26.85h-.23v-24.72Z"/><path class="cls-2" d="M369.33,564.03c-.71.06-10.82-.41-11.8-.49-.98-.09-3.34.12-3.38,3.69-.04,3.57,13.96-1.48,13.96-1.48l2.85-1.28-1.63-.44Z"/><path class="cls-2" d="M421.95,567.73c0-1.3-1.06-2.36-2.36-2.36h-24.72s0,.23,0,.23c20.28,1.07,25.77,6.57,26.85,26.85h.23s0-24.72,0-24.72Z"/><path class="cls-2" d="M406.73,564.11c.71.06,10.82-.41,11.8-.49.98-.09,3.34.12,3.38,3.69.04,3.57-13.96-1.48-13.96-1.48l-2.85-1.28,1.63-.44Z"/><path class="cls-2" d="M565.35,697.92h20.38v.17c-15.27.81-19.4,4.94-20.21,20.21h-.17v-20.38Z"/><path class="cls-2" d="M565.35,697.92v-20.38h.17c.81,15.27,4.94,19.4,20.21,20.21v.17h-20.38Z"/><path class="cls-2" d="M656.74,697.76v.34c-15.27.8-19.4,4.94-20.21,20.21h-.34c-.81-15.27-4.94-19.4-20.21-20.21v-.34c15.27-.81,19.4-4.94,20.21-20.21h.34c.82,15.27,4.94,19.4,20.21,20.21Z"/><path class="cls-2" d="M238.11,738c-1.1.07-2.24.11-3.41.11-.15,0-.27-.15-.38-.44-.11-.29-.09-.6.05-.93.15-.33.51-.57,1.1-.71,1.61-.22,2.89-.71,3.85-1.48.95-.77,1.68-1.96,2.2-3.57.51-1.61.77-3.81.77-6.59v-50.21c0-2.64-.26-4.78-.77-6.43-.51-1.65-1.26-2.82-2.25-3.52-.99-.7-2.25-1.19-3.79-1.48-.51-.22-.86-.44-1.04-.66-.18-.22-.24-.48-.16-.77.07-.29.26-.48.55-.55,1.1,0,2.09.04,2.97.11,1.02,0,2.09.04,3.19.11h32.41c5.86,0,11.39-.37,16.59-1.1,1.32-.22,2.38-.33,3.19-.33.73,0,1.3.24,1.7.71.4.48.6,1.23.6,2.25,0,4.18.15,8.26.44,12.25.29,3.99.73,8.37,1.32,13.13-.51.37-1.1.49-1.76.38-.66-.11-1.06-.64-1.21-1.59-.51-2.2-1.1-4.25-1.76-6.15-1.39-3.88-2.89-7.01-4.5-9.39-1.61-2.38-3.26-4.23-4.94-5.55-.95-.66-2.24-1.17-3.85-1.54-1.61-.37-3.85-.6-6.7-.71-2.86-.11-6.3-.16-10.33-.16-1.32,0-2.25.42-2.8,1.26-.55.84-.82,2.25-.82,4.23v27.03c0,.73.18,1.45.55,2.14.37.7.95,1.04,1.76,1.04.88,0,2.21-.04,4.01-.11,1.79-.07,3.42-.15,4.89-.22,1.54-.22,2.75-.6,3.63-1.15.88-.55,1.68-1.5,2.42-2.86.73-1.35,1.54-3.46,2.42-6.32.07-.88.44-1.35,1.1-1.43.66-.07,1.1.11,1.32.55-.59,3.74-.82,8.04-.71,12.91.11,4.87.49,9.21,1.15,13.02-.07.22-.29.38-.66.49-.37.11-.73.07-1.1-.11-.37-.18-.59-.49-.66-.93-.95-3-1.83-5.27-2.64-6.81-.81-1.54-1.7-2.65-2.69-3.35-.99-.7-2.18-1.12-3.57-1.26-1.32-.07-2.91-.13-4.78-.16-1.87-.04-3.24-.06-4.12-.06-.81,0-1.39.29-1.76.88-.37.59-.55,1.32-.55,2.2v20.66c0,2.86.37,5.04,1.1,6.54.73,1.5,1.76,2.62,3.08,3.35,1.32.73,3.15,1.28,5.49,1.65.44,0,.77.13.99.38.22.26.27.51.16.77-.11.26-.35.46-.71.6-1.69,0-3.44-.04-5.27-.11-.88-.07-1.87-.11-2.97-.11h-19.12c-1.17.07-2.24.11-3.19.11Z"/><path class="cls-2" d="M226.78,697.76v.34c-15.27.8-19.4,4.94-20.21,20.21h-.34c-.81-15.27-4.94-19.4-20.21-20.21v-.34c15.27-.81,19.4-4.94,20.21-20.21h.34c.82,15.27,4.94,19.4,20.21,20.21Z"/></g></svg>
