<?xml version="1.0" encoding="UTF-8"?><svg id="Layer_1" xmlns="http://www.w3.org/2000/svg" viewBox="0 0 1258.86 574.37"><defs><style>.cls-1{fill:#e19ac3;}.cls-2{fill:#151219;}</style></defs><path class="cls-1" d="M536.71,261.91c-1.6.11-3.1.16-4.49.16-.11.1-.27-.11-.48-.64-.22-.53-.22-.99,0-1.36.21-.37.59-.72,1.12-1.04.96.11,1.84-.08,2.65-.56.8-.48,1.52-1.15,2.16-2,1.18-1.18,2.35-2.75,3.53-4.73,1.18-1.98,2.46-4.78,3.85-8.42l30.46-74.4c.53-1.39.75-2.97.64-4.73-.11-1.76-.48-3.34-1.12-4.73l6.09,3.85-32.71,80.01c-1.71,3.74-2.33,6.73-1.84,8.98.48,2.24,1.66,3.88,3.53,4.89,1.87,1.02,4.35,1.63,7.46,1.84,1.17.32,1.9.67,2.16,1.04.27.38.32.8.16,1.28-.16.48-.46.72-.88.72-2.78,0-5.56-.06-8.34-.16-1.28-.11-2.78-.16-4.49-.16h-7.05c-.86.11-1.66.16-2.4.16ZM551.7,232.89c.69-1.6,1.52-2.83,2.49-3.69-.22.86-.22,1.52,0,2,.21.48.75.72,1.6.72,8.02-.11,15.44-.75,22.29-1.92,6.84-1.18,13.73-2.67,20.68-4.49.85-.32,1.47-.83,1.84-1.52.37-.69.45-1.36.24-2,.21,0,.61.46,1.2,1.36.59.91,1.12,1.98,1.6,3.21.48,1.23.67,2.27.56,3.13-.54-.75-1.18-1.18-1.92-1.28-.75-.11-1.55-.05-2.41.16-5.24,1.5-11.06,2.83-17.48,4.01-4.49.64-9.03,1.2-13.63,1.68-4.6.48-9.25.78-13.95.88-1.07,0-1.92.24-2.57.72-.64.48-1.18,1.1-1.6,1.84,0-1.6.35-3.21,1.04-4.81ZM607.9,261.91c-2.57.11-5.19.16-7.86.16-.43,0-.72-.24-.88-.72-.16-.48-.08-.91.24-1.28.32-.37.96-.72,1.92-1.04,2.89-.21,5.18-.83,6.89-1.84,1.71-1.01,2.78-2.65,3.21-4.89.43-2.24-.16-5.24-1.76-8.98l-36.56-88.66c-.32-.64-.67-1.15-1.04-1.52-.38-.37-.78-.67-1.2-.88-.22-.21-.38-.32-.48-.32s-.32-.11-.64-.32c-.54.11-.88-.05-1.04-.48-.16-.43-.14-.8.08-1.12.21-.32.48-.48.8-.48h20.36c1.82,0,3.18.11,4.09.32.91.21,1.68.67,2.32,1.36.64.7,1.18,1.79,1.6,3.29l36.88,88.83c1.39,3.53,2.67,6.31,3.85,8.34,1.18,2.03,2.24,3.58,3.21,4.65.75.96,1.58,1.68,2.49,2.17.91.48,1.79.67,2.65.56.43.32.75.64.96.96.21.32.24.75.08,1.28-.16.53-.35.8-.56.8-1.5,0-2.99-.06-4.49-.16-.64-.11-1.44-.16-2.4-.16h-28.54c-1.6,0-2.99.05-4.17.16Z"/><path class="cls-1" d="M661,213.81c.43,0,.8.24,1.12.72s.43,1.2.32,2.16c-.54,9.73.24,17.85,2.32,24.37,2.08,6.52,5.45,11.38,10.1,14.59,4.65,3.21,10.61,4.81,17.88,4.81,3.74,0,7.24-.53,10.5-1.6,3.26-1.07,5.98-2.99,8.18-5.77,2.19-2.78,3.29-6.47,3.29-11.06s-1.15-8.52-3.45-12.11c-2.3-3.58-5.32-6.76-9.06-9.54-3.74-2.78-8.39-5.72-13.95-8.82-7.16-4.27-13.01-8.12-17.56-11.54-4.54-3.42-8.12-7.08-10.74-10.98-2.62-3.9-3.93-8.15-3.93-12.75-.11-5.13,1.71-9.97,5.45-14.51,3.74-4.54,8.98-8.15,15.71-10.82,6.73-2.67,14.59-4.01,23.57-4.01,5.66,0,11.36.83,17.08,2.48,5.72,1.66,10.31,3.93,13.79,6.81,3.47,2.89,4.73,6.2,3.77,9.94l-7.7,25.33c-.64.64-1.26.72-1.84.24-.59-.48-.83-1.31-.72-2.49.75-8.12.13-15.04-1.84-20.76-1.98-5.72-5.19-10.07-9.62-13.07-4.44-2.99-9.81-4.49-16.11-4.49-6.63,0-11.46,1.23-14.51,3.69-3.05,2.46-4.57,5.99-4.57,10.58,0,3.42.96,6.57,2.89,9.46,1.92,2.89,4.57,5.48,7.94,7.78,3.37,2.3,7.94,5.27,13.71,8.9l1.44.64c7.16,4.17,13.01,7.94,17.56,11.3,4.54,3.37,8.34,7.32,11.38,11.86,3.05,4.54,4.57,9.81,4.57,15.79,0,6.63-1.98,12.45-5.93,17.48-3.96,5.03-9.51,8.95-16.67,11.78-7.16,2.83-15.45,4.25-24.85,4.25-7.27,0-14.08-1.07-20.44-3.21-6.36-2.14-11.28-4.92-14.75-8.34-3.47-3.42-4.78-6.89-3.93-10.42l8.5-28.06c.32-.43.69-.64,1.12-.64Z"/><path class="cls-1" d="M898.7,207.72c.11-.43.59-.75,1.44-.96h5.45c5.77-.64,10.5-2.14,14.19-4.49,3.69-2.35,6.36-5.5,8.02-9.46,1.66-3.95,2.48-8.87,2.48-14.75s-.99-10.77-2.97-14.67c-1.98-3.9-4.84-6.79-8.58-8.66-3.74-1.87-8.28-2.86-13.63-2.97h-6.41c-2.03-.11-3.42.27-4.17,1.12-.75.86-1.12,2.51-1.12,4.97v84.66c0,4.06.43,7.3,1.28,9.7.85,2.4,2.03,4.09,3.53,5.05,1.5.96,3.37,1.55,5.61,1.76.75.32,1.23.67,1.5,1.04.27.38.34.8.18,1.28-.16.48-.4.72-.72.72-2.03,0-4.12-.06-6.25-.16-.96-.11-2.03-.16-3.21-.16h-27.58c-1.39,0-2.57.05-3.53.16-2.03.11-4.06.16-6.09.16-.32,0-.56-.24-.72-.72-.16-.48-.14-.91.08-1.28.21-.37.75-.72,1.6-1.04,2.24-.21,4.11-.8,5.61-1.76,1.5-.96,2.7-2.65,3.61-5.05.91-2.4,1.36-5.64,1.36-9.7v-73.75c0-4.06-.46-7.3-1.36-9.7-.91-2.4-2.11-4.09-3.61-5.05-1.5-.96-3.42-1.5-5.77-1.6-.86-.32-1.39-.67-1.6-1.04-.22-.37-.22-.8,0-1.28.21-.48.48-.72.8-.72,2.78.11,5.99.21,9.62.32,5.45-.21,10.85-.37,16.19-.48,9.83-.43,18.28-.64,25.33-.64,16.25,0,28.27,2.46,36.08,7.38,7.8,4.92,11.7,12.51,11.7,22.77,0,5.99-1.55,11.12-4.65,15.39-3.1,4.28-7.62,7.7-13.55,10.26-5.93,2.57-13.12,4.12-21.56,4.65l-1.44,1.44-16.51-1.92c-.54-.11-.75-.37-.64-.8ZM918.51,209.24c4.33.16,8.9.08,13.71-.24.75,0,1.34.19,1.76.56.43.38.75.94.96,1.68,4.06,13.36,12.58,38.79,18.89,48.79,6.31,10,13.04,17.29,20.2,21.89l1.44.64c.21.64.02,1.26-.56,1.84-.59.59-1.52.83-2.81.72-9.3-2.78-17.64-6.81-25.01-12.11-7.38-5.29-14.19-12.13-20.44-20.52-6.25-8.39-15.39-32.32-20.73-44.3,4.06.54,8.26.88,12.59,1.04Z"/><path class="cls-1" d="M1094.1,261.91c-2.03.11-4.06.16-6.09.16-.32,0-.59-.24-.8-.72-.22-.48-.19-.91.08-1.28.27-.37.83-.72,1.68-1.04,2.24-.21,4.11-.8,5.61-1.76,1.5-.96,2.7-2.65,3.61-5.05.91-2.4,1.36-5.64,1.36-9.7v-73.75c0-4.06-.46-7.3-1.36-9.7-.91-2.4-2.11-4.09-3.61-5.05-1.5-.96-3.37-1.55-5.61-1.76-.86-.32-1.42-.67-1.68-1.04-.27-.37-.3-.8-.08-1.28.21-.48.48-.72.8-.72,2.03,0,4.06.06,6.09.16.96.11,2.14.16,3.53.16h27.58c1.18-.11,2.35-.16,3.53-.16,2.35-.11,4.59-.16,6.73-.16.43,0,.69.24.8.72.11.48.02.91-.24,1.28-.27.38-.83.72-1.68,1.04-2.46.21-4.52.8-6.17,1.76-1.66.96-2.91,2.65-3.77,5.05-.86,2.4-1.28,5.64-1.28,9.7v83.85c0,2.35.37,3.93,1.12,4.73.75.8,1.98,1.2,3.69,1.2,8.87,0,16.17-.99,21.89-2.97,5.72-1.98,10.18-4.94,13.39-8.9,2.57-3.1,4.67-7.03,6.33-11.78,1.66-4.75,3.02-10.93,4.09-18.52.32-1.28.88-2.17,1.68-2.65.8-.48,1.58-.61,2.32-.4.75.22,1.12.48,1.12.8-1.18,7.91-2.03,16.06-2.57,24.45-.54,8.39-.64,15.42-.32,21.08,0,1.6-.19,2.7-.56,3.29-.38.59-1.15.88-2.32.88s-2.51-.11-4.01-.32c-9.19-1.18-19.3-1.76-30.3-1.76h-41.05c-1.39,0-2.57.05-3.53.16Z"/><path class="cls-1" d="M626.33,310.29c-.43-5.82-.64-11.78-.64-17.88,0-1.5-.3-2.59-.88-3.29-.59-.69-1.42-1.04-2.48-1.04-1.18,0-2.73.16-4.65.48-7.59,1.07-15.66,1.6-24.21,1.6h-47.3c-1.6-.11-3.15-.16-4.65-.16-1.28-.11-2.73-.16-4.33-.16-.43.11-.7.38-.8.8-.11.43-.03.8.24,1.12.27.32.77.64,1.52.96,2.24.43,4.09,1.15,5.53,2.17,1.44,1.02,2.54,2.73,3.29,5.13.75,2.4,1.12,5.53,1.12,9.38v73.27c0,4.06-.38,7.27-1.12,9.62-.75,2.35-1.82,4.09-3.21,5.21-1.39,1.12-3.26,1.84-5.61,2.16-.86.22-1.39.56-1.6,1.04-.22.48-.24.94-.08,1.36.16.43.35.64.56.64,1.71,0,3.37-.06,4.97-.16,1.39,0,2.94-.05,4.65-.16h27.9c1.6,0,3.05.05,4.33.16,2.67.11,5.24.16,7.7.16.53-.22.88-.51,1.04-.88.16-.37.08-.75-.24-1.12-.32-.37-.8-.56-1.44-.56-3.42-.53-6.09-1.34-8.02-2.4-1.92-1.07-3.42-2.7-4.49-4.89-1.07-2.19-1.6-5.37-1.6-9.54v-27.64c-.23-.49-.34-1.09-.27-1.81.32-3.2.77-6.38,1.3-9.54-.08-.12-.16-.24-.23-.38-.54-1.01-.8-2.06-.8-3.13v-39.44c0-2.89.4-4.94,1.2-6.17.8-1.23,2.16-1.84,4.09-1.84,5.88,0,10.9.08,15.07.24,4.17.16,7.43.51,9.78,1.04,2.35.54,4.22,1.28,5.61,2.24,2.46,1.92,4.86,4.62,7.21,8.1,2.35,3.48,4.54,8.04,6.57,13.71.96,2.78,1.82,5.77,2.57,8.98.21,1.39.8,2.16,1.76,2.32.96.16,1.82-.02,2.57-.56-.86-6.95-1.5-13.33-1.92-19.16Z"/><path class="cls-1" d="M662.52,397.84c-8.77-4.86-15.58-11.6-20.44-20.2-4.87-8.6-7.3-18.36-7.3-29.26s2.83-21.49,8.5-30.78c5.66-9.3,13.39-16.62,23.17-21.97,9.78-5.34,20.71-8.02,32.79-8.02,11.33,0,21.48,2.43,30.46,7.3,8.98,4.87,15.95,11.6,20.92,20.2,4.97,8.61,7.46,18.25,7.46,28.94,0,11.44-2.86,21.81-8.58,31.1-5.72,9.3-13.55,16.62-23.49,21.97-9.94,5.34-21.16,8.02-33.67,8.02-11.12,0-21.06-2.43-29.82-7.3ZM721.76,395.11c4.43-2.62,7.78-6.36,10.02-11.22,2.24-4.86,3.37-10.82,3.37-17.88,0-10.26-2.3-21.06-6.89-32.39-4.6-11.33-10.69-20.82-18.28-28.46-7.59-7.64-15.66-11.46-24.21-11.46-5.77,0-10.77,1.28-14.99,3.85-4.22,2.57-7.54,6.28-9.94,11.14-2.41,4.87-3.61,10.5-3.61,16.92,0,10.37,2.3,21.3,6.89,32.79,4.59,11.49,10.69,21.14,18.28,28.94,7.59,7.8,15.55,11.7,23.89,11.7,5.88,0,11.04-1.31,15.47-3.93Z"/><path class="cls-1" d="M803.31,348.37c.11-.43.59-.75,1.44-.96h5.45c5.77-.64,10.5-2.14,14.19-4.49,3.69-2.35,6.36-5.5,8.02-9.46,1.66-3.95,2.48-8.87,2.48-14.75s-.99-10.77-2.97-14.67c-1.98-3.9-4.84-6.79-8.58-8.66-3.74-1.87-8.28-2.86-13.63-2.97h-6.41c-2.03-.11-3.42.27-4.17,1.12-.75.86-1.12,2.51-1.12,4.97v84.66c0,4.06.43,7.3,1.28,9.7.85,2.4,2.03,4.09,3.53,5.05,1.5.96,3.37,1.55,5.61,1.76.75.32,1.26.67,1.52,1.04.27.38.32.8.16,1.28-.16.48-.4.72-.72.72-2.03,0-4.12-.06-6.25-.16-.96-.11-2.03-.16-3.21-.16h-27.58c-1.39,0-2.57.05-3.53.16-2.03.11-4.06.16-6.09.16-.32,0-.56-.24-.72-.72-.16-.48-.14-.91.08-1.28.21-.37.75-.72,1.6-1.04,2.24-.21,4.11-.8,5.61-1.76,1.5-.96,2.7-2.65,3.61-5.05.91-2.4,1.36-5.64,1.36-9.7v-73.75c0-4.06-.46-7.3-1.36-9.7-.91-2.4-2.11-4.09-3.61-5.05-1.5-.96-3.42-1.5-5.77-1.6-.86-.32-1.39-.67-1.6-1.04-.22-.37-.22-.8,0-1.28.21-.48.48-.72.8-.72,2.78.11,5.99.21,9.62.32,5.45-.21,10.85-.37,16.19-.48,9.83-.43,18.28-.64,25.33-.64,16.25,0,28.27,2.46,36.08,7.38,7.8,4.92,11.7,12.51,11.7,22.77,0,5.99-1.55,11.12-4.65,15.39-3.1,4.28-7.62,7.7-13.55,10.26-5.93,2.57-13.12,4.12-21.56,4.65l-1.44,1.44-16.51-1.92c-.54-.11-.75-.37-.64-.8ZM823.11,349.9c4.33.16,8.9.08,13.71-.24.75,0,1.34.19,1.76.56.43.38.75.94.96,1.68,4.06,13.36,9.24,25.04,15.55,35.03,6.31,10,13.04,17.29,20.2,21.89l1.44.64c.21.64.02,1.26-.56,1.84-.59.59-1.52.83-2.81.72-9.3-2.78-17.64-6.81-25.01-12.11-7.38-5.29-14.19-12.13-20.44-20.52-6.25-8.39-12.05-18.57-17.4-30.54,4.06.54,8.26.88,12.59,1.04Z"/><path class="cls-1" d="M900.49,398.08c-8.55-4.7-15.37-11.33-20.44-19.88-5.08-8.55-7.62-18.44-7.62-29.66s2.75-21.49,8.26-30.78c5.5-9.3,12.93-16.62,22.29-21.97,9.35-5.34,19.53-8.02,30.54-8.02,8.02,0,15.31,1.1,21.89,3.29,6.57,2.19,11.6,4.97,15.07,8.34,3.47,3.37,4.62,6.71,3.45,10.02l-12.29,33.77c-.32.43-.86.64-1.6.64s-1.34-.27-1.76-.8c-.43-.53-.59-1.34-.48-2.4,2.24-5.45,3.02-10.9,2.32-16.35-.7-5.45-2.48-10.53-5.37-15.23-3.1-5.77-7.24-10.26-12.43-13.47-5.19-3.21-11.68-2.02-17.45-2.02-6.09,0-11.44,1.2-16.03,3.61-4.6,2.4-8.15,6.01-10.66,10.82-2.51,4.81-3.77,10.85-3.77,18.12,0,12.4,2.43,24.13,7.3,35.19,4.86,11.06,11.06,19.91,18.6,26.54,7.54,6.63,14.78,9.94,21.73,9.94,4.06,0,7.56-.45,10.5-1.36,2.94-.91,5.34-2.24,7.22-4.01,1.87-1.76,3.02-3.87,3.45-6.33.21-2.67-.08-5.8-.88-9.38-.8-3.58-1.9-7.99-3.29-13.23-1.07-1.71-2.57-3.26-4.49-4.65-1.92-1.39-4.46-2.57-7.62-3.53-3.15-.96-7.24-1.76-12.27-2.41-.96-.21-1.6-.67-1.92-1.36-.32-.69-.35-1.34-.08-1.92.27-.59.67-1.04,1.2-1.36,6.41.64,13.57.99,21.48,1.04,7.91.05,14.86-.29,20.84-1.04,1.5-.1,2.54.08,3.13.56.59.48.88,1.2.88,2.16,0,.64-.06,1.34-.16,2.08-.32,1.28-.64,3.21-.96,5.77-.43,3.21-.67,6.31-.72,9.3-.05,2.99-.08,6.84-.08,11.54,0,.96-.11,1.74-.32,2.33-.22.59-.64,1.31-1.28,2.16-6.2,7.16-13.39,12.45-21.57,15.87-8.18,3.42-17.08,5.13-26.7,5.13s-19.35-2.35-27.9-7.06Z"/><path class="cls-1" d="M1080.03,360.16c-.75-.27-1.5-.21-2.24.16-.75.38-1.23,1.15-1.44,2.33-1.18,5.77-2.38,10.48-3.61,14.11-1.23,3.64-2.49,6.57-3.77,8.82-1.28,2.24-2.83,4.12-4.65,5.61-3.1,2.78-7.51,4.81-13.23,6.09-5.72,1.28-13.55,1.92-23.49,1.92-1.6,0-2.86-.19-3.77-.56-.91-.37-1.55-1.09-1.92-2.16-.38-1.07-.56-2.73-.56-4.97v-42.33c0-1.18.27-2.24.8-3.21.53-.96,1.39-1.44,2.57-1.44,1.35,0,2.63.01,3.83.04v-3.26c-1.19.01-2.46.02-3.83.02-1.18,0-2.03-.43-2.57-1.28-.54-.85-.8-1.92-.8-3.21v-37.52c0-1.82.37-3.26,1.12-4.33.75-1.07,1.92-1.6,3.53-1.6,6.41,0,11.78.19,16.11.56,4.33.38,7.99,1.1,10.98,2.16,2.99,1.07,5.45,2.67,7.38,4.81,1.6,1.5,2.97,3.37,4.09,5.61,1.12,2.24,2.32,5.21,3.61,8.9,1.28,3.69,2.67,8.69,4.17,14.99.32.96.88,1.58,1.68,1.84.8.27,1.63.24,2.49-.08-2.14-15.93-3.21-29.29-3.21-40.08-.11-1.5-.43-2.54-.96-3.13-.54-.59-1.34-.88-2.4-.88-.86,0-2.62.22-5.29.64-7.48.96-14.75,1.44-21.81,1.44h-46.98c-1.39,0-2.57-.05-3.53-.16-2.03-.11-4.06-.16-6.09-.16-.32,0-.59.24-.8.72-.22.48-.19.91.08,1.28.27.38.83.72,1.68,1.04,2.24.21,4.11.8,5.61,1.76,1.5.96,2.7,2.65,3.61,5.05.91,2.4,1.36,5.64,1.36,9.7v73.75c0,4.06-.46,7.3-1.36,9.7-.91,2.4-2.11,4.09-3.61,5.05-1.5.96-3.37,1.55-5.61,1.76-.86.32-1.42.67-1.68,1.04-.27.38-.3.8-.08,1.28.21.48.48.72.8.72,2.03,0,4.06-.06,6.09-.16.96-.11,2.14-.16,3.53-.16h48.74c8.87,0,17.32.53,25.33,1.6,1.82.32,3.31.48,4.49.48,1.07.1,1.87-.22,2.41-.96.53-.75.85-1.87.96-3.37,0-5.66.24-11.81.72-18.44.48-6.63,1.26-13.57,2.32-20.84.21-.21-.06-.45-.8-.72Z"/><polygon class="cls-1" points="581.12 167.93 580.62 169.15 546.57 252.29 542.44 252.29 581.12 159.45 581.12 167.93"/><path class="cls-1" d="M599.8,219.41s1.63,4.41-2.65,5.34c-4.28.93-31.97,6.03-42.97,6.46l-2.25,2.66,16.66-.93,20-3.09,16.93-4.91-5.72-5.53Z"/><path class="cls-1" d="M969.07,261.41c-1.6.11-3.1.16-4.49.16-.11.1-.27-.11-.48-.64-.22-.53-.22-.99,0-1.36.21-.37.59-.72,1.12-1.04.96.11,1.84-.08,2.65-.56.8-.48,1.52-1.15,2.16-2,1.18-1.18,2.35-2.75,3.53-4.73,1.18-1.98,2.46-4.78,3.85-8.42l30.46-74.4c.53-1.39.75-2.97.64-4.73-.11-1.76-.48-3.34-1.12-4.73l6.09,3.85-32.71,80.01c-1.71,3.74-2.33,6.73-1.84,8.98.48,2.24,1.66,3.88,3.53,4.89,1.87,1.02,4.35,1.63,7.46,1.84,1.17.32,1.9.67,2.16,1.04.27.38.32.8.16,1.28-.16.48-.46.72-.88.72-2.78,0-5.56-.06-8.34-.16-1.28-.11-2.78-.16-4.49-.16h-7.05c-.86.11-1.66.16-2.4.16ZM984.06,232.39c.69-1.6,1.52-2.83,2.49-3.69-.22.86-.22,1.52,0,2,.21.48.75.72,1.6.72,8.02-.11,15.44-.75,22.29-1.92,6.84-1.18,13.73-2.67,20.68-4.49.85-.32,1.47-.83,1.84-1.52.37-.69.45-1.36.24-2,.21,0,.61.46,1.2,1.36.59.91,1.12,1.98,1.6,3.21.48,1.23.67,2.27.56,3.13-.54-.75-1.18-1.18-1.92-1.28-.75-.11-1.55-.05-2.41.16-5.24,1.5-11.06,2.83-17.48,4.01-4.49.64-9.03,1.2-13.63,1.68-4.6.48-9.25.78-13.95.88-1.07,0-1.92.24-2.57.72-.64.48-1.18,1.1-1.6,1.84,0-1.6.35-3.21,1.04-4.81ZM1040.25,261.41c-2.57.11-5.19.16-7.86.16-.43,0-.72-.24-.88-.72-.16-.48-.08-.91.24-1.28.32-.37.96-.72,1.92-1.04,2.89-.21,5.18-.83,6.89-1.84,1.71-1.01,2.78-2.65,3.21-4.89.43-2.24-.16-5.24-1.76-8.98l-36.56-88.66c-.32-.64-.67-1.15-1.04-1.52-.38-.37-.78-.67-1.2-.88-.22-.21-.38-.32-.48-.32s-.32-.11-.64-.32c-.54.11-.88-.05-1.04-.48-.16-.43-.14-.8.08-1.12.21-.32.48-.48.8-.48h20.36c1.82,0,3.18.11,4.09.32.91.21,1.68.67,2.32,1.36.64.7,1.18,1.79,1.6,3.29l36.88,88.83c1.39,3.53,2.67,6.31,3.85,8.34,1.18,2.03,2.24,3.58,3.21,4.65.75.96,1.58,1.68,2.49,2.17.91.48,1.79.67,2.65.56.43.32.75.64.96.96.21.32.24.75.08,1.28-.16.53-.35.8-.56.8-1.5,0-2.99-.06-4.49-.16-.64-.11-1.44-.16-2.4-.16h-28.54c-1.6,0-2.99.05-4.17.16Z"/><polygon class="cls-1" points="1013.09 167.44 1012.59 168.66 978.53 251.79 974.41 251.79 1013.09 158.96 1013.09 167.44"/><path class="cls-1" d="M1031.77,218.91s1.63,4.41-2.65,5.34c-4.28.93-31.97,6.03-42.97,6.46l-2.25,2.66,16.66-.93,20-3.09,16.93-4.91-5.72-5.53Z"/><path class="cls-1" d="M825.71,259.02c-3.1-.21-5.72-.8-7.86-1.76-2.14-.96-3.77-2.65-4.89-5.05s-1.68-5.64-1.68-9.7v-84.18c0-1.6.27-2.97.8-4.09.53-1.12,1.34-1.68,2.4-1.68,3.95,0,7.24.11,9.86.32.61.05,1.16.11,1.66.17.09-1.29.24-2.58.45-3.84-4.64.2-9.69.3-15.18.3h-23.73c-5.88,0-11.27-.12-16.19-.34-.08,1.35-.12,2.71-.14,4.07.79-.14,1.74-.26,2.86-.36,2.46-.21,5.77-.32,9.94-.32,1.07,0,1.92.56,2.57,1.68s.96,2.49.96,4.09v84.18c0,4.06-.62,7.3-1.84,9.7-1.23,2.4-2.89,4.09-4.97,5.05-2.08.96-4.68,1.55-7.78,1.76-1.18.32-1.95.67-2.32,1.04-.38.38-.46.8-.24,1.28.21.48.53.72.96.72,2.89,0,5.77-.06,8.66-.16,1.39-.11,2.99-.16,4.81-.16h29.18c1.71,0,3.26.05,4.65.16,2.89.11,5.72.16,8.5.16.43,0,.75-.24.96-.72.21-.48.13-.91-.24-1.28-.38-.37-1.1-.72-2.16-1.04Z"/><path class="cls-1" d="M748.98,154.45c0-1.9,1.54-3.44,3.44-3.44h36.07v.33c-29.6,1.57-37.61,9.58-39.18,39.18h-.33v-36.07Z"/><path class="cls-1" d="M771.19,149.17c-1.03.09-15.8-.59-17.22-.72-1.43-.12-4.88.18-4.93,5.39-.06,5.21,20.38-2.17,20.38-2.17l4.16-1.86-2.38-.65Z"/><path class="cls-1" d="M847.99,154.57c0-1.9-1.54-3.44-3.44-3.44h-36.07s0,.33,0,.33c29.6,1.57,37.61,9.58,39.18,39.18h.33s0-36.07,0-36.07Z"/><path class="cls-1" d="M825.77,149.29c1.03.09,15.8-.59,17.22-.72s4.88.18,4.93,5.39c.06,5.21-20.38-2.17-20.38-2.17l-4.16-1.86,2.38-.65Z"/><path class="cls-1" d="M1019.64,344.56h29.74v.25c-22.28,1.18-28.31,7.21-29.49,29.49h-.25v-29.74Z"/><path class="cls-1" d="M1019.64,344.56v-29.74h.25c1.18,22.28,7.21,28.31,29.49,29.49v.25h-29.74Z"/><path class="cls-1" d="M1163.58,341.44v.5c-22.28,1.17-28.31,7.21-29.49,29.49h-.5c-1.18-22.28-7.21-28.31-29.5-29.5v-.5c22.28-1.18,28.31-7.21,29.49-29.49h.5c1.19,22.28,7.21,28.31,29.5,29.5Z"/><path class="cls-1" d="M628.38,329.92c-.75.54-1.6.72-2.56.56-.96-.16-1.55-.93-1.76-2.32-.75-3.21-1.61-6.2-2.57-8.98-2.03-5.66-4.22-10.23-6.57-13.71-2.35-3.47-4.76-6.17-7.21-8.1-1.39-.96-3.26-1.71-5.61-2.24-2.35-.54-5.61-.88-9.78-1.05-4.17-.16-9.19-.24-15.07-.24-1.92,0-3.29.62-4.09,1.85-.8,1.23-1.21,3.28-1.21,6.17v14.34c1.12,18.59,5.85,25.53,21.22,27.84.15-.08.29-.16.43-.25,1.28-.8,2.46-2.19,3.53-4.17s2.25-5.05,3.53-9.22c.11-1.28.64-1.98,1.6-2.08.96-.1,1.61.16,1.92.8-.86,5.45-1.2,11.73-1.04,18.84.16,7.11.72,13.44,1.68,19-.11.32-.43.56-.96.72-.54.16-1.07.11-1.61-.16-.53-.27-.85-.72-.96-1.36-1.39-4.38-2.68-7.69-3.85-9.94-1.18-2.24-2.49-3.87-3.93-4.89-1.44-1.01-3.18-1.63-5.21-1.85-1.61-.08-3.5-.16-5.68-.21-7.22,3.93-9.89,11.33-10.68,24.83v9.69c0,4.17.54,7.35,1.61,9.54,1.07,2.19,2.56,3.82,4.49,4.89,1.92,1.07,4.59,1.87,8.01,2.4.64,0,1.13.19,1.44.57.32.37.4.75.24,1.12-.16.37-.51.66-1.04.88-2.46,0-5.03-.05-7.7-.16-1.28-.11-2.72-.16-4.33-.16h-27.9c-1.71.1-3.27.16-4.65.16-1.6.11-3.26.16-4.97.16-.22,0-.4-.21-.57-.64-.16-.43-.13-.88.08-1.36.21-.48.74-.83,1.6-1.05,2.35-.32,4.22-1.04,5.61-2.16,1.39-1.12,2.46-2.86,3.21-5.21.75-2.35,1.12-5.56,1.12-9.62v-73.27c0-3.85-.37-6.98-1.12-9.38-.75-2.41-1.84-4.11-3.28-5.13-1.44-1.01-3.29-1.74-5.53-2.16-.75-.32-1.26-.64-1.52-.96-.27-.32-.35-.7-.24-1.12.11-.43.37-.7.8-.8,1.6,0,3.05.06,4.33.16,1.5,0,3.05.06,4.65.16h47.3c8.55,0,16.62-.54,24.21-1.61,1.92-.32,3.47-.48,4.65-.48,1.07,0,1.9.35,2.49,1.05s.88,1.79.88,3.28c0,6.09.21,12.05.64,17.88.43,5.83,1.07,12.22,1.92,19.16Z"/><path class="cls-1" d="M353.86,265.29v11.95c0,.58-.62.95-1.13.68l-5.6-2.96-61.31-1.54-3.98,55.06,2.98,35.64-4.72,43.62-.49,4.57-2.49,23.04-3.89,46.61-.02.23-.02-.23-3.89-46.61-2.49-22.99-.48-4.5-4.73-43.74,2.98-35.64-3.98-55.06-61.31,1.54-5.6,2.96c-.51.27-1.13-.1-1.13-.68v-11.95c0-.58.62-.95,1.13-.68l5.61,2.96,62.34,1.57,4.07-6.81c-4.19-11.73-5.78-27.97-5.13-33.97.64-6,6.85-41.06,6.85-41.06l-6.28-24.45-3.53-13.74c6.49-8.41,15.02-8.68,15.6-8.69h.03c.58,0,9.1.27,15.6,8.69l-3.53,13.74-6.28,24.45s6.2,35.06,6.85,41.06c.64,6-.95,22.24-5.13,33.97l4.07,6.81,62.34-1.57,5.61-2.96c.51-.27,1.13.1,1.13.68Z"/><polygon class="cls-1" points="273.42 481.58 273.42 482.05 273.4 481.82 273.42 481.58"/><polygon class="cls-1" points="273.4 481.82 273.38 482.05 273.38 481.58 273.4 481.82"/><path class="cls-1" d="M275.36,407.88c.16,1.51.32,3.01.47,4.49-1.6-.06-3.2-.15-4.8-.27-.16-1.5-.31-3.01-.47-4.52,1.59.12,3.19.22,4.8.29Z"/><path class="cls-1" d="M275.84,407.4c-.17,1.54-.33,3.08-.48,4.62-1.61.14-3.21.24-4.81.31.16-1.51.31-3.03.47-4.56,1.62-.1,3.23-.21,4.82-.37Z"/><path class="cls-1" d="M266.64,407.88c.16,1.51.32,3.01.47,4.49-.1,0-.21,0-.31-.01l-.48-4.5c.11,0,.22.01.33.02Z"/><path class="cls-1" d="M280.09,407.75l-.49,4.57c-.11,0-.23,0-.34.01.16-1.51.31-3.03.47-4.56.12,0,.24-.01.36-.02Z"/><path class="cls-1" d="M253.09,364.81l-.42-3.47c-36.95-8.58-65.44-39.2-70.84-77.27-1.53-.19-3.04-.37-4.55-.55-.82-.1-1.63-.2-2.45-.29-3.25-.39-6.47-.77-9.65-1.14,1.09,10.78,3.77,21.26,8.02,31.29,3.75,8.87,8.61,17.12,14.5,24.66,2.74,3.5,5.7,6.85,8.89,10.03,1.84,1.84,3.73,3.6,5.68,5.29,0,0,0,0,0,0,8.66,7.53,18.39,13.6,29,18.09,7.59,3.21,15.43,5.52,23.46,6.93-.53-4.52-1.07-9.05-1.62-13.57Z"/><path class="cls-1" d="M382.58,263.18c0-.13-.02-.26-.03-.39-.85-11.87-3.64-23.4-8.28-34.38-3.37-7.97-7.63-15.43-12.73-22.32-3.22-4.36-6.78-8.48-10.65-12.36-.76-.76-1.52-1.5-2.29-2.22-9.5-8.96-20.38-16.07-32.39-21.15-9.62-4.08-19.67-6.71-29.99-7.88-1.59-.18-3.18-.32-4.78-.43-2.02-.14-4.04-.22-6.07-.25-.55,0-1.1-.01-1.65-.01-.27,0-.55,0-.82,0-2.31.01-4.61.1-6.89.26-1.33.09-2.65.21-3.97.35-10.61,1.12-20.92,3.79-30.8,7.97-11.87,5.02-22.63,12.01-32.03,20.81-.9.84-1.78,1.69-2.65,2.57-3.8,3.8-7.29,7.84-10.46,12.1-5.19,6.96-9.51,14.52-12.92,22.59-4.65,10.98-7.42,22.5-8.28,34.37h0c0,.14-.02.26-.03.4-.19,2.56-.27,5.13-.27,7.71s.09,5.16.27,7.71c.08,1.16.18,2.32.29,3.48,1.09,10.78,3.77,21.26,8.02,31.29,3.75,8.87,8.61,17.12,14.5,24.66,2.74,3.5,5.7,6.85,8.89,10.03,1.84,1.84,3.73,3.6,5.68,5.29,0,0,0,0,0,0,8.66,7.53,18.39,13.6,29,18.09,7.59,3.21,15.43,5.52,23.46,6.93-.53-4.52-1.07-9.05-1.62-13.57l-.42-3.47c-36.95-8.58-65.44-39.2-70.84-77.27-.03-.23-.07-.47-.1-.7,0,0,0-.02,0-.03-.04-.29-.08-.58-.11-.87-.48-3.79-.72-7.65-.72-11.57s.24-7.78.72-11.57c5.22-42.02,38.53-75.33,80.55-80.55,1.32-.17,2.65-.3,3.99-.41,2.23-.18,4.48-.28,6.76-.3.27,0,.55,0,.82,0,.55,0,1.1,0,1.65.01,2.27.04,4.52.16,6.74.36,1.06.1,2.13.21,3.18.34,42.02,5.23,75.33,38.53,80.56,80.55.47,3.79.71,7.66.71,11.57s-.24,7.78-.71,11.57c-4.8,38.55-33.22,69.76-70.33,78.69l-.44,3.64c-.55,4.47-1.08,8.96-1.61,13.44,7.78-1.42,15.38-3.69,22.73-6.8,10.45-4.43,20.04-10.38,28.62-17.76,2.08-1.79,4.1-3.67,6.07-5.63,3.1-3.11,6-6.37,8.69-9.78,5.98-7.6,10.9-15.93,14.69-24.9,4.22-9.97,6.9-20.41,8-31.13.13-1.21.23-2.43.31-3.64.19-2.56.27-5.13.27-7.71s-.09-5.16-.27-7.71Z"/><path class="cls-1" d="M253.09,364.81l-.42-3.47c-36.95-8.58-65.44-39.2-70.84-77.27-1.53-.19-3.04-.37-4.55-.55-.82-.1-1.63-.2-2.45-.29-3.25-.39-6.47-.77-9.65-1.14,1.09,10.78,3.77,21.26,8.02,31.29,3.75,8.87,8.61,17.12,14.5,24.66,2.74,3.5,5.7,6.85,8.89,10.03,1.84,1.84,3.73,3.6,5.68,5.29,0,0,0,0,0,0,8.66,7.53,18.39,13.6,29,18.09,7.59,3.21,15.43,5.52,23.46,6.93-.53-4.52-1.07-9.05-1.62-13.57Z"/><path class="cls-1" d="M345.16,193.94c3.02,2.35,5.92,4.9,8.69,7.68,2.77,2.77,5.33,5.68,7.68,8.69,3.1-5.1,6.14-9.95,9.1-14.56,9.09-14.16,17.52-26.08,25.07-35.98-9.89,7.55-21.82,15.98-35.98,25.07-4.61,2.96-9.46,6-14.56,9.1Z"/><path class="cls-1" d="M395.69,383.63c-5.74-4.38-12.16-9.06-19.31-13.99-1.23-.85-2.49-1.71-3.77-2.58-4.07-2.76-8.37-5.6-12.89-8.5-3.53-2.27-7.21-4.58-11.03-6.94-1.16-.71-2.34-1.43-3.53-2.16,3.02-2.35,5.92-4.9,8.69-7.68,2.77-2.77,5.33-5.67,7.68-8.69.64,1.05,1.27,2.08,1.91,3.11,2.44,3.97,4.85,7.78,7.19,11.44,2.86,4.45,5.65,8.68,8.37,12.7.87,1.29,1.74,2.57,2.61,3.82,4.97,7.21,9.68,13.68,14.09,19.46Z"/><path class="cls-1" d="M370.79,282.01c.95-3.79,1.43-7.65,1.43-11.57s-.49-7.78-1.43-11.57c11.54,1.41,22.64,2.69,33.3,3.86,32.72,3.58,61.36,6.06,85.9,7.71-24.55,1.66-53.19,4.13-85.9,7.71-10.65,1.17-21.75,2.45-33.3,3.86Z"/><path class="cls-1" d="M201.22,193.94c-3.02,2.35-5.92,4.9-8.69,7.68-2.77,2.77-5.33,5.68-7.68,8.69-3.1-5.1-6.14-9.95-9.1-14.56-9.09-14.16-17.52-26.08-25.07-35.98,9.89,7.55,21.82,15.98,35.98,25.07,4.61,2.96,9.46,6,14.56,9.1Z"/><path class="cls-1" d="M150.69,383.63c5.74-4.38,12.16-9.06,19.31-13.99,1.23-.85,2.49-1.71,3.77-2.58,4.07-2.76,8.37-5.6,12.89-8.5,3.53-2.27,7.21-4.58,11.03-6.94,1.16-.71,2.34-1.43,3.53-2.16-3.02-2.35-5.92-4.9-8.69-7.68-2.77-2.77-5.33-5.67-7.68-8.69-.64,1.05-1.27,2.08-1.91,3.11-2.44,3.97-4.85,7.78-7.19,11.44-2.86,4.45-5.65,8.68-8.37,12.7-.87,1.29-1.74,2.57-2.61,3.82-4.97,7.21-9.68,13.68-14.09,19.46Z"/><path class="cls-1" d="M175.59,282.01c-.95-3.79-1.43-7.65-1.43-11.57s.49-7.78,1.43-11.57c-11.54,1.41-22.64,2.69-33.3,3.86-32.72,3.58-61.36,6.06-85.9,7.71,24.55,1.66,53.19,4.13,85.9,7.71,10.65,1.17,21.75,2.45,33.3,3.86Z"/><path class="cls-1" d="M300.88,104.26v.46c-20.74,1.09-26.35,6.71-27.45,27.45h-.46c-1.1-20.74-6.72-26.36-27.46-27.46v-.46c20.74-1.1,26.36-6.71,27.45-27.45h.46c1.11,20.74,6.72,26.35,27.46,27.46Z"/><path class="cls-1" d="M415,266.35c-.64-25.69-8.28-51.56-23.83-74.59-3.23-4.97-6.79-9.66-10.63-14.05-1.32-1.51-2.67-2.98-4.05-4.42-25.55-26.62-61.94-41.37-99.02-42.34,36.5,1.09,70.65,18.35,95.32,44.91.75.81,1.49,1.62,2.22,2.44.97,1.08,1.92,2.18,2.84,3.27,21.65,25.64,31.93,55.2,32.8,84.32.14,4.44.05,8.87-.26,13.28-2.09,30.75-14.53,60.25-34.99,83.26-2.05,2.31-4.18,4.55-6.39,6.71-20.21,19.85-46.97,33.78-78.47,37.74-1.6.2-3.21.38-4.83.53-1.6.15-3.2.27-4.82.37-1.54.09-3.09.16-4.65.2-1.02.03-2.04.05-3.07.06-.48,0-.96-.01-1.43-.02-1.32-.02-2.63-.07-3.93-.13-1.61-.07-3.21-.17-4.8-.29-1.62-.12-3.23-.27-4.83-.45-32.49-3.57-59.92-17.56-80.54-37.68-2.07-2.02-4.07-4.1-6-6.24-20.97-23.22-33.62-53.2-35.65-84.4-.28-4.2-.36-8.42-.24-12.65.81-29.81,11.46-60.05,33.91-85.95,1.59-1.83,3.23-3.63,4.93-5.42.47-.49.94-.98,1.41-1.46,24.43-25.5,58.59-41.73,94.13-42.43-35.7.64-71.46,14.29-97.24,39.31-.67.66-1.33,1.33-1.98,2.01-1.33,1.37-2.63,2.76-3.89,4.18-22.3,24.99-34.62,57.33-35.61,90.2-.12,3.91-.08,7.83.13,11.74.82,15.81,4.29,31.56,10.57,46.49,6.47,15.97,15.71,30.13,26.94,42.17,1.6,1.71,3.23,3.37,4.9,4.99,22.95,22.24,53.07,36.24,84.71,39.67,1.61.18,3.22.32,4.83.44,1.6.12,3.2.21,4.8.27,1.4.06,2.79.09,4.19.11,1.01,0,2.03,0,3.05,0,1.63-.02,3.27-.07,4.91-.15,1.61-.07,3.21-.18,4.81-.31,1.61-.13,3.22-.29,4.82-.48,12.64-1.48,25.22-4.73,37.41-9.89,17.52-7.17,32.72-17.46,45.32-29.94,1.8-1.78,3.54-3.61,5.23-5.47,21.89-24.17,34.74-55.34,36.74-87.53.25-4.11.33-8.24.23-12.37Z"/><path class="cls-2" d="M536.71,261.91c-1.6.11-3.1.16-4.49.16-.11.1-.27-.11-.48-.64-.22-.53-.22-.99,0-1.36.21-.37.59-.72,1.12-1.04.96.11,1.84-.08,2.65-.56.8-.48,1.52-1.15,2.16-2,1.18-1.18,2.35-2.75,3.53-4.73,1.18-1.98,2.46-4.78,3.85-8.42l30.46-74.4c.53-1.39.75-2.97.64-4.73-.11-1.76-.48-3.34-1.12-4.73l6.09,3.85-32.71,80.01c-1.71,3.74-2.33,6.73-1.84,8.98.48,2.24,1.66,3.88,3.53,4.89,1.87,1.02,4.35,1.63,7.46,1.84,1.17.32,1.9.67,2.16,1.04.27.38.32.8.16,1.28-.16.48-.46.72-.88.72-2.78,0-5.56-.06-8.34-.16-1.28-.11-2.78-.16-4.49-.16h-7.05c-.86.11-1.66.16-2.4.16ZM551.7,232.89c.69-1.6,1.52-2.83,2.49-3.69-.22.86-.22,1.52,0,2,.21.48.75.72,1.6.72,8.02-.11,15.44-.75,22.29-1.92,6.84-1.18,13.73-2.67,20.68-4.49.85-.32,1.47-.83,1.84-1.52.37-.69.45-1.36.24-2,.21,0,.61.46,1.2,1.36.59.91,1.12,1.98,1.6,3.21.48,1.23.67,2.27.56,3.13-.54-.75-1.18-1.18-1.92-1.28-.75-.11-1.55-.05-2.41.16-5.24,1.5-11.06,2.83-17.48,4.01-4.49.64-9.03,1.2-13.63,1.68-4.6.48-9.25.78-13.95.88-1.07,0-1.92.24-2.57.72-.64.48-1.18,1.1-1.6,1.84,0-1.6.35-3.21,1.04-4.81ZM607.9,261.91c-2.57.11-5.19.16-7.86.16-.43,0-.72-.24-.88-.72-.16-.48-.08-.91.24-1.28.32-.37.96-.72,1.92-1.04,2.89-.21,5.18-.83,6.89-1.84,1.71-1.01,2.78-2.65,3.21-4.89.43-2.24-.16-5.24-1.76-8.98l-36.56-88.66c-.32-.64-.67-1.15-1.04-1.52-.38-.37-.78-.67-1.2-.88-.22-.21-.38-.32-.48-.32s-.32-.11-.64-.32c-.54.11-.88-.05-1.04-.48-.16-.43-.14-.8.08-1.12.21-.32.48-.48.8-.48h20.36c1.82,0,3.18.11,4.09.32.91.21,1.68.67,2.32,1.36.64.7,1.18,1.79,1.6,3.29l36.88,88.83c1.39,3.53,2.67,6.31,3.85,8.34,1.18,2.03,2.24,3.58,3.21,4.65.75.96,1.58,1.68,2.49,2.17.91.48,1.79.67,2.65.56.43.32.75.64.96.96.21.32.24.75.08,1.28-.16.53-.35.8-.56.8-1.5,0-2.99-.06-4.49-.16-.64-.11-1.44-.16-2.4-.16h-28.54c-1.6,0-2.99.05-4.17.16Z"/><path class="cls-2" d="M661,213.81c.43,0,.8.24,1.12.72s.43,1.2.32,2.16c-.54,9.73.24,17.85,2.32,24.37,2.08,6.52,5.45,11.38,10.1,14.59,4.65,3.21,10.61,4.81,17.88,4.81,3.74,0,7.24-.53,10.5-1.6,3.26-1.07,5.98-2.99,8.18-5.77,2.19-2.78,3.29-6.47,3.29-11.06s-1.15-8.52-3.45-12.11c-2.3-3.58-5.32-6.76-9.06-9.54-3.74-2.78-8.39-5.72-13.95-8.82-7.16-4.27-13.01-8.12-17.56-11.54-4.54-3.42-8.12-7.08-10.74-10.98-2.62-3.9-3.93-8.15-3.93-12.75-.11-5.13,1.71-9.97,5.45-14.51,3.74-4.54,8.98-8.15,15.71-10.82,6.73-2.67,14.59-4.01,23.57-4.01,5.66,0,11.36.83,17.08,2.48,5.72,1.66,10.31,3.93,13.79,6.81,3.47,2.89,4.73,6.2,3.77,9.94l-7.7,25.33c-.64.64-1.26.72-1.84.24-.59-.48-.83-1.31-.72-2.49.75-8.12.13-15.04-1.84-20.76-1.98-5.72-5.19-10.07-9.62-13.07-4.44-2.99-9.81-4.49-16.11-4.49-6.63,0-11.46,1.23-14.51,3.69-3.05,2.46-4.57,5.99-4.57,10.58,0,3.42.96,6.57,2.89,9.46,1.92,2.89,4.57,5.48,7.94,7.78,3.37,2.3,7.94,5.27,13.71,8.9l1.44.64c7.16,4.17,13.01,7.94,17.56,11.3,4.54,3.37,8.34,7.32,11.38,11.86,3.05,4.54,4.57,9.81,4.57,15.79,0,6.63-1.98,12.45-5.93,17.48-3.96,5.03-9.51,8.95-16.67,11.78-7.16,2.83-15.45,4.25-24.85,4.25-7.27,0-14.08-1.07-20.44-3.21-6.36-2.14-11.28-4.92-14.75-8.34-3.47-3.42-4.78-6.89-3.93-10.42l8.5-28.06c.32-.43.69-.64,1.12-.64Z"/><path class="cls-2" d="M898.7,207.72c.11-.43.59-.75,1.44-.96h5.45c5.77-.64,10.5-2.14,14.19-4.49,3.69-2.35,6.36-5.5,8.02-9.46,1.66-3.95,2.48-8.87,2.48-14.75s-.99-10.77-2.97-14.67c-1.98-3.9-4.84-6.79-8.58-8.66-3.74-1.87-8.28-2.86-13.63-2.97h-6.41c-2.03-.11-3.42.27-4.17,1.12-.75.86-1.12,2.51-1.12,4.97v84.66c0,4.06.43,7.3,1.28,9.7.85,2.4,2.03,4.09,3.53,5.05,1.5.96,3.37,1.55,5.61,1.76.75.32,1.23.67,1.5,1.04.27.38.34.8.18,1.28-.16.48-.4.72-.72.72-2.03,0-4.12-.06-6.25-.16-.96-.11-2.03-.16-3.21-.16h-27.58c-1.39,0-2.57.05-3.53.16-2.03.11-4.06.16-6.09.16-.32,0-.56-.24-.72-.72-.16-.48-.14-.91.08-1.28.21-.37.75-.72,1.6-1.04,2.24-.21,4.11-.8,5.61-1.76,1.5-.96,2.7-2.65,3.61-5.05.91-2.4,1.36-5.64,1.36-9.7v-73.75c0-4.06-.46-7.3-1.36-9.7-.91-2.4-2.11-4.09-3.61-5.05-1.5-.96-3.42-1.5-5.77-1.6-.86-.32-1.39-.67-1.6-1.04-.22-.37-.22-.8,0-1.28.21-.48.48-.72.8-.72,2.78.11,5.99.21,9.62.32,5.45-.21,10.85-.37,16.19-.48,9.83-.43,18.28-.64,25.33-.64,16.25,0,28.27,2.46,36.08,7.38,7.8,4.92,11.7,12.51,11.7,22.77,0,5.99-1.55,11.12-4.65,15.39-3.1,4.28-7.62,7.7-13.55,10.26-5.93,2.57-13.12,4.12-21.56,4.65l-1.44,1.44-16.51-1.92c-.54-.11-.75-.37-.64-.8ZM918.51,209.24c4.33.16,8.9.08,13.71-.24.75,0,1.34.19,1.76.56.43.38.75.94.96,1.68,4.06,13.36,12.58,38.79,18.89,48.79,6.31,10,13.04,17.29,20.2,21.89l1.44.64c.21.64.02,1.26-.56,1.84-.59.59-1.52.83-2.81.72-9.3-2.78-17.64-6.81-25.01-12.11-7.38-5.29-14.19-12.13-20.44-20.52-6.25-8.39-15.39-32.32-20.73-44.3,4.06.54,8.26.88,12.59,1.04Z"/><path class="cls-2" d="M1094.1,261.91c-2.03.11-4.06.16-6.09.16-.32,0-.59-.24-.8-.72-.22-.48-.19-.91.08-1.28.27-.37.83-.72,1.68-1.04,2.24-.21,4.11-.8,5.61-1.76,1.5-.96,2.7-2.65,3.61-5.05.91-2.4,1.36-5.64,1.36-9.7v-73.75c0-4.06-.46-7.3-1.36-9.7-.91-2.4-2.11-4.09-3.61-5.05-1.5-.96-3.37-1.55-5.61-1.76-.86-.32-1.42-.67-1.68-1.04-.27-.37-.3-.8-.08-1.28.21-.48.48-.72.8-.72,2.03,0,4.06.06,6.09.16.96.11,2.14.16,3.53.16h27.58c1.18-.11,2.35-.16,3.53-.16,2.35-.11,4.59-.16,6.73-.16.43,0,.69.24.8.72.11.48.02.91-.24,1.28-.27.38-.83.72-1.68,1.04-2.46.21-4.52.8-6.17,1.76-1.66.96-2.91,2.65-3.77,5.05-.86,2.4-1.28,5.64-1.28,9.7v83.85c0,2.35.37,3.93,1.12,4.73.75.8,1.98,1.2,3.69,1.2,8.87,0,16.17-.99,21.89-2.97,5.72-1.98,10.18-4.94,13.39-8.9,2.57-3.1,4.67-7.03,6.33-11.78,1.66-4.75,3.02-10.93,4.09-18.52.32-1.28.88-2.17,1.68-2.65.8-.48,1.58-.61,2.32-.4.75.22,1.12.48,1.12.8-1.18,7.91-2.03,16.06-2.57,24.45-.54,8.39-.64,15.42-.32,21.08,0,1.6-.19,2.7-.56,3.29-.38.59-1.15.88-2.32.88s-2.51-.11-4.01-.32c-9.19-1.18-19.3-1.76-30.3-1.76h-41.05c-1.39,0-2.57.05-3.53.16Z"/><path class="cls-2" d="M626.33,310.29c-.43-5.82-.64-11.78-.64-17.88,0-1.5-.3-2.59-.88-3.29-.59-.69-1.42-1.04-2.48-1.04-1.18,0-2.73.16-4.65.48-7.59,1.07-15.66,1.6-24.21,1.6h-47.3c-1.6-.11-3.15-.16-4.65-.16-1.28-.11-2.73-.16-4.33-.16-.43.11-.7.38-.8.8-.11.43-.03.8.24,1.12.27.32.77.64,1.52.96,2.24.43,4.09,1.15,5.53,2.17,1.44,1.02,2.54,2.73,3.29,5.13.75,2.4,1.12,5.53,1.12,9.38v73.27c0,4.06-.38,7.27-1.12,9.62-.75,2.35-1.82,4.09-3.21,5.21-1.39,1.12-3.26,1.84-5.61,2.16-.86.22-1.39.56-1.6,1.04-.22.48-.24.94-.08,1.36.16.43.35.64.56.64,1.71,0,3.37-.06,4.97-.16,1.39,0,2.94-.05,4.65-.16h27.9c1.6,0,3.05.05,4.33.16,2.67.11,5.24.16,7.7.16.53-.22.88-.51,1.04-.88.16-.37.08-.75-.24-1.12-.32-.37-.8-.56-1.44-.56-3.42-.53-6.09-1.34-8.02-2.4-1.92-1.07-3.42-2.7-4.49-4.89-1.07-2.19-1.6-5.37-1.6-9.54v-27.64c-.23-.49-.34-1.09-.27-1.81.32-3.2.77-6.38,1.3-9.54-.08-.12-.16-.24-.23-.38-.54-1.01-.8-2.06-.8-3.13v-39.44c0-2.89.4-4.94,1.2-6.17.8-1.23,2.16-1.84,4.09-1.84,5.88,0,10.9.08,15.07.24,4.17.16,7.43.51,9.78,1.04,2.35.54,4.22,1.28,5.61,2.24,2.46,1.92,4.86,4.62,7.21,8.1,2.35,3.48,4.54,8.04,6.57,13.71.96,2.78,1.82,5.77,2.57,8.98.21,1.39.8,2.16,1.76,2.32.96.16,1.82-.02,2.57-.56-.86-6.95-1.5-13.33-1.92-19.16Z"/><path class="cls-2" d="M662.52,397.84c-8.77-4.86-15.58-11.6-20.44-20.2-4.87-8.6-7.3-18.36-7.3-29.26s2.83-21.49,8.5-30.78c5.66-9.3,13.39-16.62,23.17-21.97,9.78-5.34,20.71-8.02,32.79-8.02,11.33,0,21.48,2.43,30.46,7.3,8.98,4.87,15.95,11.6,20.92,20.2,4.97,8.61,7.46,18.25,7.46,28.94,0,11.44-2.86,21.81-8.58,31.1-5.72,9.3-13.55,16.62-23.49,21.97-9.94,5.34-21.16,8.02-33.67,8.02-11.12,0-21.06-2.43-29.82-7.3ZM721.76,395.11c4.43-2.62,7.78-6.36,10.02-11.22,2.24-4.86,3.37-10.82,3.37-17.88,0-10.26-2.3-21.06-6.89-32.39-4.6-11.33-10.69-20.82-18.28-28.46-7.59-7.64-15.66-11.46-24.21-11.46-5.77,0-10.77,1.28-14.99,3.85-4.22,2.57-7.54,6.28-9.94,11.14-2.41,4.87-3.61,10.5-3.61,16.92,0,10.37,2.3,21.3,6.89,32.79,4.59,11.49,10.69,21.14,18.28,28.94,7.59,7.8,15.55,11.7,23.89,11.7,5.88,0,11.04-1.31,15.47-3.93Z"/><path class="cls-2" d="M803.31,348.37c.11-.43.59-.75,1.44-.96h5.45c5.77-.64,10.5-2.14,14.19-4.49,3.69-2.35,6.36-5.5,8.02-9.46,1.66-3.95,2.48-8.87,2.48-14.75s-.99-10.77-2.97-14.67c-1.98-3.9-4.84-6.79-8.58-8.66-3.74-1.87-8.28-2.86-13.63-2.97h-6.41c-2.03-.11-3.42.27-4.17,1.12-.75.86-1.12,2.51-1.12,4.97v84.66c0,4.06.43,7.3,1.28,9.7.85,2.4,2.03,4.09,3.53,5.05,1.5.96,3.37,1.55,5.61,1.76.75.32,1.26.67,1.52,1.04.27.38.32.8.16,1.28-.16.48-.4.72-.72.72-2.03,0-4.12-.06-6.25-.16-.96-.11-2.03-.16-3.21-.16h-27.58c-1.39,0-2.57.05-3.53.16-2.03.11-4.06.16-6.09.16-.32,0-.56-.24-.72-.72-.16-.48-.14-.91.08-1.28.21-.37.75-.72,1.6-1.04,2.24-.21,4.11-.8,5.61-1.76,1.5-.96,2.7-2.65,3.61-5.05.91-2.4,1.36-5.64,1.36-9.7v-73.75c0-4.06-.46-7.3-1.36-9.7-.91-2.4-2.11-4.09-3.61-5.05-1.5-.96-3.42-1.5-5.77-1.6-.86-.32-1.39-.67-1.6-1.04-.22-.37-.22-.8,0-1.28.21-.48.48-.72.8-.72,2.78.11,5.99.21,9.62.32,5.45-.21,10.85-.37,16.19-.48,9.83-.43,18.28-.64,25.33-.64,16.25,0,28.27,2.46,36.08,7.38,7.8,4.92,11.7,12.51,11.7,22.77,0,5.99-1.55,11.12-4.65,15.39-3.1,4.28-7.62,7.7-13.55,10.26-5.93,2.57-13.12,4.12-21.56,4.65l-1.44,1.44-16.51-1.92c-.54-.11-.75-.37-.64-.8ZM823.11,349.9c4.33.16,8.9.08,13.71-.24.75,0,1.34.19,1.76.56.43.38.75.94.96,1.68,4.06,13.36,9.24,25.04,15.55,35.03,6.31,10,13.04,17.29,20.2,21.89l1.44.64c.21.64.02,1.26-.56,1.84-.59.59-1.52.83-2.81.72-9.3-2.78-17.64-6.81-25.01-12.11-7.38-5.29-14.19-12.13-20.44-20.52-6.25-8.39-12.05-18.57-17.4-30.54,4.06.54,8.26.88,12.59,1.04Z"/><path class="cls-2" d="M900.49,398.08c-8.55-4.7-15.37-11.33-20.44-19.88-5.08-8.55-7.62-18.44-7.62-29.66s2.75-21.49,8.26-30.78c5.5-9.3,12.93-16.62,22.29-21.97,9.35-5.34,19.53-8.02,30.54-8.02,8.02,0,15.31,1.1,21.89,3.29,6.57,2.19,11.6,4.97,15.07,8.34,3.47,3.37,4.62,6.71,3.45,10.02l-12.29,33.77c-.32.43-.86.64-1.6.64s-1.34-.27-1.76-.8c-.43-.53-.59-1.34-.48-2.4,2.24-5.45,3.02-10.9,2.32-16.35-.7-5.45-2.48-10.53-5.37-15.23-3.1-5.77-7.24-10.26-12.43-13.47-5.19-3.21-11.68-2.02-17.45-2.02-6.09,0-11.44,1.2-16.03,3.61-4.6,2.4-8.15,6.01-10.66,10.82-2.51,4.81-3.77,10.85-3.77,18.12,0,12.4,2.43,24.13,7.3,35.19,4.86,11.06,11.06,19.91,18.6,26.54,7.54,6.63,14.78,9.94,21.73,9.94,4.06,0,7.56-.45,10.5-1.36,2.94-.91,5.34-2.24,7.22-4.01,1.87-1.76,3.02-3.87,3.45-6.33.21-2.67-.08-5.8-.88-9.38-.8-3.58-1.9-7.99-3.29-13.23-1.07-1.71-2.57-3.26-4.49-4.65-1.92-1.39-4.46-2.57-7.62-3.53-3.15-.96-7.24-1.76-12.27-2.41-.96-.21-1.6-.67-1.92-1.36-.32-.69-.35-1.34-.08-1.92.27-.59.67-1.04,1.2-1.36,6.41.64,13.57.99,21.48,1.04,7.91.05,14.86-.29,20.84-1.04,1.5-.1,2.54.08,3.13.56.59.48.88,1.2.88,2.16,0,.64-.06,1.34-.16,2.08-.32,1.28-.64,3.21-.96,5.77-.43,3.21-.67,6.31-.72,9.3-.05,2.99-.08,6.84-.08,11.54,0,.96-.11,1.74-.32,2.33-.22.59-.64,1.31-1.28,2.16-6.2,7.16-13.39,12.45-21.57,15.87-8.18,3.42-17.08,5.13-26.7,5.13s-19.35-2.35-27.9-7.06Z"/><path class="cls-2" d="M1080.03,360.16c-.75-.27-1.5-.21-2.24.16-.75.38-1.23,1.15-1.44,2.33-1.18,5.77-2.38,10.48-3.61,14.11-1.23,3.64-2.49,6.57-3.77,8.82-1.28,2.24-2.83,4.12-4.65,5.61-3.1,2.78-7.51,4.81-13.23,6.09-5.72,1.28-13.55,1.92-23.49,1.92-1.6,0-2.86-.19-3.77-.56-.91-.37-1.55-1.09-1.92-2.16-.38-1.07-.56-2.73-.56-4.97v-42.33c0-1.18.27-2.24.8-3.21.53-.96,1.39-1.44,2.57-1.44,1.35,0,2.63.01,3.83.04v-3.26c-1.19.01-2.46.02-3.83.02-1.18,0-2.03-.43-2.57-1.28-.54-.85-.8-1.92-.8-3.21v-37.52c0-1.82.37-3.26,1.12-4.33.75-1.07,1.92-1.6,3.53-1.6,6.41,0,11.78.19,16.11.56,4.33.38,7.99,1.1,10.98,2.16,2.99,1.07,5.45,2.67,7.38,4.81,1.6,1.5,2.97,3.37,4.09,5.61,1.12,2.24,2.32,5.21,3.61,8.9,1.28,3.69,2.67,8.69,4.17,14.99.32.96.88,1.58,1.68,1.84.8.27,1.63.24,2.49-.08-2.14-15.93-3.21-29.29-3.21-40.08-.11-1.5-.43-2.54-.96-3.13-.54-.59-1.34-.88-2.4-.88-.86,0-2.62.22-5.29.64-7.48.96-14.75,1.44-21.81,1.44h-46.98c-1.39,0-2.57-.05-3.53-.16-2.03-.11-4.06-.16-6.09-.16-.32,0-.59.24-.8.72-.22.48-.19.91.08,1.28.27.38.83.72,1.68,1.04,2.24.21,4.11.8,5.61,1.76,1.5.96,2.7,2.65,3.61,5.05.91,2.4,1.36,5.64,1.36,9.7v73.75c0,4.06-.46,7.3-1.36,9.7-.91,2.4-2.11,4.09-3.61,5.05-1.5.96-3.37,1.55-5.61,1.76-.86.32-1.42.67-1.68,1.04-.27.38-.3.8-.08,1.28.21.48.48.72.8.72,2.03,0,4.06-.06,6.09-.16.96-.11,2.14-.16,3.53-.16h48.74c8.87,0,17.32.53,25.33,1.6,1.82.32,3.31.48,4.49.48,1.07.1,1.87-.22,2.41-.96.53-.75.85-1.87.96-3.37,0-5.66.24-11.81.72-18.44.48-6.63,1.26-13.57,2.32-20.84.21-.21-.06-.45-.8-.72Z"/><polygon class="cls-2" points="581.12 167.93 580.62 169.15 546.57 252.29 542.44 252.29 581.12 159.45 581.12 167.93"/><path class="cls-2" d="M599.8,219.41s1.63,4.41-2.65,5.34c-4.28.93-31.97,6.03-42.97,6.46l-2.25,2.66,16.66-.93,20-3.09,16.93-4.91-5.72-5.53Z"/><path class="cls-2" d="M969.07,261.41c-1.6.11-3.1.16-4.49.16-.11.1-.27-.11-.48-.64-.22-.53-.22-.99,0-1.36.21-.37.59-.72,1.12-1.04.96.11,1.84-.08,2.65-.56.8-.48,1.52-1.15,2.16-2,1.18-1.18,2.35-2.75,3.53-4.73,1.18-1.98,2.46-4.78,3.85-8.42l30.46-74.4c.53-1.39.75-2.97.64-4.73-.11-1.76-.48-3.34-1.12-4.73l6.09,3.85-32.71,80.01c-1.71,3.74-2.33,6.73-1.84,8.98.48,2.24,1.66,3.88,3.53,4.89,1.87,1.02,4.35,1.63,7.46,1.84,1.17.32,1.9.67,2.16,1.04.27.38.32.8.16,1.28-.16.48-.46.72-.88.72-2.78,0-5.56-.06-8.34-.16-1.28-.11-2.78-.16-4.49-.16h-7.05c-.86.11-1.66.16-2.4.16ZM984.06,232.39c.69-1.6,1.52-2.83,2.49-3.69-.22.86-.22,1.52,0,2,.21.48.75.72,1.6.72,8.02-.11,15.44-.75,22.29-1.92,6.84-1.18,13.73-2.67,20.68-4.49.85-.32,1.47-.83,1.84-1.52.37-.69.45-1.36.24-2,.21,0,.61.46,1.2,1.36.59.91,1.12,1.98,1.6,3.21.48,1.23.67,2.27.56,3.13-.54-.75-1.18-1.18-1.92-1.28-.75-.11-1.55-.05-2.41.16-5.24,1.5-11.06,2.83-17.48,4.01-4.49.64-9.03,1.2-13.63,1.68-4.6.48-9.25.78-13.95.88-1.07,0-1.92.24-2.57.72-.64.48-1.18,1.1-1.6,1.84,0-1.6.35-3.21,1.04-4.81ZM1040.25,261.41c-2.57.11-5.19.16-7.86.16-.43,0-.72-.24-.88-.72-.16-.48-.08-.91.24-1.28.32-.37.96-.72,1.92-1.04,2.89-.21,5.18-.83,6.89-1.84,1.71-1.01,2.78-2.65,3.21-4.89.43-2.24-.16-5.24-1.76-8.98l-36.56-88.66c-.32-.64-.67-1.15-1.04-1.52-.38-.37-.78-.67-1.2-.88-.22-.21-.38-.32-.48-.32s-.32-.11-.64-.32c-.54.11-.88-.05-1.04-.48-.16-.43-.14-.8.08-1.12.21-.32.48-.48.8-.48h20.36c1.82,0,3.18.11,4.09.32.91.21,1.68.67,2.32,1.36.64.7,1.18,1.79,1.6,3.29l36.88,88.83c1.39,3.53,2.67,6.31,3.85,8.34,1.18,2.03,2.24,3.58,3.21,4.65.75.96,1.58,1.68,2.49,2.17.91.48,1.79.67,2.65.56.43.32.75.64.96.96.21.32.24.75.08,1.28-.16.53-.35.8-.56.8-1.5,0-2.99-.06-4.49-.16-.64-.11-1.44-.16-2.4-.16h-28.54c-1.6,0-2.99.05-4.17.16Z"/><polygon class="cls-2" points="1013.09 167.44 1012.59 168.66 978.53 251.79 974.41 251.79 1013.09 158.96 1013.09 167.44"/><path class="cls-2" d="M1031.77,218.91s1.63,4.41-2.65,5.34c-4.28.93-31.97,6.03-42.97,6.46l-2.25,2.66,16.66-.93,20-3.09,16.93-4.91-5.72-5.53Z"/><path class="cls-2" d="M825.71,259.02c-3.1-.21-5.72-.8-7.86-1.76-2.14-.96-3.77-2.65-4.89-5.05s-1.68-5.64-1.68-9.7v-84.18c0-1.6.27-2.97.8-4.09.53-1.12,1.34-1.68,2.4-1.68,3.95,0,7.24.11,9.86.32.61.05,1.16.11,1.66.17.09-1.29.24-2.58.45-3.84-4.64.2-9.69.3-15.18.3h-23.73c-5.88,0-11.27-.12-16.19-.34-.08,1.35-.12,2.71-.14,4.07.79-.14,1.74-.26,2.86-.36,2.46-.21,5.77-.32,9.94-.32,1.07,0,1.92.56,2.57,1.68s.96,2.49.96,4.09v84.18c0,4.06-.62,7.3-1.84,9.7-1.23,2.4-2.89,4.09-4.97,5.05-2.08.96-4.68,1.55-7.78,1.76-1.18.32-1.95.67-2.32,1.04-.38.38-.46.8-.24,1.28.21.48.53.72.96.72,2.89,0,5.77-.06,8.66-.16,1.39-.11,2.99-.16,4.81-.16h29.18c1.71,0,3.26.05,4.65.16,2.89.11,5.72.16,8.5.16.43,0,.75-.24.96-.72.21-.48.13-.91-.24-1.28-.38-.37-1.1-.72-2.16-1.04Z"/><path class="cls-2" d="M748.98,154.45c0-1.9,1.54-3.44,3.44-3.44h36.07v.33c-29.6,1.57-37.61,9.58-39.18,39.18h-.33v-36.07Z"/><path class="cls-2" d="M771.19,149.17c-1.03.09-15.8-.59-17.22-.72-1.43-.12-4.88.18-4.93,5.39-.06,5.21,20.38-2.17,20.38-2.17l4.16-1.86-2.38-.65Z"/><path class="cls-2" d="M847.99,154.57c0-1.9-1.54-3.44-3.44-3.44h-36.07s0,.33,0,.33c29.6,1.57,37.61,9.58,39.18,39.18h.33s0-36.07,0-36.07Z"/><path class="cls-2" d="M825.77,149.29c1.03.09,15.8-.59,17.22-.72s4.88.18,4.93,5.39c.06,5.21-20.38-2.17-20.38-2.17l-4.16-1.86,2.38-.65Z"/><path class="cls-2" d="M1019.64,344.56h29.74v.25c-22.28,1.18-28.31,7.21-29.49,29.49h-.25v-29.74Z"/><path class="cls-2" d="M1019.64,344.56v-29.74h.25c1.18,22.28,7.21,28.31,29.49,29.49v.25h-29.74Z"/><path class="cls-2" d="M1163.58,341.44v.5c-22.28,1.17-28.31,7.21-29.49,29.49h-.5c-1.18-22.28-7.21-28.31-29.5-29.5v-.5c22.28-1.18,28.31-7.21,29.49-29.49h.5c1.19,22.28,7.21,28.31,29.5,29.5Z"/><path class="cls-2" d="M628.38,329.92c-.75.54-1.6.72-2.56.56-.96-.16-1.55-.93-1.76-2.32-.75-3.21-1.61-6.2-2.57-8.98-2.03-5.66-4.22-10.23-6.57-13.71-2.35-3.47-4.76-6.17-7.21-8.1-1.39-.96-3.26-1.71-5.61-2.24-2.35-.54-5.61-.88-9.78-1.05-4.17-.16-9.19-.24-15.07-.24-1.92,0-3.29.62-4.09,1.85-.8,1.23-1.21,3.28-1.21,6.17v14.34c1.12,18.59,5.85,25.53,21.22,27.84.15-.08.29-.16.43-.25,1.28-.8,2.46-2.19,3.53-4.17s2.25-5.05,3.53-9.22c.11-1.28.64-1.98,1.6-2.08.96-.1,1.61.16,1.92.8-.86,5.45-1.2,11.73-1.04,18.84.16,7.11.72,13.44,1.68,19-.11.32-.43.56-.96.72-.54.16-1.07.11-1.61-.16-.53-.27-.85-.72-.96-1.36-1.39-4.38-2.68-7.69-3.85-9.94-1.18-2.24-2.49-3.87-3.93-4.89-1.44-1.01-3.18-1.63-5.21-1.85-1.61-.08-3.5-.16-5.68-.21-7.22,3.93-9.89,11.33-10.68,24.83v9.69c0,4.17.54,7.35,1.61,9.54,1.07,2.19,2.56,3.82,4.49,4.89,1.92,1.07,4.59,1.87,8.01,2.4.64,0,1.13.19,1.44.57.32.37.4.75.24,1.12-.16.37-.51.66-1.04.88-2.46,0-5.03-.05-7.7-.16-1.28-.11-2.72-.16-4.33-.16h-27.9c-1.71.1-3.27.16-4.65.16-1.6.11-3.26.16-4.97.16-.22,0-.4-.21-.57-.64-.16-.43-.13-.88.08-1.36.21-.48.74-.83,1.6-1.05,2.35-.32,4.22-1.04,5.61-2.16,1.39-1.12,2.46-2.86,3.21-5.21.75-2.35,1.12-5.56,1.12-9.62v-73.27c0-3.85-.37-6.98-1.12-9.38-.75-2.41-1.84-4.11-3.28-5.13-1.44-1.01-3.29-1.74-5.53-2.16-.75-.32-1.26-.64-1.52-.96-.27-.32-.35-.7-.24-1.12.11-.43.37-.7.8-.8,1.6,0,3.05.06,4.33.16,1.5,0,3.05.06,4.65.16h47.3c8.55,0,16.62-.54,24.21-1.61,1.92-.32,3.47-.48,4.65-.48,1.07,0,1.9.35,2.49,1.05s.88,1.79.88,3.28c0,6.09.21,12.05.64,17.88.43,5.83,1.07,12.22,1.92,19.16Z"/><path class="cls-2" d="M536.71,261.91c-1.6.11-3.1.16-4.49.16-.11.1-.27-.11-.48-.64-.22-.53-.22-.99,0-1.36.21-.37.59-.72,1.12-1.04.96.11,1.84-.08,2.65-.56.8-.48,1.52-1.15,2.16-2,1.18-1.18,2.35-2.75,3.53-4.73,1.18-1.98,2.46-4.78,3.85-8.42l30.46-74.4c.53-1.39.75-2.97.64-4.73-.11-1.76-.48-3.34-1.12-4.73l6.09,3.85-32.71,80.01c-1.71,3.74-2.33,6.73-1.84,8.98.48,2.24,1.66,3.88,3.53,4.89,1.87,1.02,4.35,1.63,7.46,1.84,1.17.32,1.9.67,2.16,1.04.27.38.32.8.16,1.28-.16.48-.46.72-.88.72-2.78,0-5.56-.06-8.34-.16-1.28-.11-2.78-.16-4.49-.16h-7.05c-.86.11-1.66.16-2.4.16ZM551.7,232.89c.69-1.6,1.52-2.83,2.49-3.69-.22.86-.22,1.52,0,2,.21.48.75.72,1.6.72,8.02-.11,15.44-.75,22.29-1.92,6.84-1.18,13.73-2.67,20.68-4.49.85-.32,1.47-.83,1.84-1.52.37-.69.45-1.36.24-2,.21,0,.61.46,1.2,1.36.59.91,1.12,1.98,1.6,3.21.48,1.23.67,2.27.56,3.13-.54-.75-1.18-1.18-1.92-1.28-.75-.11-1.55-.05-2.41.16-5.24,1.5-11.06,2.83-17.48,4.01-4.49.64-9.03,1.2-13.63,1.68-4.6.48-9.25.78-13.95.88-1.07,0-1.92.24-2.57.72-.64.48-1.18,1.1-1.6,1.84,0-1.6.35-3.21,1.04-4.81ZM607.9,261.91c-2.57.11-5.19.16-7.86.16-.43,0-.72-.24-.88-.72-.16-.48-.08-.91.24-1.28.32-.37.96-.72,1.92-1.04,2.89-.21,5.18-.83,6.89-1.84,1.71-1.01,2.78-2.65,3.21-4.89.43-2.24-.16-5.24-1.76-8.98l-36.56-88.66c-.32-.64-.67-1.15-1.04-1.52-.38-.37-.78-.67-1.2-.88-.22-.21-.38-.32-.48-.32s-.32-.11-.64-.32c-.54.11-.88-.05-1.04-.48-.16-.43-.14-.8.08-1.12.21-.32.48-.48.8-.48h20.36c1.82,0,3.18.11,4.09.32.91.21,1.68.67,2.32,1.36.64.7,1.18,1.79,1.6,3.29l36.88,88.83c1.39,3.53,2.67,6.31,3.85,8.34,1.18,2.03,2.24,3.58,3.21,4.65.75.96,1.58,1.68,2.49,2.17.91.48,1.79.67,2.65.56.43.32.75.64.96.96.21.32.24.75.08,1.28-.16.53-.35.8-.56.8-1.5,0-2.99-.06-4.49-.16-.64-.11-1.44-.16-2.4-.16h-28.54c-1.6,0-2.99.05-4.17.16Z"/><path class="cls-2" d="M661,213.81c.43,0,.8.24,1.12.72s.43,1.2.32,2.16c-.54,9.73.24,17.85,2.32,24.37,2.08,6.52,5.45,11.38,10.1,14.59,4.65,3.21,10.61,4.81,17.88,4.81,3.74,0,7.24-.53,10.5-1.6,3.26-1.07,5.98-2.99,8.18-5.77,2.19-2.78,3.29-6.47,3.29-11.06s-1.15-8.52-3.45-12.11c-2.3-3.58-5.32-6.76-9.06-9.54-3.74-2.78-8.39-5.72-13.95-8.82-7.16-4.27-13.01-8.12-17.56-11.54-4.54-3.42-8.12-7.08-10.74-10.98-2.62-3.9-3.93-8.15-3.93-12.75-.11-5.13,1.71-9.97,5.45-14.51,3.74-4.54,8.98-8.15,15.71-10.82,6.73-2.67,14.59-4.01,23.57-4.01,5.66,0,11.36.83,17.08,2.48,5.72,1.66,10.31,3.93,13.79,6.81,3.47,2.89,4.73,6.2,3.77,9.94l-7.7,25.33c-.64.64-1.26.72-1.84.24-.59-.48-.83-1.31-.72-2.49.75-8.12.13-15.04-1.84-20.76-1.98-5.72-5.19-10.07-9.62-13.07-4.44-2.99-9.81-4.49-16.11-4.49-6.63,0-11.46,1.23-14.51,3.69-3.05,2.46-4.57,5.99-4.57,10.58,0,3.42.96,6.57,2.89,9.46,1.92,2.89,4.57,5.48,7.94,7.78,3.37,2.3,7.94,5.27,13.71,8.9l1.44.64c7.16,4.17,13.01,7.94,17.56,11.3,4.54,3.37,8.34,7.32,11.38,11.86,3.05,4.54,4.57,9.81,4.57,15.79,0,6.63-1.98,12.45-5.93,17.48-3.96,5.03-9.51,8.95-16.67,11.78-7.16,2.83-15.45,4.25-24.85,4.25-7.27,0-14.08-1.07-20.44-3.21-6.36-2.14-11.28-4.92-14.75-8.34-3.47-3.42-4.78-6.89-3.93-10.42l8.5-28.06c.32-.43.69-.64,1.12-.64Z"/><path class="cls-2" d="M898.7,207.72c.11-.43.59-.75,1.44-.96h5.45c5.77-.64,10.5-2.14,14.19-4.49,3.69-2.35,6.36-5.5,8.02-9.46,1.66-3.95,2.48-8.87,2.48-14.75s-.99-10.77-2.97-14.67c-1.98-3.9-4.84-6.79-8.58-8.66-3.74-1.87-8.28-2.86-13.63-2.97h-6.41c-2.03-.11-3.42.27-4.17,1.12-.75.86-1.12,2.51-1.12,4.97v84.66c0,4.06.43,7.3,1.28,9.7.85,2.4,2.03,4.09,3.53,5.05,1.5.96,3.37,1.55,5.61,1.76.75.32,1.23.67,1.5,1.04.27.38.34.8.18,1.28-.16.48-.4.72-.72.72-2.03,0-4.12-.06-6.25-.16-.96-.11-2.03-.16-3.21-.16h-27.58c-1.39,0-2.57.05-3.53.16-2.03.11-4.06.16-6.09.16-.32,0-.56-.24-.72-.72-.16-.48-.14-.91.08-1.28.21-.37.75-.72,1.6-1.04,2.24-.21,4.11-.8,5.61-1.76,1.5-.96,2.7-2.65,3.61-5.05.91-2.4,1.36-5.64,1.36-9.7v-73.75c0-4.06-.46-7.3-1.36-9.7-.91-2.4-2.11-4.09-3.61-5.05-1.5-.96-3.42-1.5-5.77-1.6-.86-.32-1.39-.67-1.6-1.04-.22-.37-.22-.8,0-1.28.21-.48.48-.72.8-.72,2.78.11,5.99.21,9.62.32,5.45-.21,10.85-.37,16.19-.48,9.83-.43,18.28-.64,25.33-.64,16.25,0,28.27,2.46,36.08,7.38,7.8,4.92,11.7,12.51,11.7,22.77,0,5.99-1.55,11.12-4.65,15.39-3.1,4.28-7.62,7.7-13.55,10.26-5.93,2.57-13.12,4.12-21.56,4.65l-1.44,1.44-16.51-1.92c-.54-.11-.75-.37-.64-.8ZM918.51,209.24c4.33.16,8.9.08,13.71-.24.75,0,1.34.19,1.76.56.43.38.75.94.96,1.68,4.06,13.36,12.58,38.79,18.89,48.79,6.31,10,13.04,17.29,20.2,21.89l1.44.64c.21.64.02,1.26-.56,1.84-.59.59-1.52.83-2.81.72-9.3-2.78-17.64-6.81-25.01-12.11-7.38-5.29-14.19-12.13-20.44-20.52-6.25-8.39-15.39-32.32-20.73-44.3,4.06.54,8.26.88,12.59,1.04Z"/><path class="cls-2" d="M1094.1,261.91c-2.03.11-4.06.16-6.09.16-.32,0-.59-.24-.8-.72-.22-.48-.19-.91.08-1.28.27-.37.83-.72,1.68-1.04,2.24-.21,4.11-.8,5.61-1.76,1.5-.96,2.7-2.65,3.61-5.05.91-2.4,1.36-5.64,1.36-9.7v-73.75c0-4.06-.46-7.3-1.36-9.7-.91-2.4-2.11-4.09-3.61-5.05-1.5-.96-3.37-1.55-5.61-1.76-.86-.32-1.42-.67-1.68-1.04-.27-.37-.3-.8-.08-1.28.21-.48.48-.72.8-.72,2.03,0,4.06.06,6.09.16.96.11,2.14.16,3.53.16h27.58c1.18-.11,2.35-.16,3.53-.16,2.35-.11,4.59-.16,6.73-.16.43,0,.69.24.8.72.11.48.02.91-.24,1.28-.27.38-.83.72-1.68,1.04-2.46.21-4.52.8-6.17,1.76-1.66.96-2.91,2.65-3.77,5.05-.86,2.4-1.28,5.64-1.28,9.7v83.85c0,2.35.37,3.93,1.12,4.73.75.8,1.98,1.2,3.69,1.2,8.87,0,16.17-.99,21.89-2.97,5.72-1.98,10.18-4.94,13.39-8.9,2.57-3.1,4.67-7.03,6.33-11.78,1.66-4.75,3.02-10.93,4.09-18.52.32-1.28.88-2.17,1.68-2.65.8-.48,1.58-.61,2.32-.4.75.22,1.12.48,1.12.8-1.18,7.91-2.03,16.06-2.57,24.45-.54,8.39-.64,15.42-.32,21.08,0,1.6-.19,2.7-.56,3.29-.38.59-1.15.88-2.32.88s-2.51-.11-4.01-.32c-9.19-1.18-19.3-1.76-30.3-1.76h-41.05c-1.39,0-2.57.05-3.53.16Z"/><path class="cls-2" d="M626.33,310.29c-.43-5.82-.64-11.78-.64-17.88,0-1.5-.3-2.59-.88-3.29-.59-.69-1.42-1.04-2.48-1.04-1.18,0-2.73.16-4.65.48-7.59,1.07-15.66,1.6-24.21,1.6h-47.3c-1.6-.11-3.15-.16-4.65-.16-1.28-.11-2.73-.16-4.33-.16-.43.11-.7.38-.8.8-.11.43-.03.8.24,1.12.27.32.77.64,1.52.96,2.24.43,4.09,1.15,5.53,2.17,1.44,1.02,2.54,2.73,3.29,5.13.75,2.4,1.12,5.53,1.12,9.38v73.27c0,4.06-.38,7.27-1.12,9.62-.75,2.35-1.82,4.09-3.21,5.21-1.39,1.12-3.26,1.84-5.61,2.16-.86.22-1.39.56-1.6,1.04-.22.48-.24.94-.08,1.36.16.43.35.64.56.64,1.71,0,3.37-.06,4.97-.16,1.39,0,2.94-.05,4.65-.16h27.9c1.6,0,3.05.05,4.33.16,2.67.11,5.24.16,7.7.16.53-.22.88-.51,1.04-.88.16-.37.08-.75-.24-1.12-.32-.37-.8-.56-1.44-.56-3.42-.53-6.09-1.34-8.02-2.4-1.92-1.07-3.42-2.7-4.49-4.89-1.07-2.19-1.6-5.37-1.6-9.54v-27.64c-.23-.49-.34-1.09-.27-1.81.32-3.2.77-6.38,1.3-9.54-.08-.12-.16-.24-.23-.38-.54-1.01-.8-2.06-.8-3.13v-39.44c0-2.89.4-4.94,1.2-6.17.8-1.23,2.16-1.84,4.09-1.84,5.88,0,10.9.08,15.07.24,4.17.16,7.43.51,9.78,1.04,2.35.54,4.22,1.28,5.61,2.24,2.46,1.92,4.86,4.62,7.21,8.1,2.35,3.48,4.54,8.04,6.57,13.71.96,2.78,1.82,5.77,2.57,8.98.21,1.39.8,2.16,1.76,2.32.96.16,1.82-.02,2.57-.56-.86-6.95-1.5-13.33-1.92-19.16Z"/><path class="cls-2" d="M662.52,397.84c-8.77-4.86-15.58-11.6-20.44-20.2-4.87-8.6-7.3-18.36-7.3-29.26s2.83-21.49,8.5-30.78c5.66-9.3,13.39-16.62,23.17-21.97,9.78-5.34,20.71-8.02,32.79-8.02,11.33,0,21.48,2.43,30.46,7.3,8.98,4.87,15.95,11.6,20.92,20.2,4.97,8.61,7.46,18.25,7.46,28.94,0,11.44-2.86,21.81-8.58,31.1-5.72,9.3-13.55,16.62-23.49,21.97-9.94,5.34-21.16,8.02-33.67,8.02-11.12,0-21.06-2.43-29.82-7.3ZM721.76,395.11c4.43-2.62,7.78-6.36,10.02-11.22,2.24-4.86,3.37-10.82,3.37-17.88,0-10.26-2.3-21.06-6.89-32.39-4.6-11.33-10.69-20.82-18.28-28.46-7.59-7.64-15.66-11.46-24.21-11.46-5.77,0-10.77,1.28-14.99,3.85-4.22,2.57-7.54,6.28-9.94,11.14-2.41,4.87-3.61,10.5-3.61,16.92,0,10.37,2.3,21.3,6.89,32.79,4.59,11.49,10.69,21.14,18.28,28.94,7.59,7.8,15.55,11.7,23.89,11.7,5.88,0,11.04-1.31,15.47-3.93Z"/><path class="cls-2" d="M803.31,348.37c.11-.43.59-.75,1.44-.96h5.45c5.77-.64,10.5-2.14,14.19-4.49,3.69-2.35,6.36-5.5,8.02-9.46,1.66-3.95,2.48-8.87,2.48-14.75s-.99-10.77-2.97-14.67c-1.98-3.9-4.84-6.79-8.58-8.66-3.74-1.87-8.28-2.86-13.63-2.97h-6.41c-2.03-.11-3.42.27-4.17,1.12-.75.86-1.12,2.51-1.12,4.97v84.66c0,4.06.43,7.3,1.28,9.7.85,2.4,2.03,4.09,3.53,5.05,1.5.96,3.37,1.55,5.61,1.76.75.32,1.26.67,1.52,1.04.27.38.32.8.16,1.28-.16.48-.4.72-.72.72-2.03,0-4.12-.06-6.25-.16-.96-.11-2.03-.16-3.21-.16h-27.58c-1.39,0-2.57.05-3.53.16-2.03.11-4.06.16-6.09.16-.32,0-.56-.24-.72-.72-.16-.48-.14-.91.08-1.28.21-.37.75-.72,1.6-1.04,2.24-.21,4.11-.8,5.61-1.76,1.5-.96,2.7-2.65,3.61-5.05.91-2.4,1.36-5.64,1.36-9.7v-73.75c0-4.06-.46-7.3-1.36-9.7-.91-2.4-2.11-4.09-3.61-5.05-1.5-.96-3.42-1.5-5.77-1.6-.86-.32-1.39-.67-1.6-1.04-.22-.37-.22-.8,0-1.28.21-.48.48-.72.8-.72,2.78.11,5.99.21,9.62.32,5.45-.21,10.85-.37,16.19-.48,9.83-.43,18.28-.64,25.33-.64,16.25,0,28.27,2.46,36.08,7.38,7.8,4.92,11.7,12.51,11.7,22.77,0,5.99-1.55,11.12-4.65,15.39-3.1,4.28-7.62,7.7-13.55,10.26-5.93,2.57-13.12,4.12-21.56,4.65l-1.44,1.44-16.51-1.92c-.54-.11-.75-.37-.64-.8ZM823.11,349.9c4.33.16,8.9.08,13.71-.24.75,0,1.34.19,1.76.56.43.38.75.94.96,1.68,4.06,13.36,9.24,25.04,15.55,35.03,6.31,10,13.04,17.29,20.2,21.89l1.44.64c.21.64.02,1.26-.56,1.84-.59.59-1.52.83-2.81.72-9.3-2.78-17.64-6.81-25.01-12.11-7.38-5.29-14.19-12.13-20.44-20.52-6.25-8.39-12.05-18.57-17.4-30.54,4.06.54,8.26.88,12.59,1.04Z"/><path class="cls-2" d="M900.49,398.08c-8.55-4.7-15.37-11.33-20.44-19.88-5.08-8.55-7.62-18.44-7.62-29.66s2.75-21.49,8.26-30.78c5.5-9.3,12.93-16.62,22.29-21.97,9.35-5.34,19.53-8.02,30.54-8.02,8.02,0,15.31,1.1,21.89,3.29,6.57,2.19,11.6,4.97,15.07,8.34,3.47,3.37,4.62,6.71,3.45,10.02l-12.29,33.77c-.32.43-.86.64-1.6.64s-1.34-.27-1.76-.8c-.43-.53-.59-1.34-.48-2.4,2.24-5.45,3.02-10.9,2.32-16.35-.7-5.45-2.48-10.53-5.37-15.23-3.1-5.77-7.24-10.26-12.43-13.47-5.19-3.21-11.68-2.02-17.45-2.02-6.09,0-11.44,1.2-16.03,3.61-4.6,2.4-8.15,6.01-10.66,10.82-2.51,4.81-3.77,10.85-3.77,18.12,0,12.4,2.43,24.13,7.3,35.19,4.86,11.06,11.06,19.91,18.6,26.54,7.54,6.63,14.78,9.94,21.73,9.94,4.06,0,7.56-.45,10.5-1.36,2.94-.91,5.34-2.24,7.22-4.01,1.87-1.76,3.02-3.87,3.45-6.33.21-2.67-.08-5.8-.88-9.38-.8-3.58-1.9-7.99-3.29-13.23-1.07-1.71-2.57-3.26-4.49-4.65-1.92-1.39-4.46-2.57-7.62-3.53-3.15-.96-7.24-1.76-12.27-2.41-.96-.21-1.6-.67-1.92-1.36-.32-.69-.35-1.34-.08-1.92.27-.59.67-1.04,1.2-1.36,6.41.64,13.57.99,21.48,1.04,7.91.05,14.86-.29,20.84-1.04,1.5-.1,2.54.08,3.13.56.59.48.88,1.2.88,2.16,0,.64-.06,1.34-.16,2.08-.32,1.28-.64,3.21-.96,5.77-.43,3.21-.67,6.31-.72,9.3-.05,2.99-.08,6.84-.08,11.54,0,.96-.11,1.74-.32,2.33-.22.59-.64,1.31-1.28,2.16-6.2,7.16-13.39,12.45-21.57,15.87-8.18,3.42-17.08,5.13-26.7,5.13s-19.35-2.35-27.9-7.06Z"/><path class="cls-2" d="M1080.03,360.16c-.75-.27-1.5-.21-2.24.16-.75.38-1.23,1.15-1.44,2.33-1.18,5.77-2.38,10.48-3.61,14.11-1.23,3.64-2.49,6.57-3.77,8.82-1.28,2.24-2.83,4.12-4.65,5.61-3.1,2.78-7.51,4.81-13.23,6.09-5.72,1.28-13.55,1.92-23.49,1.92-1.6,0-2.86-.19-3.77-.56-.91-.37-1.55-1.09-1.92-2.16-.38-1.07-.56-2.73-.56-4.97v-42.33c0-1.18.27-2.24.8-3.21.53-.96,1.39-1.44,2.57-1.44,1.35,0,2.63.01,3.83.04v-3.26c-1.19.01-2.46.02-3.83.02-1.18,0-2.03-.43-2.57-1.28-.54-.85-.8-1.92-.8-3.21v-37.52c0-1.82.37-3.26,1.12-4.33.75-1.07,1.92-1.6,3.53-1.6,6.41,0,11.78.19,16.11.56,4.33.38,7.99,1.1,10.98,2.16,2.99,1.07,5.45,2.67,7.38,4.81,1.6,1.5,2.97,3.37,4.09,5.61,1.12,2.24,2.32,5.21,3.61,8.9,1.28,3.69,2.67,8.69,4.17,14.99.32.96.88,1.58,1.68,1.84.8.27,1.63.24,2.49-.08-2.14-15.93-3.21-29.29-3.21-40.08-.11-1.5-.43-2.54-.96-3.13-.54-.59-1.34-.88-2.4-.88-.86,0-2.62.22-5.29.64-7.48.96-14.75,1.44-21.81,1.44h-46.98c-1.39,0-2.57-.05-3.53-.16-2.03-.11-4.06-.16-6.09-.16-.32,0-.59.24-.8.72-.22.48-.19.91.08,1.28.27.38.83.72,1.68,1.04,2.24.21,4.11.8,5.61,1.76,1.5.96,2.7,2.65,3.61,5.05.91,2.4,1.36,5.64,1.36,9.7v73.75c0,4.06-.46,7.3-1.36,9.7-.91,2.4-2.11,4.09-3.61,5.05-1.5.96-3.37,1.55-5.61,1.76-.86.32-1.42.67-1.68,1.04-.27.38-.3.8-.08,1.28.21.48.48.72.8.72,2.03,0,4.06-.06,6.09-.16.96-.11,2.14-.16,3.53-.16h48.74c8.87,0,17.32.53,25.33,1.6,1.82.32,3.31.48,4.49.48,1.07.1,1.87-.22,2.41-.96.53-.75.85-1.87.96-3.37,0-5.66.24-11.81.72-18.44.48-6.63,1.26-13.57,2.32-20.84.21-.21-.06-.45-.8-.72Z"/><polygon class="cls-2" points="581.12 167.93 580.62 169.15 546.57 252.29 542.44 252.29 581.12 159.45 581.12 167.93"/><path class="cls-2" d="M599.8,219.41s1.63,4.41-2.65,5.34c-4.28.93-31.97,6.03-42.97,6.46l-2.25,2.66,16.66-.93,20-3.09,16.93-4.91-5.72-5.53Z"/><path class="cls-2" d="M969.07,261.41c-1.6.11-3.1.16-4.49.16-.11.1-.27-.11-.48-.64-.22-.53-.22-.99,0-1.36.21-.37.59-.72,1.12-1.04.96.11,1.84-.08,2.65-.56.8-.48,1.52-1.15,2.16-2,1.18-1.18,2.35-2.75,3.53-4.73,1.18-1.98,2.46-4.78,3.85-8.42l30.46-74.4c.53-1.39.75-2.97.64-4.73-.11-1.76-.48-3.34-1.12-4.73l6.09,3.85-32.71,80.01c-1.71,3.74-2.33,6.73-1.84,8.98.48,2.24,1.66,3.88,3.53,4.89,1.87,1.02,4.35,1.63,7.46,1.84,1.17.32,1.9.67,2.16,1.04.27.38.32.8.16,1.28-.16.48-.46.72-.88.72-2.78,0-5.56-.06-8.34-.16-1.28-.11-2.78-.16-4.49-.16h-7.05c-.86.11-1.66.16-2.4.16ZM984.06,232.39c.69-1.6,1.52-2.83,2.49-3.69-.22.86-.22,1.52,0,2,.21.48.75.72,1.6.72,8.02-.11,15.44-.75,22.29-1.92,6.84-1.18,13.73-2.67,20.68-4.49.85-.32,1.47-.83,1.84-1.52.37-.69.45-1.36.24-2,.21,0,.61.46,1.2,1.36.59.91,1.12,1.98,1.6,3.21.48,1.23.67,2.27.56,3.13-.54-.75-1.18-1.18-1.92-1.28-.75-.11-1.55-.05-2.41.16-5.24,1.5-11.06,2.83-17.48,4.01-4.49.64-9.03,1.2-13.63,1.68-4.6.48-9.25.78-13.95.88-1.07,0-1.92.24-2.57.72-.64.48-1.18,1.1-1.6,1.84,0-1.6.35-3.21,1.04-4.81ZM1040.25,261.41c-2.57.11-5.19.16-7.86.16-.43,0-.72-.24-.88-.72-.16-.48-.08-.91.24-1.28.32-.37.96-.72,1.92-1.04,2.89-.21,5.18-.83,6.89-1.84,1.71-1.01,2.78-2.65,3.21-4.89.43-2.24-.16-5.24-1.76-8.98l-36.56-88.66c-.32-.64-.67-1.15-1.04-1.52-.38-.37-.78-.67-1.2-.88-.22-.21-.38-.32-.48-.32s-.32-.11-.64-.32c-.54.11-.88-.05-1.04-.48-.16-.43-.14-.8.08-1.12.21-.32.48-.48.8-.48h20.36c1.82,0,3.18.11,4.09.32.91.21,1.68.67,2.32,1.36.64.7,1.18,1.79,1.6,3.29l36.88,88.83c1.39,3.53,2.67,6.31,3.85,8.34,1.18,2.03,2.24,3.58,3.21,4.65.75.96,1.58,1.68,2.49,2.17.91.48,1.79.67,2.65.56.43.32.75.64.96.96.21.32.24.75.08,1.28-.16.53-.35.8-.56.8-1.5,0-2.99-.06-4.49-.16-.64-.11-1.44-.16-2.4-.16h-28.54c-1.6,0-2.99.05-4.17.16Z"/><polygon class="cls-2" points="1013.09 167.44 1012.59 168.66 978.53 251.79 974.41 251.79 1013.09 158.96 1013.09 167.44"/><path class="cls-2" d="M1031.77,218.91s1.63,4.41-2.65,5.34c-4.28.93-31.97,6.03-42.97,6.46l-2.25,2.66,16.66-.93,20-3.09,16.93-4.91-5.72-5.53Z"/><path class="cls-2" d="M825.71,259.02c-3.1-.21-5.72-.8-7.86-1.76-2.14-.96-3.77-2.65-4.89-5.05s-1.68-5.64-1.68-9.7v-84.18c0-1.6.27-2.97.8-4.09.53-1.12,1.34-1.68,2.4-1.68,3.95,0,7.24.11,9.86.32.61.05,1.16.11,1.66.17.09-1.29.24-2.58.45-3.84-4.64.2-9.69.3-15.18.3h-23.73c-5.88,0-11.27-.12-16.19-.34-.08,1.35-.12,2.71-.14,4.07.79-.14,1.74-.26,2.86-.36,2.46-.21,5.77-.32,9.94-.32,1.07,0,1.92.56,2.57,1.68s.96,2.49.96,4.09v84.18c0,4.06-.62,7.3-1.84,9.7-1.23,2.4-2.89,4.09-4.97,5.05-2.08.96-4.68,1.55-7.78,1.76-1.18.32-1.95.67-2.32,1.04-.38.38-.46.8-.24,1.28.21.48.53.72.96.72,2.89,0,5.77-.06,8.66-.16,1.39-.11,2.99-.16,4.81-.16h29.18c1.71,0,3.26.05,4.65.16,2.89.11,5.72.16,8.5.16.43,0,.75-.24.96-.72.21-.48.13-.91-.24-1.28-.38-.37-1.1-.72-2.16-1.04Z"/><path class="cls-2" d="M748.98,154.45c0-1.9,1.54-3.44,3.44-3.44h36.07v.33c-29.6,1.57-37.61,9.58-39.18,39.18h-.33v-36.07Z"/><path class="cls-2" d="M771.19,149.17c-1.03.09-15.8-.59-17.22-.72-1.43-.12-4.88.18-4.93,5.39-.06,5.21,20.38-2.17,20.38-2.17l4.16-1.86-2.38-.65Z"/><path class="cls-2" d="M847.99,154.57c0-1.9-1.54-3.44-3.44-3.44h-36.07s0,.33,0,.33c29.6,1.57,37.61,9.58,39.18,39.18h.33s0-36.07,0-36.07Z"/><path class="cls-2" d="M825.77,149.29c1.03.09,15.8-.59,17.22-.72s4.88.18,4.93,5.39c.06,5.21-20.38-2.17-20.38-2.17l-4.16-1.86,2.38-.65Z"/><path class="cls-2" d="M1019.64,344.56h29.74v.25c-22.28,1.18-28.31,7.21-29.49,29.49h-.25v-29.74Z"/><path class="cls-2" d="M1019.64,344.56v-29.74h.25c1.18,22.28,7.21,28.31,29.49,29.49v.25h-29.74Z"/><path class="cls-2" d="M1163.58,341.44v.5c-22.28,1.17-28.31,7.21-29.49,29.49h-.5c-1.18-22.28-7.21-28.31-29.5-29.5v-.5c22.28-1.18,28.31-7.21,29.49-29.49h.5c1.19,22.28,7.21,28.31,29.5,29.5Z"/><path class="cls-2" d="M628.38,329.92c-.75.54-1.6.72-2.56.56-.96-.16-1.55-.93-1.76-2.32-.75-3.21-1.61-6.2-2.57-8.98-2.03-5.66-4.22-10.23-6.57-13.71-2.35-3.47-4.76-6.17-7.21-8.1-1.39-.96-3.26-1.71-5.61-2.24-2.35-.54-5.61-.88-9.78-1.05-4.17-.16-9.19-.24-15.07-.24-1.92,0-3.29.62-4.09,1.85-.8,1.23-1.21,3.28-1.21,6.17v14.34c1.12,18.59,5.85,25.53,21.22,27.84.15-.08.29-.16.43-.25,1.28-.8,2.46-2.19,3.53-4.17s2.25-5.05,3.53-9.22c.11-1.28.64-1.98,1.6-2.08.96-.1,1.61.16,1.92.8-.86,5.45-1.2,11.73-1.04,18.84.16,7.11.72,13.44,1.68,19-.11.32-.43.56-.96.72-.54.16-1.07.11-1.61-.16-.53-.27-.85-.72-.96-1.36-1.39-4.38-2.68-7.69-3.85-9.94-1.18-2.24-2.49-3.87-3.93-4.89-1.44-1.01-3.18-1.63-5.21-1.85-1.61-.08-3.5-.16-5.68-.21-7.22,3.93-9.89,11.33-10.68,24.83v9.69c0,4.17.54,7.35,1.61,9.54,1.07,2.19,2.56,3.82,4.49,4.89,1.92,1.07,4.59,1.87,8.01,2.4.64,0,1.13.19,1.44.57.32.37.4.75.24,1.12-.16.37-.51.66-1.04.88-2.46,0-5.03-.05-7.7-.16-1.28-.11-2.72-.16-4.33-.16h-27.9c-1.71.1-3.27.16-4.65.16-1.6.11-3.26.16-4.97.16-.22,0-.4-.21-.57-.64-.16-.43-.13-.88.08-1.36.21-.48.74-.83,1.6-1.05,2.35-.32,4.22-1.04,5.61-2.16,1.39-1.12,2.46-2.86,3.21-5.21.75-2.35,1.12-5.56,1.12-9.62v-73.27c0-3.85-.37-6.98-1.12-9.38-.75-2.41-1.84-4.11-3.28-5.13-1.44-1.01-3.29-1.74-5.53-2.16-.75-.32-1.26-.64-1.52-.96-.27-.32-.35-.7-.24-1.12.11-.43.37-.7.8-.8,1.6,0,3.05.06,4.33.16,1.5,0,3.05.06,4.65.16h47.3c8.55,0,16.62-.54,24.21-1.61,1.92-.32,3.47-.48,4.65-.48,1.07,0,1.9.35,2.49,1.05s.88,1.79.88,3.28c0,6.09.21,12.05.64,17.88.43,5.83,1.07,12.22,1.92,19.16Z"/><path class="cls-2" d="M536.71,261.91c-1.6.11-3.1.16-4.49.16-.11.1-.27-.11-.48-.64-.22-.53-.22-.99,0-1.36.21-.37.59-.72,1.12-1.04.96.11,1.84-.08,2.65-.56.8-.48,1.52-1.15,2.16-2,1.18-1.18,2.35-2.75,3.53-4.73,1.18-1.98,2.46-4.78,3.85-8.42l30.46-74.4c.53-1.39.75-2.97.64-4.73-.11-1.76-.48-3.34-1.12-4.73l6.09,3.85-32.71,80.01c-1.71,3.74-2.33,6.73-1.84,8.98.48,2.24,1.66,3.88,3.53,4.89,1.87,1.02,4.35,1.63,7.46,1.84,1.17.32,1.9.67,2.16,1.04.27.38.32.8.16,1.28-.16.48-.46.72-.88.72-2.78,0-5.56-.06-8.34-.16-1.28-.11-2.78-.16-4.49-.16h-7.05c-.86.11-1.66.16-2.4.16ZM551.7,232.89c.69-1.6,1.52-2.83,2.49-3.69-.22.86-.22,1.52,0,2,.21.48.75.72,1.6.72,8.02-.11,15.44-.75,22.29-1.92,6.84-1.18,13.73-2.67,20.68-4.49.85-.32,1.47-.83,1.84-1.52.37-.69.45-1.36.24-2,.21,0,.61.46,1.2,1.36.59.91,1.12,1.98,1.6,3.21.48,1.23.67,2.27.56,3.13-.54-.75-1.18-1.18-1.92-1.28-.75-.11-1.55-.05-2.41.16-5.24,1.5-11.06,2.83-17.48,4.01-4.49.64-9.03,1.2-13.63,1.68-4.6.48-9.25.78-13.95.88-1.07,0-1.92.24-2.57.72-.64.48-1.18,1.1-1.6,1.84,0-1.6.35-3.21,1.04-4.81ZM607.9,261.91c-2.57.11-5.19.16-7.86.16-.43,0-.72-.24-.88-.72-.16-.48-.08-.91.24-1.28.32-.37.96-.72,1.92-1.04,2.89-.21,5.18-.83,6.89-1.84,1.71-1.01,2.78-2.65,3.21-4.89.43-2.24-.16-5.24-1.76-8.98l-36.56-88.66c-.32-.64-.67-1.15-1.04-1.52-.38-.37-.78-.67-1.2-.88-.22-.21-.38-.32-.48-.32s-.32-.11-.64-.32c-.54.11-.88-.05-1.04-.48-.16-.43-.14-.8.08-1.12.21-.32.48-.48.8-.48h20.36c1.82,0,3.18.11,4.09.32.91.21,1.68.67,2.32,1.36.64.7,1.18,1.79,1.6,3.29l36.88,88.83c1.39,3.53,2.67,6.31,3.85,8.34,1.18,2.03,2.24,3.58,3.21,4.65.75.96,1.58,1.68,2.49,2.17.91.48,1.79.67,2.65.56.43.32.75.64.96.96.21.32.24.75.08,1.28-.16.53-.35.8-.56.8-1.5,0-2.99-.06-4.49-.16-.64-.11-1.44-.16-2.4-.16h-28.54c-1.6,0-2.99.05-4.17.16Z"/><path class="cls-2" d="M661,213.81c.43,0,.8.24,1.12.72s.43,1.2.32,2.16c-.54,9.73.24,17.85,2.32,24.37,2.08,6.52,5.45,11.38,10.1,14.59,4.65,3.21,10.61,4.81,17.88,4.81,3.74,0,7.24-.53,10.5-1.6,3.26-1.07,5.98-2.99,8.18-5.77,2.19-2.78,3.29-6.47,3.29-11.06s-1.15-8.52-3.45-12.11c-2.3-3.58-5.32-6.76-9.06-9.54-3.74-2.78-8.39-5.72-13.95-8.82-7.16-4.27-13.01-8.12-17.56-11.54-4.54-3.42-8.12-7.08-10.74-10.98-2.62-3.9-3.93-8.15-3.93-12.75-.11-5.13,1.71-9.97,5.45-14.51,3.74-4.54,8.98-8.15,15.71-10.82,6.73-2.67,14.59-4.01,23.57-4.01,5.66,0,11.36.83,17.08,2.48,5.72,1.66,10.31,3.93,13.79,6.81,3.47,2.89,4.73,6.2,3.77,9.94l-7.7,25.33c-.64.64-1.26.72-1.84.24-.59-.48-.83-1.31-.72-2.49.75-8.12.13-15.04-1.84-20.76-1.98-5.72-5.19-10.07-9.62-13.07-4.44-2.99-9.81-4.49-16.11-4.49-6.63,0-11.46,1.23-14.51,3.69-3.05,2.46-4.57,5.99-4.57,10.58,0,3.42.96,6.57,2.89,9.46,1.92,2.89,4.57,5.48,7.94,7.78,3.37,2.3,7.94,5.27,13.71,8.9l1.44.64c7.16,4.17,13.01,7.94,17.56,11.3,4.54,3.37,8.34,7.32,11.38,11.86,3.05,4.54,4.57,9.81,4.57,15.79,0,6.63-1.98,12.45-5.93,17.48-3.96,5.03-9.51,8.95-16.67,11.78-7.16,2.83-15.45,4.25-24.85,4.25-7.27,0-14.08-1.07-20.44-3.21-6.36-2.14-11.28-4.92-14.75-8.34-3.47-3.42-4.78-6.89-3.93-10.42l8.5-28.06c.32-.43.69-.64,1.12-.64Z"/><path class="cls-2" d="M898.7,207.72c.11-.43.59-.75,1.44-.96h5.45c5.77-.64,10.5-2.14,14.19-4.49,3.69-2.35,6.36-5.5,8.02-9.46,1.66-3.95,2.48-8.87,2.48-14.75s-.99-10.77-2.97-14.67c-1.98-3.9-4.84-6.79-8.58-8.66-3.74-1.87-8.28-2.86-13.63-2.97h-6.41c-2.03-.11-3.42.27-4.17,1.12-.75.86-1.12,2.51-1.12,4.97v84.66c0,4.06.43,7.3,1.28,9.7.85,2.4,2.03,4.09,3.53,5.05,1.5.96,3.37,1.55,5.61,1.76.75.32,1.23.67,1.5,1.04.27.38.34.8.18,1.28-.16.48-.4.72-.72.72-2.03,0-4.12-.06-6.25-.16-.96-.11-2.03-.16-3.21-.16h-27.58c-1.39,0-2.57.05-3.53.16-2.03.11-4.06.16-6.09.16-.32,0-.56-.24-.72-.72-.16-.48-.14-.91.08-1.28.21-.37.75-.72,1.6-1.04,2.24-.21,4.11-.8,5.61-1.76,1.5-.96,2.7-2.65,3.61-5.05.91-2.4,1.36-5.64,1.36-9.7v-73.75c0-4.06-.46-7.3-1.36-9.7-.91-2.4-2.11-4.09-3.61-5.05-1.5-.96-3.42-1.5-5.77-1.6-.86-.32-1.39-.67-1.6-1.04-.22-.37-.22-.8,0-1.28.21-.48.48-.72.8-.72,2.78.11,5.99.21,9.62.32,5.45-.21,10.85-.37,16.19-.48,9.83-.43,18.28-.64,25.33-.64,16.25,0,28.27,2.46,36.08,7.38,7.8,4.92,11.7,12.51,11.7,22.77,0,5.99-1.55,11.12-4.65,15.39-3.1,4.28-7.62,7.7-13.55,10.26-5.93,2.57-13.12,4.12-21.56,4.65l-1.44,1.44-16.51-1.92c-.54-.11-.75-.37-.64-.8ZM918.51,209.24c4.33.16,8.9.08,13.71-.24.75,0,1.34.19,1.76.56.43.38.75.94.96,1.68,4.06,13.36,12.58,38.79,18.89,48.79,6.31,10,13.04,17.29,20.2,21.89l1.44.64c.21.64.02,1.26-.56,1.84-.59.59-1.52.83-2.81.72-9.3-2.78-17.64-6.81-25.01-12.11-7.38-5.29-14.19-12.13-20.44-20.52-6.25-8.39-15.39-32.32-20.73-44.3,4.06.54,8.26.88,12.59,1.04Z"/><path class="cls-2" d="M1094.1,261.91c-2.03.11-4.06.16-6.09.16-.32,0-.59-.24-.8-.72-.22-.48-.19-.91.08-1.28.27-.37.83-.72,1.68-1.04,2.24-.21,4.11-.8,5.61-1.76,1.5-.96,2.7-2.65,3.61-5.05.91-2.4,1.36-5.64,1.36-9.7v-73.75c0-4.06-.46-7.3-1.36-9.7-.91-2.4-2.11-4.09-3.61-5.05-1.5-.96-3.37-1.55-5.61-1.76-.86-.32-1.42-.67-1.68-1.04-.27-.37-.3-.8-.08-1.28.21-.48.48-.72.8-.72,2.03,0,4.06.06,6.09.16.96.11,2.14.16,3.53.16h27.58c1.18-.11,2.35-.16,3.53-.16,2.35-.11,4.59-.16,6.73-.16.43,0,.69.24.8.72.11.48.02.91-.24,1.28-.27.38-.83.72-1.68,1.04-2.46.21-4.52.8-6.17,1.76-1.66.96-2.91,2.65-3.77,5.05-.86,2.4-1.28,5.64-1.28,9.7v83.85c0,2.35.37,3.93,1.12,4.73.75.8,1.98,1.2,3.69,1.2,8.87,0,16.17-.99,21.89-2.97,5.72-1.98,10.18-4.94,13.39-8.9,2.57-3.1,4.67-7.03,6.33-11.78,1.66-4.75,3.02-10.93,4.09-18.52.32-1.28.88-2.17,1.68-2.65.8-.48,1.58-.61,2.32-.4.75.22,1.12.48,1.12.8-1.18,7.91-2.03,16.06-2.57,24.45-.54,8.39-.64,15.42-.32,21.08,0,1.6-.19,2.7-.56,3.29-.38.59-1.15.88-2.32.88s-2.51-.11-4.01-.32c-9.19-1.18-19.3-1.76-30.3-1.76h-41.05c-1.39,0-2.57.05-3.53.16Z"/><path class="cls-2" d="M626.33,310.29c-.43-5.82-.64-11.78-.64-17.88,0-1.5-.3-2.59-.88-3.29-.59-.69-1.42-1.04-2.48-1.04-1.18,0-2.73.16-4.65.48-7.59,1.07-15.66,1.6-24.21,1.6h-47.3c-1.6-.11-3.15-.16-4.65-.16-1.28-.11-2.73-.16-4.33-.16-.43.11-.7.38-.8.8-.11.43-.03.8.24,1.12.27.32.77.64,1.52.96,2.24.43,4.09,1.15,5.53,2.17,1.44,1.02,2.54,2.73,3.29,5.13.75,2.4,1.12,5.53,1.12,9.38v73.27c0,4.06-.38,7.27-1.12,9.62-.75,2.35-1.82,4.09-3.21,5.21-1.39,1.12-3.26,1.84-5.61,2.16-.86.22-1.39.56-1.6,1.04-.22.48-.24.94-.08,1.36.16.43.35.64.56.64,1.71,0,3.37-.06,4.97-.16,1.39,0,2.94-.05,4.65-.16h27.9c1.6,0,3.05.05,4.33.16,2.67.11,5.24.16,7.7.16.53-.22.88-.51,1.04-.88.16-.37.08-.75-.24-1.12-.32-.37-.8-.56-1.44-.56-3.42-.53-6.09-1.34-8.02-2.4-1.92-1.07-3.42-2.7-4.49-4.89-1.07-2.19-1.6-5.37-1.6-9.54v-27.64c-.23-.49-.34-1.09-.27-1.81.32-3.2.77-6.38,1.3-9.54-.08-.12-.16-.24-.23-.38-.54-1.01-.8-2.06-.8-3.13v-39.44c0-2.89.4-4.94,1.2-6.17.8-1.23,2.16-1.84,4.09-1.84,5.88,0,10.9.08,15.07.24,4.17.16,7.43.51,9.78,1.04,2.35.54,4.22,1.28,5.61,2.24,2.46,1.92,4.86,4.62,7.21,8.1,2.35,3.48,4.54,8.04,6.57,13.71.96,2.78,1.82,5.77,2.57,8.98.21,1.39.8,2.16,1.76,2.32.96.16,1.82-.02,2.57-.56-.86-6.95-1.5-13.33-1.92-19.16Z"/><path class="cls-2" d="M662.52,397.84c-8.77-4.86-15.58-11.6-20.44-20.2-4.87-8.6-7.3-18.36-7.3-29.26s2.83-21.49,8.5-30.78c5.66-9.3,13.39-16.62,23.17-21.97,9.78-5.34,20.71-8.02,32.79-8.02,11.33,0,21.48,2.43,30.46,7.3,8.98,4.87,15.95,11.6,20.92,20.2,4.97,8.61,7.46,18.25,7.46,28.94,0,11.44-2.86,21.81-8.58,31.1-5.72,9.3-13.55,16.62-23.49,21.97-9.94,5.34-21.16,8.02-33.67,8.02-11.12,0-21.06-2.43-29.82-7.3ZM721.76,395.11c4.43-2.62,7.78-6.36,10.02-11.22,2.24-4.86,3.37-10.82,3.37-17.88,0-10.26-2.3-21.06-6.89-32.39-4.6-11.33-10.69-20.82-18.28-28.46-7.59-7.64-15.66-11.46-24.21-11.46-5.77,0-10.77,1.28-14.99,3.85-4.22,2.57-7.54,6.28-9.94,11.14-2.41,4.87-3.61,10.5-3.61,16.92,0,10.37,2.3,21.3,6.89,32.79,4.59,11.49,10.69,21.14,18.28,28.94,7.59,7.8,15.55,11.7,23.89,11.7,5.88,0,11.04-1.31,15.47-3.93Z"/><path class="cls-2" d="M803.31,348.37c.11-.43.59-.75,1.44-.96h5.45c5.77-.64,10.5-2.14,14.19-4.49,3.69-2.35,6.36-5.5,8.02-9.46,1.66-3.95,2.48-8.87,2.48-14.75s-.99-10.77-2.97-14.67c-1.98-3.9-4.84-6.79-8.58-8.66-3.74-1.87-8.28-2.86-13.63-2.97h-6.41c-2.03-.11-3.42.27-4.17,1.12-.75.86-1.12,2.51-1.12,4.97v84.66c0,4.06.43,7.3,1.28,9.7.85,2.4,2.03,4.09,3.53,5.05,1.5.96,3.37,1.55,5.61,1.76.75.32,1.26.67,1.52,1.04.27.38.32.8.16,1.28-.16.48-.4.72-.72.72-2.03,0-4.12-.06-6.25-.16-.96-.11-2.03-.16-3.21-.16h-27.58c-1.39,0-2.57.05-3.53.16-2.03.11-4.06.16-6.09.16-.32,0-.56-.24-.72-.72-.16-.48-.14-.91.08-1.28.21-.37.75-.72,1.6-1.04,2.24-.21,4.11-.8,5.61-1.76,1.5-.96,2.7-2.65,3.61-5.05.91-2.4,1.36-5.64,1.36-9.7v-73.75c0-4.06-.46-7.3-1.36-9.7-.91-2.4-2.11-4.09-3.61-5.05-1.5-.96-3.42-1.5-5.77-1.6-.86-.32-1.39-.67-1.6-1.04-.22-.37-.22-.8,0-1.28.21-.48.48-.72.8-.72,2.78.11,5.99.21,9.62.32,5.45-.21,10.85-.37,16.19-.48,9.83-.43,18.28-.64,25.33-.64,16.25,0,28.27,2.46,36.08,7.38,7.8,4.92,11.7,12.51,11.7,22.77,0,5.99-1.55,11.12-4.65,15.39-3.1,4.28-7.62,7.7-13.55,10.26-5.93,2.57-13.12,4.12-21.56,4.65l-1.44,1.44-16.51-1.92c-.54-.11-.75-.37-.64-.8ZM823.11,349.9c4.33.16,8.9.08,13.71-.24.75,0,1.34.19,1.76.56.43.38.75.94.96,1.68,4.06,13.36,9.24,25.04,15.55,35.03,6.31,10,13.04,17.29,20.2,21.89l1.44.64c.21.64.02,1.26-.56,1.84-.59.59-1.52.83-2.81.72-9.3-2.78-17.64-6.81-25.01-12.11-7.38-5.29-14.19-12.13-20.44-20.52-6.25-8.39-12.05-18.57-17.4-30.54,4.06.54,8.26.88,12.59,1.04Z"/><path class="cls-2" d="M900.49,398.08c-8.55-4.7-15.37-11.33-20.44-19.88-5.08-8.55-7.62-18.44-7.62-29.66s2.75-21.49,8.26-30.78c5.5-9.3,12.93-16.62,22.29-21.97,9.35-5.34,19.53-8.02,30.54-8.02,8.02,0,15.31,1.1,21.89,3.29,6.57,2.19,11.6,4.97,15.07,8.34,3.47,3.37,4.62,6.71,3.45,10.02l-12.29,33.77c-.32.43-.86.64-1.6.64s-1.34-.27-1.76-.8c-.43-.53-.59-1.34-.48-2.4,2.24-5.45,3.02-10.9,2.32-16.35-.7-5.45-2.48-10.53-5.37-15.23-3.1-5.77-7.24-10.26-12.43-13.47-5.19-3.21-11.68-2.02-17.45-2.02-6.09,0-11.44,1.2-16.03,3.61-4.6,2.4-8.15,6.01-10.66,10.82-2.51,4.81-3.77,10.85-3.77,18.12,0,12.4,2.43,24.13,7.3,35.19,4.86,11.06,11.06,19.91,18.6,26.54,7.54,6.63,14.78,9.94,21.73,9.94,4.06,0,7.56-.45,10.5-1.36,2.94-.91,5.34-2.24,7.22-4.01,1.87-1.76,3.02-3.87,3.45-6.33.21-2.67-.08-5.8-.88-9.38-.8-3.58-1.9-7.99-3.29-13.23-1.07-1.71-2.57-3.26-4.49-4.65-1.92-1.39-4.46-2.57-7.62-3.53-3.15-.96-7.24-1.76-12.27-2.41-.96-.21-1.6-.67-1.92-1.36-.32-.69-.35-1.34-.08-1.92.27-.59.67-1.04,1.2-1.36,6.41.64,13.57.99,21.48,1.04,7.91.05,14.86-.29,20.84-1.04,1.5-.1,2.54.08,3.13.56.59.48.88,1.2.88,2.16,0,.64-.06,1.34-.16,2.08-.32,1.28-.64,3.21-.96,5.77-.43,3.21-.67,6.31-.72,9.3-.05,2.99-.08,6.84-.08,11.54,0,.96-.11,1.74-.32,2.33-.22.59-.64,1.31-1.28,2.16-6.2,7.16-13.39,12.45-21.57,15.87-8.18,3.42-17.08,5.13-26.7,5.13s-19.35-2.35-27.9-7.06Z"/><path class="cls-2" d="M1080.03,360.16c-.75-.27-1.5-.21-2.24.16-.75.38-1.23,1.15-1.44,2.33-1.18,5.77-2.38,10.48-3.61,14.11-1.23,3.64-2.49,6.57-3.77,8.82-1.28,2.24-2.83,4.12-4.65,5.61-3.1,2.78-7.51,4.81-13.23,6.09-5.72,1.28-13.55,1.92-23.49,1.92-1.6,0-2.86-.19-3.77-.56-.91-.37-1.55-1.09-1.92-2.16-.38-1.07-.56-2.73-.56-4.97v-42.33c0-1.18.27-2.24.8-3.21.53-.96,1.39-1.44,2.57-1.44,1.35,0,2.63.01,3.83.04v-3.26c-1.19.01-2.46.02-3.83.02-1.18,0-2.03-.43-2.57-1.28-.54-.85-.8-1.92-.8-3.21v-37.52c0-1.82.37-3.26,1.12-4.33.75-1.07,1.92-1.6,3.53-1.6,6.41,0,11.78.19,16.11.56,4.33.38,7.99,1.1,10.98,2.16,2.99,1.07,5.45,2.67,7.38,4.81,1.6,1.5,2.97,3.37,4.09,5.61,1.12,2.24,2.32,5.21,3.61,8.9,1.28,3.69,2.67,8.69,4.17,14.99.32.96.88,1.58,1.68,1.84.8.27,1.63.24,2.49-.08-2.14-15.93-3.21-29.29-3.21-40.08-.11-1.5-.43-2.54-.96-3.13-.54-.59-1.34-.88-2.4-.88-.86,0-2.62.22-5.29.64-7.48.96-14.75,1.44-21.81,1.44h-46.98c-1.39,0-2.57-.05-3.53-.16-2.03-.11-4.06-.16-6.09-.16-.32,0-.59.24-.8.72-.22.48-.19.91.08,1.28.27.38.83.72,1.68,1.04,2.24.21,4.11.8,5.61,1.76,1.5.96,2.7,2.65,3.61,5.05.91,2.4,1.36,5.64,1.36,9.7v73.75c0,4.06-.46,7.3-1.36,9.7-.91,2.4-2.11,4.09-3.61,5.05-1.5.96-3.37,1.55-5.61,1.76-.86.32-1.42.67-1.68,1.04-.27.38-.3.8-.08,1.28.21.48.48.72.8.72,2.03,0,4.06-.06,6.09-.16.96-.11,2.14-.16,3.53-.16h48.74c8.87,0,17.32.53,25.33,1.6,1.82.32,3.31.48,4.49.48,1.07.1,1.87-.22,2.41-.96.53-.75.85-1.87.96-3.37,0-5.66.24-11.81.72-18.44.48-6.63,1.26-13.57,2.32-20.84.21-.21-.06-.45-.8-.72Z"/><polygon class="cls-2" points="581.12 167.93 580.62 169.15 546.57 252.29 542.44 252.29 581.12 159.45 581.12 167.93"/><path class="cls-2" d="M599.8,219.41s1.63,4.41-2.65,5.34c-4.28.93-31.97,6.03-42.97,6.46l-2.25,2.66,16.66-.93,20-3.09,16.93-4.91-5.72-5.53Z"/><path class="cls-2" d="M969.07,261.41c-1.6.11-3.1.16-4.49.16-.11.1-.27-.11-.48-.64-.22-.53-.22-.99,0-1.36.21-.37.59-.72,1.12-1.04.96.11,1.84-.08,2.65-.56.8-.48,1.52-1.15,2.16-2,1.18-1.18,2.35-2.75,3.53-4.73,1.18-1.98,2.46-4.78,3.85-8.42l30.46-74.4c.53-1.39.75-2.97.64-4.73-.11-1.76-.48-3.34-1.12-4.73l6.09,3.85-32.71,80.01c-1.71,3.74-2.33,6.73-1.84,8.98.48,2.24,1.66,3.88,3.53,4.89,1.87,1.02,4.35,1.63,7.46,1.84,1.17.32,1.9.67,2.16,1.04.27.38.32.8.16,1.28-.16.48-.46.72-.88.72-2.78,0-5.56-.06-8.34-.16-1.28-.11-2.78-.16-4.49-.16h-7.05c-.86.11-1.66.16-2.4.16ZM984.06,232.39c.69-1.6,1.52-2.83,2.49-3.69-.22.86-.22,1.52,0,2,.21.48.75.72,1.6.72,8.02-.11,15.44-.75,22.29-1.92,6.84-1.18,13.73-2.67,20.68-4.49.85-.32,1.47-.83,1.84-1.52.37-.69.45-1.36.24-2,.21,0,.61.46,1.2,1.36.59.91,1.12,1.98,1.6,3.21.48,1.23.67,2.27.56,3.13-.54-.75-1.18-1.18-1.92-1.28-.75-.11-1.55-.05-2.41.16-5.24,1.5-11.06,2.83-17.48,4.01-4.49.64-9.03,1.2-13.63,1.68-4.6.48-9.25.78-13.95.88-1.07,0-1.92.24-2.57.72-.64.48-1.18,1.1-1.6,1.84,0-1.6.35-3.21,1.04-4.81ZM1040.25,261.41c-2.57.11-5.19.16-7.86.16-.43,0-.72-.24-.88-.72-.16-.48-.08-.91.24-1.28.32-.37.96-.72,1.92-1.04,2.89-.21,5.18-.83,6.89-1.84,1.71-1.01,2.78-2.65,3.21-4.89.43-2.24-.16-5.24-1.76-8.98l-36.56-88.66c-.32-.64-.67-1.15-1.04-1.52-.38-.37-.78-.67-1.2-.88-.22-.21-.38-.32-.48-.32s-.32-.11-.64-.32c-.54.11-.88-.05-1.04-.48-.16-.43-.14-.8.08-1.12.21-.32.48-.48.8-.48h20.36c1.82,0,3.18.11,4.09.32.91.21,1.68.67,2.32,1.36.64.7,1.18,1.79,1.6,3.29l36.88,88.83c1.39,3.53,2.67,6.31,3.85,8.34,1.18,2.03,2.24,3.58,3.21,4.65.75.96,1.58,1.68,2.49,2.17.91.48,1.79.67,2.65.56.43.32.75.64.96.96.21.32.24.75.08,1.28-.16.53-.35.8-.56.8-1.5,0-2.99-.06-4.49-.16-.64-.11-1.44-.16-2.4-.16h-28.54c-1.6,0-2.99.05-4.17.16Z"/><polygon class="cls-2" points="1013.09 167.44 1012.59 168.66 978.53 251.79 974.41 251.79 1013.09 158.96 1013.09 167.44"/><path class="cls-2" d="M1031.77,218.91s1.63,4.41-2.65,5.34c-4.28.93-31.97,6.03-42.97,6.46l-2.25,2.66,16.66-.93,20-3.09,16.93-4.91-5.72-5.53Z"/><path class="cls-2" d="M825.71,259.02c-3.1-.21-5.72-.8-7.86-1.76-2.14-.96-3.77-2.65-4.89-5.05s-1.68-5.64-1.68-9.7v-84.18c0-1.6.27-2.97.8-4.09.53-1.12,1.34-1.68,2.4-1.68,3.95,0,7.24.11,9.86.32.61.05,1.16.11,1.66.17.09-1.29.24-2.58.45-3.84-4.64.2-9.69.3-15.18.3h-23.73c-5.88,0-11.27-.12-16.19-.34-.08,1.35-.12,2.71-.14,4.07.79-.14,1.74-.26,2.86-.36,2.46-.21,5.77-.32,9.94-.32,1.07,0,1.92.56,2.57,1.68s.96,2.49.96,4.09v84.18c0,4.06-.62,7.3-1.84,9.7-1.23,2.4-2.89,4.09-4.97,5.05-2.08.96-4.68,1.55-7.78,1.76-1.18.32-1.95.67-2.32,1.04-.38.38-.46.8-.24,1.28.21.48.53.72.96.72,2.89,0,5.77-.06,8.66-.16,1.39-.11,2.99-.16,4.81-.16h29.18c1.71,0,3.26.05,4.65.16,2.89.11,5.72.16,8.5.16.43,0,.75-.24.96-.72.21-.48.13-.91-.24-1.28-.38-.37-1.1-.72-2.16-1.04Z"/><path class="cls-2" d="M748.98,154.45c0-1.9,1.54-3.44,3.44-3.44h36.07v.33c-29.6,1.57-37.61,9.58-39.18,39.18h-.33v-36.07Z"/><path class="cls-2" d="M771.19,149.17c-1.03.09-15.8-.59-17.22-.72-1.43-.12-4.88.18-4.93,5.39-.06,5.21,20.38-2.17,20.38-2.17l4.16-1.86-2.38-.65Z"/><path class="cls-2" d="M847.99,154.57c0-1.9-1.54-3.44-3.44-3.44h-36.07s0,.33,0,.33c29.6,1.57,37.61,9.58,39.18,39.18h.33s0-36.07,0-36.07Z"/><path class="cls-2" d="M825.77,149.29c1.03.09,15.8-.59,17.22-.72s4.88.18,4.93,5.39c.06,5.21-20.38-2.17-20.38-2.17l-4.16-1.86,2.38-.65Z"/><path class="cls-2" d="M1019.64,344.56h29.74v.25c-22.28,1.18-28.31,7.21-29.49,29.49h-.25v-29.74Z"/><path class="cls-2" d="M1019.64,344.56v-29.74h.25c1.18,22.28,7.21,28.31,29.49,29.49v.25h-29.74Z"/><path class="cls-2" d="M1163.58,341.44v.5c-22.28,1.17-28.31,7.21-29.49,29.49h-.5c-1.18-22.28-7.21-28.31-29.5-29.5v-.5c22.28-1.18,28.31-7.21,29.49-29.49h.5c1.19,22.28,7.21,28.31,29.5,29.5Z"/><path class="cls-2" d="M628.38,329.92c-.75.54-1.6.72-2.56.56-.96-.16-1.55-.93-1.76-2.32-.75-3.21-1.61-6.2-2.57-8.98-2.03-5.66-4.22-10.23-6.57-13.71-2.35-3.47-4.76-6.17-7.21-8.1-1.39-.96-3.26-1.71-5.61-2.24-2.35-.54-5.61-.88-9.78-1.05-4.17-.16-9.19-.24-15.07-.24-1.92,0-3.29.62-4.09,1.85-.8,1.23-1.21,3.28-1.21,6.17v14.34c1.12,18.59,5.85,25.53,21.22,27.84.15-.08.29-.16.43-.25,1.28-.8,2.46-2.19,3.53-4.17s2.25-5.05,3.53-9.22c.11-1.28.64-1.98,1.6-2.08.96-.1,1.61.16,1.92.8-.86,5.45-1.2,11.73-1.04,18.84.16,7.11.72,13.44,1.68,19-.11.32-.43.56-.96.72-.54.16-1.07.11-1.61-.16-.53-.27-.85-.72-.96-1.36-1.39-4.38-2.68-7.69-3.85-9.94-1.18-2.24-2.49-3.87-3.93-4.89-1.44-1.01-3.18-1.63-5.21-1.85-1.61-.08-3.5-.16-5.68-.21-7.22,3.93-9.89,11.33-10.68,24.83v9.69c0,4.17.54,7.35,1.61,9.54,1.07,2.19,2.56,3.82,4.49,4.89,1.92,1.07,4.59,1.87,8.01,2.4.64,0,1.13.19,1.44.57.32.37.4.75.24,1.12-.16.37-.51.66-1.04.88-2.46,0-5.03-.05-7.7-.16-1.28-.11-2.72-.16-4.33-.16h-27.9c-1.71.1-3.27.16-4.65.16-1.6.11-3.26.16-4.97.16-.22,0-.4-.21-.57-.64-.16-.43-.13-.88.08-1.36.21-.48.74-.83,1.6-1.05,2.35-.32,4.22-1.04,5.61-2.16,1.39-1.12,2.46-2.86,3.21-5.21.75-2.35,1.12-5.56,1.12-9.62v-73.27c0-3.85-.37-6.98-1.12-9.38-.75-2.41-1.84-4.11-3.28-5.13-1.44-1.01-3.29-1.74-5.53-2.16-.75-.32-1.26-.64-1.52-.96-.27-.32-.35-.7-.24-1.12.11-.43.37-.7.8-.8,1.6,0,3.05.06,4.33.16,1.5,0,3.05.06,4.65.16h47.3c8.55,0,16.62-.54,24.21-1.61,1.92-.32,3.47-.48,4.65-.48,1.07,0,1.9.35,2.49,1.05s.88,1.79.88,3.28c0,6.09.21,12.05.64,17.88.43,5.83,1.07,12.22,1.92,19.16Z"/><path class="cls-2" d="M353.86,265.29v11.95c0,.58-.62.95-1.13.68l-5.6-2.96-61.31-1.54-3.98,55.06,2.98,35.64-4.72,43.62-.49,4.57-2.49,23.04-3.89,46.61-.02.23-.02-.23-3.89-46.61-2.49-22.99-.48-4.5-4.73-43.74,2.98-35.64-3.98-55.06-61.31,1.54-5.6,2.96c-.51.27-1.13-.1-1.13-.68v-11.95c0-.58.62-.95,1.13-.68l5.61,2.96,62.34,1.57,4.07-6.81c-4.19-11.73-5.78-27.97-5.13-33.97.64-6,6.85-41.06,6.85-41.06l-6.28-24.45-3.53-13.74c6.49-8.41,15.02-8.68,15.6-8.69h.03c.58,0,9.1.27,15.6,8.69l-3.53,13.74-6.28,24.45s6.2,35.06,6.85,41.06c.64,6-.95,22.24-5.13,33.97l4.07,6.81,62.34-1.57,5.61-2.96c.51-.27,1.13.1,1.13.68Z"/><polygon class="cls-2" points="273.42 481.58 273.42 482.05 273.4 481.82 273.42 481.58"/><polygon class="cls-2" points="273.4 481.82 273.38 482.05 273.38 481.58 273.4 481.82"/><path class="cls-2" d="M275.36,407.88c.16,1.51.32,3.01.47,4.49-1.6-.06-3.2-.15-4.8-.27-.16-1.5-.31-3.01-.47-4.52,1.59.12,3.19.22,4.8.29Z"/><path class="cls-2" d="M275.84,407.4c-.17,1.54-.33,3.08-.48,4.62-1.61.14-3.21.24-4.81.31.16-1.51.31-3.03.47-4.56,1.62-.1,3.23-.21,4.82-.37Z"/><path class="cls-2" d="M266.64,407.88c.16,1.51.32,3.01.47,4.49-.1,0-.21,0-.31-.01l-.48-4.5c.11,0,.22.01.33.02Z"/><path class="cls-2" d="M280.09,407.75l-.49,4.57c-.11,0-.23,0-.34.01.16-1.51.31-3.03.47-4.56.12,0,.24-.01.36-.02Z"/><path class="cls-2" d="M253.09,364.81l-.42-3.47c-36.95-8.58-65.44-39.2-70.84-77.27-1.53-.19-3.04-.37-4.55-.55-.82-.1-1.63-.2-2.45-.29-3.25-.39-6.47-.77-9.65-1.14,1.09,10.78,3.77,21.26,8.02,31.29,3.75,8.87,8.61,17.12,14.5,24.66,2.74,3.5,5.7,6.85,8.89,10.03,1.84,1.84,3.73,3.6,5.68,5.29,0,0,0,0,0,0,8.66,7.53,18.39,13.6,29,18.09,7.59,3.21,15.43,5.52,23.46,6.93-.53-4.52-1.07-9.05-1.62-13.57Z"/><path class="cls-2" d="M382.58,263.18c0-.13-.02-.26-.03-.39-.85-11.87-3.64-23.4-8.28-34.38-3.37-7.97-7.63-15.43-12.73-22.32-3.22-4.36-6.78-8.48-10.65-12.36-.76-.76-1.52-1.5-2.29-2.22-9.5-8.96-20.38-16.07-32.39-21.15-9.62-4.08-19.67-6.71-29.99-7.88-1.59-.18-3.18-.32-4.78-.43-2.02-.14-4.04-.22-6.07-.25-.55,0-1.1-.01-1.65-.01-.27,0-.55,0-.82,0-2.31.01-4.61.1-6.89.26-1.33.09-2.65.21-3.97.35-10.61,1.12-20.92,3.79-30.8,7.97-11.87,5.02-22.63,12.01-32.03,20.81-.9.84-1.78,1.69-2.65,2.57-3.8,3.8-7.29,7.84-10.46,12.1-5.19,6.96-9.51,14.52-12.92,22.59-4.65,10.98-7.42,22.5-8.28,34.37h0c0,.14-.02.26-.03.4-.19,2.56-.27,5.13-.27,7.71s.09,5.16.27,7.71c.08,1.16.18,2.32.29,3.48,1.09,10.78,3.77,21.26,8.02,31.29,3.75,8.87,8.61,17.12,14.5,24.66,2.74,3.5,5.7,6.85,8.89,10.03,1.84,1.84,3.73,3.6,5.68,5.29,0,0,0,0,0,0,8.66,7.53,18.39,13.6,29,18.09,7.59,3.21,15.43,5.52,23.46,6.93-.53-4.52-1.07-9.05-1.62-13.57l-.42-3.47c-36.95-8.58-65.44-39.2-70.84-77.27-.03-.23-.07-.47-.1-.7,0,0,0-.02,0-.03-.04-.29-.08-.58-.11-.87-.48-3.79-.72-7.65-.72-11.57s.24-7.78.72-11.57c5.22-42.02,38.53-75.33,80.55-80.55,1.32-.17,2.65-.3,3.99-.41,2.23-.18,4.48-.28,6.76-.3.27,0,.55,0,.82,0,.55,0,1.1,0,1.65.01,2.27.04,4.52.16,6.74.36,1.06.1,2.13.21,3.18.34,42.02,5.23,75.33,38.53,80.56,80.55.47,3.79.71,7.66.71,11.57s-.24,7.78-.71,11.57c-4.8,38.55-33.22,69.76-70.33,78.69l-.44,3.64c-.55,4.47-1.08,8.96-1.61,13.44,7.78-1.42,15.38-3.69,22.73-6.8,10.45-4.43,20.04-10.38,28.62-17.76,2.08-1.79,4.1-3.67,6.07-5.63,3.1-3.11,6-6.37,8.69-9.78,5.98-7.6,10.9-15.93,14.69-24.9,4.22-9.97,6.9-20.41,8-31.13.13-1.21.23-2.43.31-3.64.19-2.56.27-5.13.27-7.71s-.09-5.16-.27-7.71Z"/><path class="cls-2" d="M253.09,364.81l-.42-3.47c-36.95-8.58-65.44-39.2-70.84-77.27-1.53-.19-3.04-.37-4.55-.55-.82-.1-1.63-.2-2.45-.29-3.25-.39-6.47-.77-9.65-1.14,1.09,10.78,3.77,21.26,8.02,31.29,3.75,8.87,8.61,17.12,14.5,24.66,2.74,3.5,5.7,6.85,8.89,10.03,1.84,1.84,3.73,3.6,5.68,5.29,0,0,0,0,0,0,8.66,7.53,18.39,13.6,29,18.09,7.59,3.21,15.43,5.52,23.46,6.93-.53-4.52-1.07-9.05-1.62-13.57Z"/><path class="cls-2" d="M345.16,193.94c3.02,2.35,5.92,4.9,8.69,7.68,2.77,2.77,5.33,5.68,7.68,8.69,3.1-5.1,6.14-9.95,9.1-14.56,9.09-14.16,17.52-26.08,25.07-35.98-9.89,7.55-21.82,15.98-35.98,25.07-4.61,2.96-9.46,6-14.56,9.1Z"/><path class="cls-2" d="M395.69,383.63c-5.74-4.38-12.16-9.06-19.31-13.99-1.23-.85-2.49-1.71-3.77-2.58-4.07-2.76-8.37-5.6-12.89-8.5-3.53-2.27-7.21-4.58-11.03-6.94-1.16-.71-2.34-1.43-3.53-2.16,3.02-2.35,5.92-4.9,8.69-7.68,2.77-2.77,5.33-5.67,7.68-8.69.64,1.05,1.27,2.08,1.91,3.11,2.44,3.97,4.85,7.78,7.19,11.44,2.86,4.45,5.65,8.68,8.37,12.7.87,1.29,1.74,2.57,2.61,3.82,4.97,7.21,9.68,13.68,14.09,19.46Z"/><path class="cls-2" d="M370.79,282.01c.95-3.79,1.43-7.65,1.43-11.57s-.49-7.78-1.43-11.57c11.54,1.41,22.64,2.69,33.3,3.86,32.72,3.58,61.36,6.06,85.9,7.71-24.55,1.66-53.19,4.13-85.9,7.71-10.65,1.17-21.75,2.45-33.3,3.86Z"/><path class="cls-2" d="M201.22,193.94c-3.02,2.35-5.92,4.9-8.69,7.68-2.77,2.77-5.33,5.68-7.68,8.69-3.1-5.1-6.14-9.95-9.1-14.56-9.09-14.16-17.52-26.08-25.07-35.98,9.89,7.55,21.82,15.98,35.98,25.07,4.61,2.96,9.46,6,14.56,9.1Z"/><path class="cls-2" d="M150.69,383.63c5.74-4.38,12.16-9.06,19.31-13.99,1.23-.85,2.49-1.71,3.77-2.58,4.07-2.76,8.37-5.6,12.89-8.5,3.53-2.27,7.21-4.58,11.03-6.94,1.16-.71,2.34-1.43,3.53-2.16-3.02-2.35-5.92-4.9-8.69-7.68-2.77-2.77-5.33-5.67-7.68-8.69-.64,1.05-1.27,2.08-1.91,3.11-2.44,3.97-4.85,7.78-7.19,11.44-2.86,4.45-5.65,8.68-8.37,12.7-.87,1.29-1.74,2.57-2.61,3.82-4.97,7.21-9.68,13.68-14.09,19.46Z"/><path class="cls-2" d="M175.59,282.01c-.95-3.79-1.43-7.65-1.43-11.57s.49-7.78,1.43-11.57c-11.54,1.41-22.64,2.69-33.3,3.86-32.72,3.58-61.36,6.06-85.9,7.71,24.55,1.66,53.19,4.13,85.9,7.71,10.65,1.17,21.75,2.45,33.3,3.86Z"/><path class="cls-2" d="M300.88,104.26v.46c-20.74,1.09-26.35,6.71-27.45,27.45h-.46c-1.1-20.74-6.72-26.36-27.46-27.46v-.46c20.74-1.1,26.36-6.71,27.45-27.45h.46c1.11,20.74,6.72,26.35,27.46,27.46Z"/><path class="cls-2" d="M415,266.35c-.64-25.69-8.28-51.56-23.83-74.59-3.23-4.97-6.79-9.66-10.63-14.05-1.32-1.51-2.67-2.98-4.05-4.42-25.55-26.62-61.94-41.37-99.02-42.34,36.5,1.09,70.65,18.35,95.32,44.91.75.81,1.49,1.62,2.22,2.44.97,1.08,1.92,2.18,2.84,3.27,21.65,25.64,31.93,55.2,32.8,84.32.14,4.44.05,8.87-.26,13.28-2.09,30.75-14.53,60.25-34.99,83.26-2.05,2.31-4.18,4.55-6.39,6.71-20.21,19.85-46.97,33.78-78.47,37.74-1.6.2-3.21.38-4.83.53-1.6.15-3.2.27-4.82.37-1.54.09-3.09.16-4.65.2-1.02.03-2.04.05-3.07.06-.48,0-.96-.01-1.43-.02-1.32-.02-2.63-.07-3.93-.13-1.61-.07-3.21-.17-4.8-.29-1.62-.12-3.23-.27-4.83-.45-32.49-3.57-59.92-17.56-80.54-37.68-2.07-2.02-4.07-4.1-6-6.24-20.97-23.22-33.62-53.2-35.65-84.4-.28-4.2-.36-8.42-.24-12.65.81-29.81,11.46-60.05,33.91-85.95,1.59-1.83,3.23-3.63,4.93-5.42.47-.49.94-.98,1.41-1.46,24.43-25.5,58.59-41.73,94.13-42.43-35.7.64-71.46,14.29-97.24,39.31-.67.66-1.33,1.33-1.98,2.01-1.33,1.37-2.63,2.76-3.89,4.18-22.3,24.99-34.62,57.33-35.61,90.2-.12,3.91-.08,7.83.13,11.74.82,15.81,4.29,31.56,10.57,46.49,6.47,15.97,15.71,30.13,26.94,42.17,1.6,1.71,3.23,3.37,4.9,4.99,22.95,22.24,53.07,36.24,84.71,39.67,1.61.18,3.22.32,4.83.44,1.6.12,3.2.21,4.8.27,1.4.06,2.79.09,4.19.11,1.01,0,2.03,0,3.05,0,1.63-.02,3.27-.07,4.91-.15,1.61-.07,3.21-.18,4.81-.31,1.61-.13,3.22-.29,4.82-.48,12.64-1.48,25.22-4.73,37.41-9.89,17.52-7.17,32.72-17.46,45.32-29.94,1.8-1.78,3.54-3.61,5.23-5.47,21.89-24.17,34.74-55.34,36.74-87.53.25-4.11.33-8.24.23-12.37Z"/></svg>
