<?xml version="1.0" encoding="UTF-8"?><svg id="Layer_1" xmlns="http://www.w3.org/2000/svg" xmlns:xlink="http://www.w3.org/1999/xlink" viewBox="0 0 847.99 840.74"><defs><style>.cls-1{fill:none;}.cls-2{fill:url(#Constellation_Pattern_2);}.cls-3{fill:#c7a6cf;}</style><pattern id="Constellation_Pattern_2" x="0" y="0" width="360" height="374.4" patternTransform="translate(3906.47 497.03)" patternUnits="userSpaceOnUse" viewBox="0 0 360 374.4"><rect class="cls-1" width="360" height="374.4"/><path class="cls-3" d="M192.1,375.07v.1c-4.43.23-5.62,1.43-5.86,5.86h-.1c-.23-4.43-1.43-5.63-5.86-5.86v-.1c4.43-.23,5.63-1.43,5.86-5.86h.1c.24,4.43,1.43,5.62,5.86,5.86Z"/><path class="cls-3" d="M359.07,320.12l47.18,12.47c-.32.3-.71.53-1.18.71l-47.44-12.53c-1.17.85-1.62,2.32-1.75,4.84h-.1c-.23-4.43-1.43-5.63-5.86-5.86v-.1c4.43-.24,5.63-1.43,5.86-5.86h.1c.14,2.67.63,4.17,1.98,4.98l61.22-24.01c.42.17.78.37,1.08.65l-60.94,23.9-1.29.51,1.14.3Z"/><path class="cls-3" d="M361.74,319.65v.1c-1.07.05-1.95.16-2.67.37l-1.14-.3,1.29-.51c.69.18,1.52.29,2.52.34Z"/><path class="cls-3" d="M177.43,57.81"/><path class="cls-3" d="M229.86,46.28l-32.94-2.29-28.06,17.4,32.56.74,28.44-15.86ZM197.17,45.01l29.26,2.03-25.27,14.09-28.92-.66,24.93-15.46Z"/><polygon class="cls-3" points="196.56 44.62 185.7 .83 186.68 .59 197.53 44.38 196.56 44.62"/><polygon class="cls-3" points="228.58 173.86 200.61 61.09 201.58 60.85 229.55 173.62 228.58 173.86"/><polygon class="cls-3" points="29.45 252.67 60.52 195.64 101 222.86 155.65 166.23 185.11 227.75 237.85 220.03 238 221.02 184.53 228.84 155.37 167.96 101.14 224.16 60.87 197.09 31.29 251.38 183.43 227.93 183.58 228.92 29.45 252.67"/><path class="cls-3" d="M113.44,127.85l-12.36-18.48,6.89-13.78,24.74-7.58,11.13,17.26.84-.54-11.54-17.9-25.87,7.93-6.83,13.65-.04-.06-.83.56.1.15-52.04-10.42-.11-.02L3.97,109.93l37.55,10.01,62.36,28.2,9.56-20.29ZM47.55,99.64l52.91,10.59,11.84,17.7-8.9,18.89-61.54-27.82-33.96-9.06,39.65-10.31Z"/><path class="cls-3" d="M332.83,25.54v.1c-4.43.23-5.62,1.43-5.86,5.86h-.1c-.23-4.43-1.43-5.63-5.86-5.86v-.1c4.43-.23,5.63-1.43,5.86-5.86h.1c.24,4.43,1.43,5.62,5.86,5.86Z"/><path class="cls-3" d="M289.81,20.14v.1c-4.43.23-5.62,1.43-5.86,5.86h-.1c-.23-4.43-1.43-5.63-5.86-5.86v-.1c4.43-.23,5.63-1.43,5.86-5.86h.1c.24,4.43,1.43,5.62,5.86,5.86Z"/><path class="cls-3" d="M293.22,55.35v.1c-4.43.23-5.62,1.43-5.86,5.86h-.1c-.23-4.43-1.43-5.63-5.86-5.86v-.1c4.43-.23,5.63-1.43,5.86-5.86h.1c.24,4.43,1.43,5.62,5.86,5.86Z"/><path class="cls-3" d="M265.14,81.61v.1c-4.43.23-5.62,1.43-5.86,5.86h-.1c-.23-4.43-1.43-5.63-5.86-5.86v-.1c4.43-.23,5.63-1.43,5.86-5.86h.1c.24,4.43,1.43,5.62,5.86,5.86Z"/><path class="cls-3" d="M347.89,69.79v.1c-4.43.23-5.62,1.43-5.86,5.86h-.1c-.23-4.43-1.43-5.63-5.86-5.86v-.1c4.43-.23,5.63-1.43,5.86-5.86h.1c.24,4.43,1.43,5.62,5.86,5.86Z"/><path class="cls-3" d="M325.26,104.21v.1c-4.43.23-5.62,1.43-5.86,5.86h-.1c-.23-4.43-1.43-5.63-5.86-5.86v-.1c4.43-.23,5.63-1.43,5.86-5.86h.1c.24,4.43,1.43,5.62,5.86,5.86Z"/><path class="cls-3" d="M331.17,116.03v.1c-4.43.23-5.62,1.43-5.86,5.86h-.1c-.23-4.43-1.43-5.63-5.86-5.86v-.1c4.43-.23,5.63-1.43,5.86-5.86h.1c.24,4.43,1.43,5.62,5.86,5.86Z"/><polygon class="cls-3" points="324.81 116.3 318.77 104.22 341.43 69.76 326.54 26.04 284.46 20.76 287.83 55.6 259.57 82.02 258.89 81.29 286.78 55.2 283.34 19.61 327.29 25.13 342.53 69.91 319.93 104.29 325.71 115.85 324.81 116.3"/><polygon class="cls-3" points="341.65 70.22 283.58 20.57 284.23 19.81 342.3 69.45 341.65 70.22"/><path class="cls-3" d="M67.65,294.1v.1c-4.43.23-5.62,1.43-5.86,5.86h-.1c-.12-2.36-.52-3.8-1.53-4.65-.3-.28-.66-.48-1.08-.65-.82-.32-1.88-.49-3.25-.56v-.1c4.43-.24,5.63-1.43,5.86-5.86h.1c.15,2.77.67,4.27,2.12,5.07h.01c.58.32,1.3.52,2.21.65h.01c.46.06.96.11,1.51.14Z"/><path class="cls-3" d="M82.82,338.94c-.56.32-1.26.53-2.13.66h0l-30.31-5.06c.71-.3,1.6-.47,2.73-.55l29.72,4.95Z"/><path class="cls-3" d="M86.61,367.7l-1,.05-.13-3.04h0s-.88-21.41-.88-21.41c.16.67.26,1.47.31,2.42h.1c.07-1.37.23-2.42.56-3.24l.92,22.3.12,2.92Z"/><path class="cls-3" d="M133.71,324.67v.1c-2.04.1-3.4.42-4.3,1.17-.26.21-.48.47-.67.77-.55.89-.8,2.15-.89,3.92h-.1c-.13-2.53-.58-4.01-1.77-4.86-.36-.25-.79-.45-1.31-.6-.74-.22-1.66-.34-2.78-.4v-.1c4.43-.23,5.63-1.43,5.86-5.86h.1c.08,1.68.31,2.89.8,3.77.18.31.38.57.62.8.89.84,2.28,1.18,4.44,1.29Z"/><path class="cls-3" d="M149.02,348.89c-.13.36-.3.68-.5.95l-19.78-23.13c.19-.3.41-.56.67-.77l19.61,22.95Z"/><path class="cls-3" d="M167.72,277.82l-38.45,45.56c-.24-.23-.44-.49-.62-.8l38.5-45.63-101.01,17.01h-.01c-.91-.13-1.63-.33-2.21-.65l102.21-17.2c.75.37,1.26.92,1.59,1.71Z"/><path class="cls-3" d="M125.98,325.77l-38.07,13.52c-.49-.15-.9-.36-1.24-.62l38-13.5c.52.15.95.35,1.31.6Z"/><path class="cls-3" d="M192.63,321.47v.1c-4.43.23-5.62,1.43-5.86,5.86h-.1c-.23-4.43-1.43-5.63-5.86-5.86v-.1c4.43-.23,5.63-1.43,5.86-5.86h.1c.24,4.43,1.43,5.62,5.86,5.86Z"/><path class="cls-3" d="M211.9,298.95v.1c-4.43.23-5.62,1.43-5.86,5.86h-.1c-.23-4.43-1.43-5.63-5.86-5.86v-.1c4.43-.23,5.63-1.43,5.86-5.86h.1c.24,4.43,1.43,5.62,5.86,5.86Z"/><path class="cls-3" d="M236.53,297.85v.1c-4.43.23-5.62,1.43-5.86,5.86h-.1c-.23-4.43-1.43-5.63-5.86-5.86v-.1c4.43-.23,5.63-1.43,5.86-5.86h.1c.24,4.43,1.43,5.62,5.86,5.86Z"/><path class="cls-3" d="M282.54,304.86v.1c-4.43.23-5.62,1.43-5.86,5.86h-.1c-.23-4.43-1.43-5.63-5.86-5.86v-.1c4.43-.23,5.63-1.43,5.86-5.86h.1c.24,4.43,1.43,5.62,5.86,5.86Z"/><path class="cls-3" d="M298.67,319.71v.1c-4.43.23-5.62,1.43-5.86,5.86h-.1c-.23-4.43-1.43-5.63-5.86-5.86v-.1c4.43-.23,5.63-1.43,5.86-5.86h.1c.24,4.43,1.43,5.62,5.86,5.86Z"/><path class="cls-3" d="M243.9,355.94v.1c-4.43.23-5.62,1.43-5.86,5.86h-.1c-.23-4.43-1.43-5.63-5.86-5.86v-.1c4.43-.23,5.63-1.43,5.86-5.86h.1c.24,4.43,1.43,5.62,5.86,5.86Z"/><path class="cls-3" d="M249.81,373.64v.1c-4.43.23-5.62,1.43-5.86,5.86h-.1c-.23-4.43-1.43-5.63-5.86-5.86v-.1c4.43-.23,5.63-1.43,5.86-5.86h.1c.24,4.43,1.43,5.62,5.86,5.86Z"/><path class="cls-3" d="M337.65,333.29v.1c-4.43.23-5.62,1.43-5.86,5.86h-.1c-.23-4.43-1.43-5.63-5.86-5.86v-.1c4.43-.23,5.63-1.43,5.86-5.86h.1c.24,4.43,1.43,5.62,5.86,5.86Z"/><polygon class="cls-3" points="331.58 333.81 292.5 320.19 276.41 305.38 230.54 298.39 206.23 299.49 187.1 321.84 186.34 321.19 205.75 298.51 230.6 297.4 276.86 304.44 293.03 319.32 331.91 332.87 331.58 333.81"/><polygon class="cls-3" points="243.43 373.84 237.39 355.78 292.49 319.34 293.04 320.17 238.59 356.19 244.37 373.53 243.43 373.84"/><path class="cls-3" d="M261.93,130.32v.1c-4.43.23-5.62,1.43-5.86,5.86h-.1c-.23-4.43-1.43-5.63-5.86-5.86v-.1c4.43-.23,5.63-1.43,5.86-5.86h.1c.24,4.43,1.43,5.62,5.86,5.86Z"/><path class="cls-3" d="M288.64,149.63v.1c-4.43.23-5.62,1.43-5.86,5.86h-.1c-.23-4.43-1.43-5.63-5.86-5.86v-.1c4.43-.23,5.63-1.43,5.86-5.86h.1c.24,4.43,1.43,5.62,5.86,5.86Z"/><path class="cls-3" d="M323.44,148.52v.1c-4.43.23-5.62,1.43-5.86,5.86h-.1c-.23-4.43-1.43-5.63-5.86-5.86v-.1c4.43-.23,5.63-1.43,5.86-5.86h.1c.24,4.43,1.43,5.62,5.86,5.86Z"/><path class="cls-3" d="M360.49,169.73v.1c-4.43.23-5.62,1.43-5.86,5.86h-.1c-.23-4.43-1.43-5.63-5.86-5.86v-.1c4.43-.23,5.63-1.43,5.86-5.86h.1c.24,4.43,1.43,5.62,5.86,5.86Z"/><path class="cls-3" d="M367.87,281.56v.1c-4.43.23-5.62,1.43-5.86,5.86h-.1c-.23-4.43-1.43-5.63-5.86-5.86v-.1c4.43-.23,5.63-1.43,5.86-5.86h.1c.24,4.43,1.43,5.62,5.86,5.86Z"/><path class="cls-3" d="M329.35,227.85v.1c-4.43.23-5.62,1.43-5.86,5.86h-.1c-.23-4.43-1.43-5.63-5.86-5.86v-.1c4.43-.23,5.63-1.43,5.86-5.86h.1c.24,4.43,1.43,5.62,5.86,5.86Z"/><path class="cls-3" d="M288.41,244.73v.1c-4.43.23-5.62,1.43-5.86,5.86h-.1c-.23-4.43-1.43-5.63-5.86-5.86v-.1c4.43-.23,5.63-1.43,5.86-5.86h.1c.24,4.43,1.43,5.62,5.86,5.86Z"/><path class="cls-3" d="M279.33,265.19v.1c-4.43.23-5.62,1.43-5.86,5.86h-.1c-.23-4.43-1.43-5.63-5.86-5.86v-.1c4.43-.23,5.63-1.43,5.86-5.86h.1c.24,4.43,1.43,5.62,5.86,5.86Z"/><path class="cls-3" d="M305.72,274.56v.1c-4.43.23-5.62,1.43-5.86,5.86h-.1c-.23-4.43-1.43-5.63-5.86-5.86v-.1c4.43-.23,5.63-1.43,5.86-5.86h.1c.24,4.43,1.43,5.62,5.86,5.86Z"/><path class="cls-3" d="M370.08,252.27v.1c-4.43.23-5.62,1.43-5.86,5.86h-.1c-.23-4.43-1.43-5.63-5.86-5.86v-.1c4.43-.23,5.63-1.43,5.86-5.86h.1c.24,4.43,1.43,5.62,5.86,5.86Z"/><path class="cls-3" d="M341.98,267.75v.1c-4.43.23-5.62,1.43-5.86,5.86h-.1c-.23-4.43-1.43-5.63-5.86-5.86v-.1c4.43-.23,5.63-1.43,5.86-5.86h.1c.24,4.43,1.43,5.62,5.86,5.86Z"/><path class="cls-3" d="M364.73,252.31l-30.46,14.99-34.48,7.74-24.57-9.61,7.89-20.28,40.52-16.79,37.41-33.78-6.03-25.13-38.47-21.29-32.49,1.02-27.74-19.5-.58.82,27.88,19.59.14.1,32.55-1.02,37.85,20.95,5.79,24.12-36.76,33.24-40.83,16.92-8.4,21.6,25.78,10.08,34.65-7.77,28.04,14.9,2.32-30.9ZM363.61,253.98l-2.08,27.63-25.99-13.81,28.06-13.81Z"/><path class="cls-3" d="M54.08,49.61h.1c.23,4.43,1.43,5.62,5.86,5.86v.1c-4.43.23-5.63,1.43-5.86,5.86h-.1c-.23-4.43-1.43-5.63-5.86-5.86v-.1c4.43-.24,5.62-1.43,5.86-5.86Z"/><path class="cls-3" d="M77.94,54.01h.1c.23,4.43,1.43,5.62,5.86,5.86v.1c-4.43.23-5.63,1.43-5.86,5.86h-.1c-.23-4.43-1.43-5.63-5.86-5.86v-.1c4.43-.24,5.62-1.43,5.86-5.86Z"/><path class="cls-3" d="M92.58,35.35h.1c.23,4.43,1.43,5.62,5.86,5.86v.1c-4.43.23-5.63,1.43-5.86,5.86h-.1c-.23-4.43-1.43-5.63-5.86-5.86v-.1c4.43-.24,5.62-1.43,5.86-5.86Z"/><path class="cls-3" d="M118.54,37.77h.1c.23,4.43,1.43,5.62,5.86,5.86v.1c-4.43.23-5.63,1.43-5.86,5.86h-.1c-.23-4.43-1.43-5.63-5.86-5.86v-.1c4.43-.24,5.62-1.43,5.86-5.86Z"/><path class="cls-3" d="M112.63,11.69h.1c.23,4.43,1.43,5.62,5.86,5.86v.1c-4.43.23-5.63,1.43-5.86,5.86h-.1c-.23-4.43-1.43-5.63-5.86-5.86v-.1c4.43-.24,5.62-1.43,5.86-5.86Z"/><path class="cls-3" d="M155.22,5.78h.1c.23,4.43,1.43,5.62,5.86,5.86v.1c-4.43.23-5.63,1.43-5.86,5.86h-.1c-.23-4.43-1.43-5.63-5.86-5.86v-.1c4.43-.24,5.62-1.43,5.86-5.86Z"/><path class="cls-3" d="M92.9,41.78l26.33,2.47-.21-.91.43.49,37.39-32.86-44.78,6.21,5.88,25.94-25.5-2.39-14.68,18.64-23.56-3.98-.17.99,24.15,4.08,14.71-18.68ZM153.69,12.41l-34.75,30.54-5.65-24.93,40.4-5.61Z"/><path class="cls-3" d="M174.32,275.27v.1c-4.43.24-5.63,1.43-5.86,5.86h-.1c-.08-1.46-.26-2.57-.64-3.41-.33-.79-.84-1.34-1.59-1.71-.86-.44-2.03-.65-3.63-.74v-.1c4.43-.23,5.63-1.43,5.86-5.86h.1c.23,4.43,1.43,5.63,5.86,5.86Z"/><path class="cls-3" d="M-.93,320.12l47.18,12.47c-.32.3-.71.53-1.18.71l-47.44-12.53c-1.17.85-1.62,2.32-1.75,4.84h-.1c-.23-4.43-1.43-5.63-5.86-5.86v-.1c4.43-.24,5.63-1.43,5.86-5.86h.1c.14,2.67.63,4.17,1.98,4.98l61.22-24.01c.42.17.78.37,1.08.65L-.78,319.31l-1.29.51,1.14.3Z"/><path class="cls-3" d="M1.74,319.65v.1c-1.07.05-1.95.16-2.67.37l-1.14-.3,1.29-.51c.69.18,1.52.29,2.52.34Z"/><path class="cls-3" d="M90.87,339.76v.1c-3.07.16-4.39.78-5.11,2.62-.33.82-.68,1.87-.75,3.24h-.1c-.05-.95-.15-1.75-.31-2.42h0c-.59-2.48-2.08-3.26-5.55-3.44v-.1c.6-.03,1.14-.08,1.63-.16h0c.87-.13,1.57-.34,2.13-.66h.01c1.42-.81,1.93-2.31,2.08-5.04h.1c.13,2.45.55,3.91,1.66,4.77.34.26.75.47,1.24.62.78.27,1.75.4,2.96.47Z"/><path class="cls-3" d="M53.68,333.85v.1c-.2,0-.39.02-.58.04-1.13.08-2.02.25-2.73.55-1.78.73-2.39,2.24-2.55,5.27h-.1c-.23-4.43-1.43-5.63-5.86-5.86v-.1c1.35-.07,2.4-.23,3.21-.55.47-.18.86-.41,1.18-.71.97-.87,1.35-2.3,1.47-4.6h.1c.23,4.43,1.43,5.62,5.86,5.86Z"/><path class="cls-3" d="M91.88,367.67v.1c-4.43.23-5.62,1.43-5.86,5.86h-.1c-.23-4.43-1.43-5.63-5.86-5.86v-.1c4.43-.23,5.63-1.43,5.86-5.86h.1c.24,4.43,1.43,5.62,5.86,5.86Z"/><path class="cls-3" d="M155.51,351.58v.1c-4.42.23-5.62,1.43-5.86,5.85h-.1c-.23-4.42-1.43-5.62-5.86-5.86v-.1c2.51-.13,3.98-.57,4.83-1.73.2-.27.37-.59.5-.95.31-.81.46-1.85.53-3.17h.1c.24,4.42,1.44,5.62,5.86,5.86Z"/><path class="cls-3" d="M243.83,220v.1c-4.43.23-5.62,1.43-5.86,5.86h-.1c-.23-4.43-1.43-5.63-5.86-5.86v-.1c4.43-.23,5.63-1.43,5.86-5.86h.1c.24,4.43,1.43,5.62,5.86,5.86Z"/><path class="cls-3" d="M190.44,227.71v.1c-4.43.23-5.62,1.43-5.86,5.86h-.1c-.23-4.43-1.43-5.63-5.86-5.86v-.1c4.43-.23,5.63-1.43,5.86-5.86h.1c.24,4.43,1.43,5.62,5.86,5.86Z"/><path class="cls-3" d="M161.37,167.05v.1c-4.43.23-5.62,1.43-5.86,5.86h-.1c-.23-4.43-1.43-5.63-5.86-5.86v-.1c4.43-.23,5.63-1.43,5.86-5.86h.1c.24,4.43,1.43,5.62,5.86,5.86Z"/><path class="cls-3" d="M106.63,223.32v.1c-4.43.23-5.62,1.43-5.86,5.86h-.1c-.23-4.43-1.43-5.63-5.86-5.86v-.1c4.43-.23,5.63-1.43,5.86-5.86h.1c.24,4.43,1.43,5.62,5.86,5.86Z"/><path class="cls-3" d="M66.5,197.06v.1c-4.43.23-5.62,1.43-5.86,5.86h-.1c-.23-4.43-1.43-5.63-5.86-5.86v-.1c4.43-.23,5.63-1.43,5.86-5.86h.1c.24,4.43,1.43,5.62,5.86,5.86Z"/><path class="cls-3" d="M36.28,251.98v.1c-4.43.23-5.62,1.43-5.86,5.86h-.1c-.23-4.43-1.43-5.63-5.86-5.86v-.1c4.43-.23,5.63-1.43,5.86-5.86h.1c.24,4.43,1.43,5.62,5.86,5.86Z"/><path class="cls-3" d="M234.9,173.49v.1c-4.43.23-5.62,1.43-5.86,5.86h-.1c-.23-4.43-1.43-5.63-5.86-5.86v-.1c4.43-.23,5.63-1.43,5.86-5.86h.1c.24,4.43,1.43,5.62,5.86,5.86Z"/><path class="cls-3" d="M175.41,61.37v.1c-4.43.23-5.62,1.43-5.86,5.86h-.1c-.23-4.43-1.43-5.63-5.86-5.86v-.1c4.43-.23,5.63-1.43,5.86-5.86h.1c.24,4.43,1.43,5.62,5.86,5.86Z"/><path class="cls-3" d="M207.31,60.95v.1c-4.43.23-5.62,1.43-5.86,5.86h-.1c-.23-4.43-1.43-5.63-5.86-5.86v-.1c4.43-.23,5.63-1.43,5.86-5.86h.1c.24,4.43,1.43,5.62,5.86,5.86Z"/><path class="cls-3" d="M233.2,46.49v.1c-4.43.23-5.62,1.43-5.86,5.86h-.1c-.23-4.43-1.43-5.63-5.86-5.86v-.1c4.43-.23,5.63-1.43,5.86-5.86h.1c.24,4.43,1.43,5.62,5.86,5.86Z"/><path class="cls-3" d="M202.95,44.96v.1c-4.43.23-5.62,1.43-5.86,5.86h-.1c-.23-4.43-1.43-5.63-5.86-5.86v-.1c4.43-.23,5.63-1.43,5.86-5.86h.1c.24,4.43,1.43,5.62,5.86,5.86Z"/><path class="cls-3" d="M192.1.67v.1c-4.43.23-5.62,1.43-5.86,5.86h-.1c-.23-4.43-1.43-5.63-5.86-5.86v-.1c4.43-.23,5.63-1.43,5.86-5.86h.1c.24,4.43,1.43,5.62,5.86,5.86Z"/><path class="cls-3" d="M149.18,103.89v.1c-4.43.23-5.62,1.43-5.86,5.86h-.1c-.23-4.43-1.43-5.63-5.86-5.86v-.1c4.43-.23,5.63-1.43,5.86-5.86h.1c.24,4.43,1.43,5.62,5.86,5.86Z"/><path class="cls-3" d="M138.21,86.93v.1c-4.43.23-5.62,1.43-5.86,5.86h-.1c-.23-4.43-1.43-5.63-5.86-5.86v-.1c4.43-.23,5.63-1.43,5.86-5.86h.1c.24,4.43,1.43,5.62,5.86,5.86Z"/><path class="cls-3" d="M113.53,95.15v.1c-4.43.23-5.62,1.43-5.86,5.86h-.1c-.23-4.43-1.43-5.63-5.86-5.86v-.1c4.43-.23,5.63-1.43,5.86-5.86h.1c.24,4.43,1.43,5.62,5.86,5.86Z"/><path class="cls-3" d="M105.89,109.08v.1c-4.43.23-5.62,1.43-5.86,5.86h-.1c-.23-4.43-1.43-5.63-5.86-5.86v-.1c4.43-.23,5.63-1.43,5.86-5.86h.1c.24,4.43,1.43,5.62,5.86,5.86Z"/><path class="cls-3" d="M118.46,127.96v.1c-4.43.23-5.62,1.43-5.86,5.86h-.1c-.23-4.43-1.43-5.63-5.86-5.86v-.1c4.43-.23,5.63-1.43,5.86-5.86h.1c.24,4.43,1.43,5.62,5.86,5.86Z"/><path class="cls-3" d="M53.43,99.75v.1c-4.43.23-5.62,1.43-5.86,5.86h-.1c-.23-4.43-1.43-5.63-5.86-5.86v-.1c4.43-.23,5.63-1.43,5.86-5.86h.1c.24,4.43,1.43,5.62,5.86,5.86Z"/><path class="cls-3" d="M109.65,147.43v.1c-4.43.23-5.62,1.43-5.86,5.86h-.1c-.23-4.43-1.43-5.63-5.86-5.86v-.1c4.43-.23,5.63-1.43,5.86-5.86h.1c.24,4.43,1.43,5.62,5.86,5.86Z"/><path class="cls-3" d="M47.53,119.16v.1c-4.43.23-5.62,1.43-5.86,5.86h-.1c-.23-4.43-1.43-5.63-5.86-5.86v-.1c4.43-.23,5.63-1.43,5.86-5.86h.1c.24,4.43,1.43,5.62,5.86,5.86Z"/><path class="cls-3" d="M12.38,109.8v.1c-4.43.23-5.62,1.43-5.86,5.86h-.1c-.23-4.43-1.43-5.63-5.86-5.86v-.1c4.43-.23,5.63-1.43,5.86-5.86h.1c.24,4.43,1.43,5.62,5.86,5.86Z"/><path class="cls-3" d="M.49,169.73v.1c-4.43.23-5.62,1.43-5.86,5.86h-.1c-.23-4.43-1.43-5.63-5.86-5.86v-.1c4.43-.23,5.63-1.43,5.86-5.86h.1c.24,4.43,1.43,5.62,5.86,5.86Z"/><path class="cls-3" d="M7.87,281.56v.1c-4.43.23-5.62,1.43-5.86,5.86h-.1c-.23-4.43-1.43-5.63-5.86-5.86v-.1c4.43-.23,5.63-1.43,5.86-5.86h.1c.24,4.43,1.43,5.62,5.86,5.86Z"/><path class="cls-3" d="M10.08,252.27v.1c-4.43.23-5.62,1.43-5.86,5.86h-.1c-.23-4.43-1.43-5.63-5.86-5.86v-.1c4.43-.23,5.63-1.43,5.86-5.86h.1c.24,4.43,1.43,5.62,5.86,5.86Z"/><path class="cls-3" d="M4.73,252.31l-30.46,14.99-34.48,7.74-24.57-9.61,7.89-20.28,40.52-16.79L1.04,194.58l-6.03-25.13-38.47-21.29-32.49,1.02-27.74-19.5-.58.82,27.88,19.59.14.1,32.55-1.02,37.85,20.95L-.07,194.23l-36.76,33.24-40.83,16.92-8.4,21.6,25.78,10.08,34.65-7.77,28.04,14.9,2.32-30.9ZM3.61,253.98l-2.08,27.63-25.99-13.81,28.06-13.81Z"/><path class="cls-3" d="M249.81-.76v.1c-4.43.23-5.62,1.43-5.86,5.86h-.1c-.23-4.43-1.43-5.63-5.86-5.86v-.1c4.43-.23,5.63-1.43,5.86-5.86h.1c.24,4.43,1.43,5.62,5.86,5.86Z"/></pattern></defs><rect class="cls-2" x="-3.78" y="-7.4" width="855.55" height="855.55"/></svg>